<svg xmlns="http://www.w3.org/2000/svg" xmlns:xlink="http://www.w3.org/1999/xlink" width="300" zoomAndPan="magnify" viewBox="0 0 224.87999 374.999991" height="500" preserveAspectRatio="xMidYMid meet" version="1.0"><defs><g/><clipPath id="b4a0cea225"><path d="M 0 0.101562 L 224.761719 0.101562 L 224.761719 374.898438 L 0 374.898438 Z M 0 0.101562 " clip-rule="nonzero"/></clipPath></defs><g clip-path="url(#b4a0cea225)"><path fill="#ffffff" d="M 0 0.101562 L 224.878906 0.101562 L 224.878906 374.898438 L 0 374.898438 Z M 0 0.101562 " fill-opacity="1" fill-rule="nonzero"/><path fill="#ffffff" d="M 0 0.101562 L 224.878906 0.101562 L 224.878906 374.898438 L 0 374.898438 Z M 0 0.101562 " fill-opacity="1" fill-rule="nonzero"/></g><path stroke-linecap="butt" transform="matrix(0.520804, 0, 0, 0.520804, 40.070329, 57.926014)" fill="none" stroke-linejoin="miter" d="M 11.985647 63.003125 C 11.490619 63.003125 11.078096 62.845616 10.755577 62.530599 C 10.440559 62.20058 10.283051 61.818058 10.283051 61.368033 L 10.283051 9.847612 C 10.283051 9.300081 10.44806 8.850055 10.793079 8.490035 C 11.138099 8.115013 11.588124 7.927503 12.128155 7.927503 L 34.25441 7.927503 C 41.979848 7.927503 47.822679 9.150072 51.797904 11.602711 C 55.78813 14.04785 57.783244 17.670555 57.783244 22.478328 C 57.783244 25.095976 57.063203 27.316102 55.623121 29.131205 C 54.19804 30.931307 51.677897 32.671406 48.070193 34.351501 C 47.972687 34.396503 47.920184 34.486509 47.920184 34.621516 C 47.920184 34.741523 47.972687 34.824028 48.070193 34.876531 C 52.07542 36.346614 54.925581 38.101714 56.605677 40.126828 C 58.285772 42.159444 59.12582 44.784592 59.12582 48.009775 C 59.12582 53.102564 57.175709 56.867777 53.290489 59.320417 C 49.405269 61.773056 43.464932 63.003125 35.454478 63.003125 Z M 35.454478 29.453723 C 37.179575 29.453723 38.567154 28.981196 39.602213 28.043643 C 40.644772 27.09859 41.162301 25.883521 41.162301 24.398437 C 41.162301 22.815847 40.562267 21.533274 39.3697 20.535718 C 38.184632 19.545662 36.707049 19.050633 34.929448 19.050633 L 28.839103 19.050633 C 28.201566 19.050633 27.751541 19.17064 27.496526 19.395653 C 27.256513 19.613165 27.136506 19.995687 27.136506 20.535718 L 27.136506 27.80363 C 27.136506 28.411164 27.234012 28.838688 27.429023 29.093703 C 27.631534 29.333716 27.954052 29.453723 28.389077 29.453723 Z M 35.071956 51.872494 C 37.104571 51.872494 38.694661 51.302462 39.857227 50.169898 C 41.027294 49.022333 41.612327 47.679757 41.612327 46.14967 C 41.612327 44.612083 41.042294 43.352011 39.894729 42.361955 C 38.762165 41.364399 37.277081 40.86937 35.454478 40.86937 L 28.839103 40.86937 C 28.201566 40.86937 27.751541 40.996878 27.496526 41.251892 C 27.256513 41.491906 27.136506 41.889428 27.136506 42.429459 L 27.136506 50.222401 C 27.136506 50.829935 27.234012 51.257459 27.429023 51.512474 C 27.631534 51.752487 27.954052 51.872494 28.389077 51.872494 Z M 113.301391 60.625491 C 113.398897 60.820502 113.443899 61.090517 113.443899 61.443037 C 113.443899 61.885562 113.308892 62.260583 113.023875 62.568101 C 112.76136 62.853117 112.40884 63.003125 111.973816 63.003125 L 97.565499 63.003125 C 96.53044 63.003125 95.862902 62.478096 95.555385 61.443037 L 88.57999 42.286951 C 88.437481 41.889428 88.189967 41.589411 87.837447 41.3944 C 87.499928 41.20689 86.982399 41.109384 86.277359 41.109384 L 82.872166 41.109384 C 82.572149 41.109384 82.347136 41.20689 82.204628 41.3944 C 82.05462 41.589411 81.987116 41.769422 81.987116 41.92693 L 81.987116 60.843003 C 81.987116 61.638048 81.784604 62.20058 81.387082 62.530599 C 80.989559 62.845616 80.367024 63.003125 79.534477 63.003125 L 67.053769 63.003125 C 66.311227 63.003125 65.808699 62.853117 65.531183 62.568101 C 65.261167 62.260583 65.12616 61.795557 65.12616 61.15052 L 65.12616 9.630099 C 65.12616 8.490035 65.598687 7.927503 66.54374 7.927503 L 91.332646 7.927503 C 98.510553 7.927503 104.075868 9.300081 108.028592 12.037736 C 111.988817 14.782892 113.968929 18.653111 113.968929 23.655895 C 113.968929 27.076088 113.061377 30.121261 111.253775 32.791412 C 109.453673 35.461564 107.121041 37.33667 104.255878 38.424232 C 103.955861 38.581741 103.805853 38.829255 103.805853 39.166774 C 103.805853 39.316782 103.850855 39.534295 103.948361 39.841812 Z M 90.665108 30.038756 C 92.547714 30.038756 93.995297 29.558729 95.015354 28.606175 C 96.027912 27.63862 96.537941 26.333546 96.537941 24.690953 C 96.537941 22.860849 95.922906 21.443269 94.707837 20.430712 C 93.500268 19.418154 92.000183 18.908125 90.207582 18.908125 L 83.689712 18.908125 C 83.044676 18.908125 82.602151 19.020632 82.347136 19.253145 C 82.107123 19.470657 81.987116 19.853179 81.987116 20.39321 L 81.987116 28.478668 C 81.987116 29.018699 82.06962 29.416221 82.23463 29.671236 C 82.40714 29.911249 82.737158 30.038756 83.232186 30.038756 Z M 119.97677 9.630099 C 119.97677 8.490035 120.449296 7.927503 121.39435 7.927503 L 161.476622 7.927503 C 162.361673 7.927503 162.804198 8.445032 162.804198 9.487591 L 162.729193 18.090579 C 162.729193 19.433155 162.091657 20.100693 160.809085 20.100693 L 138.532822 20.100693 C 137.400257 20.100693 136.830225 20.565719 136.830225 21.495772 L 136.830225 27.80363 C 136.830225 28.298658 136.950232 28.68868 137.190245 28.966196 C 137.44526 29.243711 137.775279 29.386219 138.172801 29.386219 L 151.531059 29.386219 C 152.566117 29.386219 153.083647 29.873747 153.083647 30.848802 L 153.083647 40.059325 C 153.083647 40.899372 152.641121 41.326896 151.748571 41.326896 L 138.007792 41.326896 C 137.670273 41.326896 137.385257 41.424402 137.160244 41.634414 C 136.942731 41.829425 136.830225 42.069439 136.830225 42.361955 L 136.830225 49.787376 C 136.830225 50.184899 136.890228 50.462414 137.010235 50.604922 C 137.130242 50.747431 137.370256 50.822435 137.722776 50.822435 L 161.844143 50.822435 C 162.924204 50.822435 163.471735 51.294962 163.471735 52.232515 L 163.471735 61.368033 C 163.471735 61.863061 163.321727 62.260583 163.02171 62.568101 C 162.729193 62.853117 162.286668 63.003125 161.694135 63.003125 L 121.986884 63.003125 C 121.236841 63.003125 120.711811 62.853117 120.411794 62.568101 C 120.119278 62.260583 119.97677 61.795557 119.97677 61.15052 Z M 218.397349 7.927503 C 218.847375 7.927503 219.207395 8.062511 219.46991 8.340026 C 219.747426 8.610042 219.889934 8.962562 219.889934 9.412587 C 219.889934 9.705104 219.859932 9.922616 219.81493 10.080125 L 202.578953 61.15052 C 202.241434 62.38059 201.326382 63.003125 199.841297 63.003125 L 187.810615 63.003125 C 186.325531 63.003125 185.410479 62.38059 185.07296 61.15052 L 167.836983 10.080125 C 167.739477 9.780108 167.694475 9.555095 167.694475 9.412587 C 167.694475 8.962562 167.836983 8.610042 168.1295 8.340026 C 168.429517 8.062511 168.804538 7.927503 169.254563 7.927503 L 183.587876 7.927503 C 184.53293 7.927503 185.147964 8.445032 185.432981 9.487591 L 195.386045 42.069439 C 195.48355 42.421958 195.611058 42.594468 195.768567 42.594468 C 195.866072 42.594468 195.986079 42.391957 196.128587 41.994434 L 205.406613 9.487591 C 205.504118 8.985063 205.736632 8.610042 206.111653 8.340026 C 206.486674 8.062511 206.899198 7.927503 207.349223 7.927503 Z M 225.515253 9.630099 C 225.515253 8.490035 225.98778 7.927503 226.932833 7.927503 L 267.015106 7.927503 C 267.900156 7.927503 268.342681 8.445032 268.342681 9.487591 L 268.267677 18.090579 C 268.267677 19.433155 267.630141 20.100693 266.347568 20.100693 L 244.071305 20.100693 C 242.938741 20.100693 242.368709 20.565719 242.368709 21.495772 L 242.368709 27.80363 C 242.368709 28.298658 242.488715 28.68868 242.736229 28.966196 C 242.983743 29.243711 243.313762 29.386219 243.711285 29.386219 L 257.069542 29.386219 C 258.104601 29.386219 258.62963 29.873747 258.62963 30.848802 L 258.62963 40.059325 C 258.62963 40.899372 258.179605 41.326896 257.287054 41.326896 L 243.546275 41.326896 C 243.208756 41.326896 242.92374 41.424402 242.698727 41.634414 C 242.481215 41.829425 242.368709 42.069439 242.368709 42.361955 L 242.368709 49.787376 C 242.368709 50.184899 242.428712 50.462414 242.548719 50.604922 C 242.668726 50.747431 242.908739 50.822435 243.261259 50.822435 L 267.382627 50.822435 C 268.470188 50.822435 269.010219 51.294962 269.010219 52.232515 L 269.010219 61.368033 C 269.010219 61.863061 268.86021 62.260583 268.560193 62.568101 C 268.267677 62.853117 267.825152 63.003125 267.232618 63.003125 L 227.525367 63.003125 C 226.775324 63.003125 226.250295 62.853117 225.950278 62.568101 C 225.657761 62.260583 225.515253 61.795557 225.515253 61.15052 Z M 225.515253 9.630099 " stroke="#004aad" stroke-width="2.783884" stroke-opacity="1" stroke-miterlimit="4"/><g fill="#004aad" fill-opacity="1"><g transform="translate(82.086713, 58.100372)"><g><path d="M 1.953125 -26.921875 C 1.953125 -27.492188 2.1875 -27.78125 2.65625 -27.78125 L 22.875 -27.78125 C 23.320312 -27.78125 23.546875 -27.519531 23.546875 -27 L 23.515625 -22.65625 C 23.515625 -21.976562 23.1875 -21.640625 22.53125 -21.640625 L 11.3125 -21.640625 C 10.726562 -21.640625 10.4375 -21.398438 10.4375 -20.921875 L 10.4375 -17.75 C 10.4375 -17.5 10.5 -17.300781 10.625 -17.15625 C 10.75 -17.019531 10.914062 -16.953125 11.125 -16.953125 L 17.859375 -16.953125 C 18.378906 -16.953125 18.640625 -16.703125 18.640625 -16.203125 L 18.640625 -11.5625 C 18.640625 -11.144531 18.414062 -10.9375 17.96875 -10.9375 L 11.046875 -10.9375 C 10.867188 -10.9375 10.722656 -10.882812 10.609375 -10.78125 C 10.492188 -10.675781 10.4375 -10.550781 10.4375 -10.40625 L 10.4375 -6.65625 C 10.4375 -6.457031 10.46875 -6.320312 10.53125 -6.25 C 10.59375 -6.175781 10.710938 -6.140625 10.890625 -6.140625 L 23.0625 -6.140625 C 23.613281 -6.140625 23.890625 -5.898438 23.890625 -5.421875 L 23.890625 -0.828125 C 23.890625 -0.578125 23.8125 -0.375 23.65625 -0.21875 C 23.507812 -0.0703125 23.285156 0 22.984375 0 L 2.953125 0 C 2.578125 0 2.316406 -0.0703125 2.171875 -0.21875 C 2.023438 -0.375 1.953125 -0.613281 1.953125 -0.9375 Z M 1.953125 -26.921875 "/></g></g></g><g fill="#004aad" fill-opacity="1"><g transform="translate(107.198641, 58.100372)"><g><path d="M 2.921875 0 C 2.617188 0 2.378906 -0.09375 2.203125 -0.28125 C 2.035156 -0.46875 1.953125 -0.722656 1.953125 -1.046875 L 1.953125 -26.921875 C 1.953125 -27.210938 2.015625 -27.425781 2.140625 -27.5625 C 2.265625 -27.707031 2.460938 -27.78125 2.734375 -27.78125 L 13.21875 -27.78125 C 13.539062 -27.78125 13.769531 -27.734375 13.90625 -27.640625 C 14.039062 -27.554688 14.160156 -27.378906 14.265625 -27.109375 L 18.15625 -15.203125 C 18.226562 -15.003906 18.316406 -14.90625 18.421875 -14.90625 C 18.492188 -14.90625 18.566406 -15.003906 18.640625 -15.203125 L 22.125 -26.6875 C 22.320312 -27.414062 22.660156 -27.78125 23.140625 -27.78125 L 33.953125 -27.78125 C 34.398438 -27.78125 34.625 -27.519531 34.625 -27 L 34.625 -1.078125 C 34.625 -0.679688 34.53125 -0.398438 34.34375 -0.234375 C 34.15625 -0.078125 33.851562 0 33.4375 0 L 27.109375 0 C 26.734375 0 26.472656 -0.0703125 26.328125 -0.21875 C 26.191406 -0.375 26.125 -0.613281 26.125 -0.9375 L 26.125 -17.75 C 26.125 -17.945312 26.078125 -18.046875 25.984375 -18.046875 C 25.859375 -18.046875 25.757812 -17.929688 25.6875 -17.703125 L 20.296875 -0.671875 C 20.117188 -0.222656 19.816406 0 19.390625 0 L 15.46875 0 C 15.007812 0 14.707031 -0.222656 14.5625 -0.671875 L 9.171875 -17.40625 C 9.097656 -17.65625 9.007812 -17.78125 8.90625 -17.78125 C 8.78125 -17.78125 8.71875 -17.644531 8.71875 -17.375 L 8.71875 -0.828125 C 8.71875 -0.503906 8.664062 -0.285156 8.5625 -0.171875 C 8.46875 -0.0546875 8.25 0 7.90625 0 Z M 2.921875 0 "/></g></g></g><path stroke-linecap="butt" transform="matrix(0.520804, 0, 0, 0.520804, 40.070329, 183.966107)" fill="none" stroke-linejoin="miter" d="M 11.985647 63.001146 C 11.490619 63.001146 11.078096 62.843637 10.755577 62.528619 C 10.440559 62.206101 10.283051 61.816079 10.283051 61.366053 L 10.283051 9.845632 C 10.283051 9.305601 10.44806 8.848076 10.793079 8.488055 C 11.138099 8.113034 11.588124 7.925523 12.128155 7.925523 L 34.25441 7.925523 C 41.979848 7.925523 47.822679 9.148093 51.797904 11.600732 C 55.78813 14.04587 57.783244 17.668576 57.783244 22.476348 C 57.783244 25.101497 57.063203 27.314122 55.623121 29.129225 C 54.19804 30.929327 51.677897 32.669426 48.070193 34.349521 C 47.972687 34.394524 47.920184 34.484529 47.920184 34.619537 C 47.920184 34.739543 47.972687 34.822048 48.070193 34.874551 C 52.07542 36.344634 54.925581 38.099734 56.605677 40.132349 C 58.285772 42.157464 59.12582 44.790113 59.12582 48.015296 C 59.12582 53.100584 57.175709 56.865798 53.290489 59.318437 C 49.405269 61.771076 43.464932 63.001146 35.454478 63.001146 Z M 35.454478 29.451744 C 37.179575 29.451744 38.567154 28.986717 39.602213 28.041664 C 40.644772 27.09661 41.162301 25.881541 41.162301 24.396457 C 41.162301 22.813867 40.562267 21.531295 39.3697 20.541238 C 38.184632 19.551182 36.707049 19.056154 34.929448 19.056154 L 28.839103 19.056154 C 28.201566 19.056154 27.751541 19.168661 27.496526 19.393673 C 27.256513 19.611186 27.136506 19.993707 27.136506 20.541238 L 27.136506 27.809151 C 27.136506 28.409185 27.234012 28.836709 27.429023 29.091723 C 27.631534 29.331737 27.954052 29.451744 28.389077 29.451744 Z M 35.071956 51.870515 C 37.104571 51.870515 38.694661 51.307983 39.857227 50.167918 C 41.027294 49.020353 41.612327 47.677777 41.612327 46.14769 C 41.612327 44.610103 41.042294 43.350032 39.894729 42.359975 C 38.762165 41.369919 37.277081 40.874891 35.454478 40.874891 L 28.839103 40.874891 C 28.201566 40.874891 27.751541 41.002399 27.496526 41.249913 C 27.256513 41.497427 27.136506 41.887449 27.136506 42.427479 L 27.136506 50.220421 C 27.136506 50.827956 27.234012 51.25548 27.429023 51.510494 C 27.631534 51.750508 27.954052 51.870515 28.389077 51.870515 Z M 113.301391 60.623511 C 113.398897 60.818522 113.443899 61.088537 113.443899 61.441057 C 113.443899 61.891083 113.308892 62.266104 113.023875 62.566121 C 112.76136 62.858638 112.40884 63.001146 111.973816 63.001146 L 97.565499 63.001146 C 96.53044 63.001146 95.862902 62.483616 95.555385 61.441057 L 88.57999 42.284971 C 88.437481 41.887449 88.189967 41.594932 87.837447 41.399921 C 87.499928 41.20491 86.982399 41.107404 86.277359 41.107404 L 82.872166 41.107404 C 82.572149 41.107404 82.347136 41.20491 82.204628 41.399921 C 82.05462 41.594932 81.987116 41.767442 81.987116 41.924951 L 81.987116 60.841023 C 81.987116 61.643569 81.784604 62.206101 81.387082 62.528619 C 80.989559 62.843637 80.367024 63.001146 79.534477 63.001146 L 67.053769 63.001146 C 66.311227 63.001146 65.808699 62.858638 65.531183 62.566121 C 65.261167 62.266104 65.12616 61.793577 65.12616 61.148541 L 65.12616 9.62812 C 65.12616 8.495556 65.598687 7.925523 66.54374 7.925523 L 91.332646 7.925523 C 98.510553 7.925523 104.075868 9.298101 108.028592 12.035756 C 111.988817 14.780912 113.968929 18.651131 113.968929 23.653915 C 113.968929 27.074109 113.061377 30.119282 111.253775 32.789433 C 109.453673 35.459584 107.121041 37.342191 104.255878 38.422252 C 103.955861 38.579761 103.805853 38.827275 103.805853 39.172295 C 103.805853 39.314803 103.850855 39.539816 103.948361 39.839833 Z M 90.665108 30.036777 C 92.547714 30.036777 93.995297 29.55675 95.015354 28.604196 C 96.027912 27.636641 96.537941 26.331567 96.537941 24.688974 C 96.537941 22.86637 95.922906 21.44129 94.707837 20.428732 C 93.500268 19.416175 92.000183 18.906146 90.207582 18.906146 L 83.689712 18.906146 C 83.044676 18.906146 82.602151 19.026153 82.347136 19.251165 C 82.107123 19.468678 81.987116 19.851199 81.987116 20.39123 L 81.987116 28.476688 C 81.987116 29.016719 82.06962 29.421742 82.23463 29.669256 C 82.40714 29.91677 82.737158 30.036777 83.232186 30.036777 Z M 119.97677 9.62812 C 119.97677 8.495556 120.449296 7.925523 121.39435 7.925523 L 161.476622 7.925523 C 162.361673 7.925523 162.804198 8.443053 162.804198 9.485612 L 162.729193 18.088599 C 162.729193 19.431176 162.091657 20.106214 160.809085 20.106214 L 138.532822 20.106214 C 137.400257 20.106214 136.830225 20.57124 136.830225 21.501293 L 136.830225 27.809151 C 136.830225 28.304179 136.950232 28.6867 137.190245 28.964216 C 137.44526 29.241732 137.775279 29.38424 138.172801 29.38424 L 151.531059 29.38424 C 152.566117 29.38424 153.083647 29.871767 153.083647 30.854323 L 153.083647 40.057345 C 153.083647 40.904893 152.641121 41.324917 151.748571 41.324917 L 138.007792 41.324917 C 137.670273 41.324917 137.385257 41.429923 137.160244 41.632434 C 136.942731 41.827445 136.830225 42.067459 136.830225 42.359975 L 136.830225 49.785396 C 136.830225 50.190419 136.890228 50.460435 137.010235 50.602943 C 137.130242 50.745451 137.370256 50.820455 137.722776 50.820455 L 161.844143 50.820455 C 162.924204 50.820455 163.471735 51.292982 163.471735 52.238036 L 163.471735 61.366053 C 163.471735 61.861081 163.321727 62.266104 163.02171 62.566121 C 162.729193 62.858638 162.286668 63.001146 161.694135 63.001146 L 121.986884 63.001146 C 121.236841 63.001146 120.711811 62.858638 120.411794 62.566121 C 120.119278 62.266104 119.97677 61.793577 119.97677 61.148541 Z M 218.397349 7.925523 C 218.847375 7.925523 219.207395 8.068031 219.46991 8.345547 C 219.747426 8.608062 219.889934 8.968082 219.889934 9.410607 C 219.889934 9.703124 219.859932 9.928137 219.81493 10.085646 L 202.578953 61.148541 C 202.241434 62.386111 201.326382 63.001146 199.841297 63.001146 L 187.810615 63.001146 C 186.325531 63.001146 185.410479 62.386111 185.07296 61.148541 L 167.836983 10.085646 C 167.739477 9.778128 167.694475 9.553116 167.694475 9.410607 C 167.694475 8.968082 167.836983 8.608062 168.1295 8.345547 C 168.429517 8.068031 168.804538 7.925523 169.254563 7.925523 L 183.587876 7.925523 C 184.53293 7.925523 185.147964 8.443053 185.432981 9.485612 L 195.386045 42.067459 C 195.48355 42.419979 195.611058 42.592489 195.768567 42.592489 C 195.866072 42.592489 195.986079 42.397478 196.128587 41.992455 L 205.406613 9.485612 C 205.504118 8.990584 205.736632 8.608062 206.111653 8.345547 C 206.486674 8.068031 206.899198 7.925523 207.349223 7.925523 Z M 225.515253 9.62812 C 225.515253 8.495556 225.98778 7.925523 226.932833 7.925523 L 267.015106 7.925523 C 267.900156 7.925523 268.342681 8.443053 268.342681 9.485612 L 268.267677 18.088599 C 268.267677 19.431176 267.630141 20.106214 266.347568 20.106214 L 244.071305 20.106214 C 242.938741 20.106214 242.368709 20.57124 242.368709 21.501293 L 242.368709 27.809151 C 242.368709 28.304179 242.488715 28.6867 242.736229 28.964216 C 242.983743 29.241732 243.313762 29.38424 243.711285 29.38424 L 257.069542 29.38424 C 258.104601 29.38424 258.62963 29.871767 258.62963 30.854323 L 258.62963 40.057345 C 258.62963 40.904893 258.179605 41.324917 257.287054 41.324917 L 243.546275 41.324917 C 243.208756 41.324917 242.92374 41.429923 242.698727 41.632434 C 242.481215 41.827445 242.368709 42.067459 242.368709 42.359975 L 242.368709 49.785396 C 242.368709 50.190419 242.428712 50.460435 242.548719 50.602943 C 242.668726 50.745451 242.908739 50.820455 243.261259 50.820455 L 267.382627 50.820455 C 268.470188 50.820455 269.010219 51.292982 269.010219 52.238036 L 269.010219 61.366053 C 269.010219 61.861081 268.86021 62.266104 268.560193 62.566121 C 268.267677 62.858638 267.825152 63.001146 267.232618 63.001146 L 227.525367 63.001146 C 226.775324 63.001146 226.250295 62.858638 225.950278 62.566121 C 225.657761 62.266104 225.515253 61.793577 225.515253 61.148541 Z M 225.515253 9.62812 " stroke="#004aad" stroke-width="2.783884" stroke-opacity="1" stroke-miterlimit="4"/><g fill="#004aad" fill-opacity="1"><g transform="translate(82.086713, 184.140469)"><g><path d="M 1.953125 -26.921875 C 1.953125 -27.492188 2.1875 -27.78125 2.65625 -27.78125 L 22.875 -27.78125 C 23.320312 -27.78125 23.546875 -27.519531 23.546875 -27 L 23.515625 -22.65625 C 23.515625 -21.976562 23.1875 -21.640625 22.53125 -21.640625 L 11.3125 -21.640625 C 10.726562 -21.640625 10.4375 -21.398438 10.4375 -20.921875 L 10.4375 -17.75 C 10.4375 -17.5 10.5 -17.300781 10.625 -17.15625 C 10.75 -17.019531 10.914062 -16.953125 11.125 -16.953125 L 17.859375 -16.953125 C 18.378906 -16.953125 18.640625 -16.703125 18.640625 -16.203125 L 18.640625 -11.5625 C 18.640625 -11.144531 18.414062 -10.9375 17.96875 -10.9375 L 11.046875 -10.9375 C 10.867188 -10.9375 10.722656 -10.882812 10.609375 -10.78125 C 10.492188 -10.675781 10.4375 -10.550781 10.4375 -10.40625 L 10.4375 -6.65625 C 10.4375 -6.457031 10.46875 -6.320312 10.53125 -6.25 C 10.59375 -6.175781 10.710938 -6.140625 10.890625 -6.140625 L 23.0625 -6.140625 C 23.613281 -6.140625 23.890625 -5.898438 23.890625 -5.421875 L 23.890625 -0.828125 C 23.890625 -0.578125 23.8125 -0.375 23.65625 -0.21875 C 23.507812 -0.0703125 23.285156 0 22.984375 0 L 2.953125 0 C 2.578125 0 2.316406 -0.0703125 2.171875 -0.21875 C 2.023438 -0.375 1.953125 -0.613281 1.953125 -0.9375 Z M 1.953125 -26.921875 "/></g></g></g><g fill="#004aad" fill-opacity="1"><g transform="translate(107.198641, 184.140469)"><g><path d="M 2.921875 0 C 2.617188 0 2.378906 -0.09375 2.203125 -0.28125 C 2.035156 -0.46875 1.953125 -0.722656 1.953125 -1.046875 L 1.953125 -26.921875 C 1.953125 -27.210938 2.015625 -27.425781 2.140625 -27.5625 C 2.265625 -27.707031 2.460938 -27.78125 2.734375 -27.78125 L 13.21875 -27.78125 C 13.539062 -27.78125 13.769531 -27.734375 13.90625 -27.640625 C 14.039062 -27.554688 14.160156 -27.378906 14.265625 -27.109375 L 18.15625 -15.203125 C 18.226562 -15.003906 18.316406 -14.90625 18.421875 -14.90625 C 18.492188 -14.90625 18.566406 -15.003906 18.640625 -15.203125 L 22.125 -26.6875 C 22.320312 -27.414062 22.660156 -27.78125 23.140625 -27.78125 L 33.953125 -27.78125 C 34.398438 -27.78125 34.625 -27.519531 34.625 -27 L 34.625 -1.078125 C 34.625 -0.679688 34.53125 -0.398438 34.34375 -0.234375 C 34.15625 -0.078125 33.851562 0 33.4375 0 L 27.109375 0 C 26.734375 0 26.472656 -0.0703125 26.328125 -0.21875 C 26.191406 -0.375 26.125 -0.613281 26.125 -0.9375 L 26.125 -17.75 C 26.125 -17.945312 26.078125 -18.046875 25.984375 -18.046875 C 25.859375 -18.046875 25.757812 -17.929688 25.6875 -17.703125 L 20.296875 -0.671875 C 20.117188 -0.222656 19.816406 0 19.390625 0 L 15.46875 0 C 15.007812 0 14.707031 -0.222656 14.5625 -0.671875 L 9.171875 -17.40625 C 9.097656 -17.65625 9.007812 -17.78125 8.90625 -17.78125 C 8.78125 -17.78125 8.71875 -17.644531 8.71875 -17.375 L 8.71875 -0.828125 C 8.71875 -0.503906 8.664062 -0.285156 8.5625 -0.171875 C 8.46875 -0.0546875 8.25 0 7.90625 0 Z M 2.921875 0 "/></g></g></g><path stroke-linecap="butt" transform="matrix(0.520804, 0, 0, 0.520804, 40.070329, 310.006198)" fill="none" stroke-linejoin="miter" d="M 11.985647 62.999171 C 11.490619 62.999171 11.078096 62.841662 10.755577 62.526644 C 10.440559 62.204126 10.283051 61.814104 10.283051 61.371578 L 10.283051 9.843657 C 10.283051 9.303626 10.44806 8.846101 10.793079 8.48608 C 11.138099 8.111059 11.588124 7.923548 12.128155 7.923548 L 34.25441 7.923548 C 41.979848 7.923548 47.822679 9.153618 51.797904 11.606257 C 55.78813 14.043895 57.783244 17.666601 57.783244 22.474373 C 57.783244 25.099522 57.063203 27.319648 55.623121 29.12725 C 54.19804 30.927352 51.677897 32.667451 48.070193 34.347546 C 47.972687 34.400049 47.920184 34.490054 47.920184 34.617562 C 47.920184 34.737568 47.972687 34.827574 48.070193 34.872576 C 52.07542 36.35016 54.925581 38.097759 56.605677 40.130374 C 58.285772 42.155489 59.12582 44.788138 59.12582 48.013321 C 59.12582 53.098609 57.175709 56.871323 53.290489 59.323962 C 49.405269 61.776601 43.464932 62.999171 35.454478 62.999171 Z M 35.454478 29.457269 C 37.179575 29.457269 38.567154 28.984742 39.602213 28.039689 C 40.644772 27.102136 41.162301 25.887067 41.162301 24.401982 C 41.162301 22.819393 40.562267 21.52932 39.3697 20.539263 C 38.184632 19.549207 36.707049 19.054179 34.929448 19.054179 L 28.839103 19.054179 C 28.201566 19.054179 27.751541 19.166686 27.496526 19.399199 C 27.256513 19.616711 27.136506 19.991732 27.136506 20.539263 L 27.136506 27.807176 C 27.136506 28.40721 27.234012 28.842234 27.429023 29.089748 C 27.631534 29.337262 27.954052 29.457269 28.389077 29.457269 Z M 35.071956 51.87604 C 37.104571 51.87604 38.694661 51.306008 39.857227 50.165943 C 41.027294 49.018378 41.612327 47.683302 41.612327 46.145715 C 41.612327 44.608128 41.042294 43.348057 39.894729 42.358 C 38.762165 41.367944 37.277081 40.872916 35.454478 40.872916 L 28.839103 40.872916 C 28.201566 40.872916 27.751541 41.000424 27.496526 41.255438 C 27.256513 41.495452 27.136506 41.885474 27.136506 42.433005 L 27.136506 50.225947 C 27.136506 50.825981 27.234012 51.253505 27.429023 51.508519 C 27.631534 51.748533 27.954052 51.87604 28.389077 51.87604 Z M 113.301391 60.629036 C 113.398897 60.816547 113.443899 61.094063 113.443899 61.439082 C 113.443899 61.889108 113.308892 62.264129 113.023875 62.564146 C 112.76136 62.856663 112.40884 62.999171 111.973816 62.999171 L 97.565499 62.999171 C 96.53044 62.999171 95.862902 62.481641 95.555385 61.439082 L 88.57999 42.282996 C 88.437481 41.885474 88.189967 41.592957 87.837447 41.397946 C 87.499928 41.202935 86.982399 41.105429 86.277359 41.105429 L 82.872166 41.105429 C 82.572149 41.105429 82.347136 41.202935 82.204628 41.397946 C 82.05462 41.592957 81.987116 41.765467 81.987116 41.922976 L 81.987116 60.846549 C 81.987116 61.641594 81.784604 62.204126 81.387082 62.526644 C 80.989559 62.841662 80.367024 62.999171 79.534477 62.999171 L 67.053769 62.999171 C 66.311227 62.999171 65.808699 62.856663 65.531183 62.564146 C 65.261167 62.264129 65.12616 61.791602 65.12616 61.154066 L 65.12616 9.626145 C 65.12616 8.493581 65.598687 7.923548 66.54374 7.923548 L 91.332646 7.923548 C 98.510553 7.923548 104.075868 9.296126 108.028592 12.041282 C 111.988817 14.778937 113.968929 18.656657 113.968929 23.65944 C 113.968929 27.072134 113.061377 30.117307 111.253775 32.787458 C 109.453673 35.457609 107.121041 37.340216 104.255878 38.427778 C 103.955861 38.585287 103.805853 38.832801 103.805853 39.17032 C 103.805853 39.312828 103.850855 39.537841 103.948361 39.837858 Z M 90.665108 30.034802 C 92.547714 30.034802 93.995297 29.554775 95.015354 28.602221 C 96.027912 27.634666 96.537941 26.329592 96.537941 24.686999 C 96.537941 22.864395 95.922906 21.446815 94.707837 20.426757 C 93.500268 19.4142 92.000183 18.904171 90.207582 18.904171 L 83.689712 18.904171 C 83.044676 18.904171 82.602151 19.024178 82.347136 19.24919 C 82.107123 19.466703 81.987116 19.849224 81.987116 20.396755 L 81.987116 28.474713 C 81.987116 29.022244 82.06962 29.419767 82.23463 29.674781 C 82.40714 29.914795 82.737158 30.034802 83.232186 30.034802 Z M 119.97677 9.626145 C 119.97677 8.493581 120.449296 7.923548 121.39435 7.923548 L 161.476622 7.923548 C 162.361673 7.923548 162.804198 8.448578 162.804198 9.483637 L 162.729193 18.094125 C 162.729193 19.436701 162.091657 20.104239 160.809085 20.104239 L 138.532822 20.104239 C 137.400257 20.104239 136.830225 20.569265 136.830225 21.499318 L 136.830225 27.807176 C 136.830225 28.302204 136.950232 28.684725 137.190245 28.962241 C 137.44526 29.247257 137.775279 29.382265 138.172801 29.382265 L 151.531059 29.382265 C 152.566117 29.382265 153.083647 29.869792 153.083647 30.852348 L 153.083647 40.05537 C 153.083647 40.902918 152.641121 41.322942 151.748571 41.322942 L 138.007792 41.322942 C 137.670273 41.322942 137.385257 41.427948 137.160244 41.630459 C 136.942731 41.82547 136.830225 42.065484 136.830225 42.358 L 136.830225 49.790922 C 136.830225 50.188444 136.890228 50.45846 137.010235 50.600968 C 137.130242 50.750976 137.370256 50.81848 137.722776 50.81848 L 161.844143 50.81848 C 162.924204 50.81848 163.471735 51.291007 163.471735 52.236061 L 163.471735 61.371578 C 163.471735 61.866607 163.321727 62.264129 163.02171 62.564146 C 162.729193 62.856663 162.286668 62.999171 161.694135 62.999171 L 121.986884 62.999171 C 121.236841 62.999171 120.711811 62.856663 120.411794 62.564146 C 120.119278 62.264129 119.97677 61.791602 119.97677 61.154066 Z M 218.397349 7.923548 C 218.847375 7.923548 219.207395 8.066056 219.46991 8.343572 C 219.747426 8.606087 219.889934 8.966107 219.889934 9.408632 C 219.889934 9.701149 219.859932 9.926162 219.81493 10.083671 L 202.578953 61.154066 C 202.241434 62.384136 201.326382 62.999171 199.841297 62.999171 L 187.810615 62.999171 C 186.325531 62.999171 185.410479 62.384136 185.07296 61.154066 L 167.836983 10.083671 C 167.739477 9.783654 167.694475 9.558641 167.694475 9.408632 C 167.694475 8.966107 167.836983 8.606087 168.1295 8.343572 C 168.429517 8.066056 168.804538 7.923548 169.254563 7.923548 L 183.587876 7.923548 C 184.53293 7.923548 185.147964 8.448578 185.432981 9.483637 L 195.386045 42.065484 C 195.48355 42.418004 195.611058 42.590514 195.768567 42.590514 C 195.866072 42.590514 195.986079 42.395503 196.128587 41.99798 L 205.406613 9.483637 C 205.504118 8.988609 205.736632 8.606087 206.111653 8.343572 C 206.486674 8.066056 206.899198 7.923548 207.349223 7.923548 Z M 225.515253 9.626145 C 225.515253 8.493581 225.98778 7.923548 226.932833 7.923548 L 267.015106 7.923548 C 267.900156 7.923548 268.342681 8.448578 268.342681 9.483637 L 268.267677 18.094125 C 268.267677 19.436701 267.630141 20.104239 266.347568 20.104239 L 244.071305 20.104239 C 242.938741 20.104239 242.368709 20.569265 242.368709 21.499318 L 242.368709 27.807176 C 242.368709 28.302204 242.488715 28.684725 242.736229 28.962241 C 242.983743 29.247257 243.313762 29.382265 243.711285 29.382265 L 257.069542 29.382265 C 258.104601 29.382265 258.62963 29.869792 258.62963 30.852348 L 258.62963 40.05537 C 258.62963 40.902918 258.179605 41.322942 257.287054 41.322942 L 243.546275 41.322942 C 243.208756 41.322942 242.92374 41.427948 242.698727 41.630459 C 242.481215 41.82547 242.368709 42.065484 242.368709 42.358 L 242.368709 49.790922 C 242.368709 50.188444 242.428712 50.45846 242.548719 50.600968 C 242.668726 50.750976 242.908739 50.81848 243.261259 50.81848 L 267.382627 50.81848 C 268.470188 50.81848 269.010219 51.291007 269.010219 52.236061 L 269.010219 61.371578 C 269.010219 61.866607 268.86021 62.264129 268.560193 62.564146 C 268.267677 62.856663 267.825152 62.999171 267.232618 62.999171 L 227.525367 62.999171 C 226.775324 62.999171 226.250295 62.856663 225.950278 62.564146 C 225.657761 62.264129 225.515253 61.791602 225.515253 61.154066 Z M 225.515253 9.626145 " stroke="#004aad" stroke-width="2.783884" stroke-opacity="1" stroke-miterlimit="4"/><g fill="#004aad" fill-opacity="1"><g transform="translate(82.086713, 310.180558)"><g><path d="M 1.953125 -26.921875 C 1.953125 -27.492188 2.1875 -27.78125 2.65625 -27.78125 L 22.875 -27.78125 C 23.320312 -27.78125 23.546875 -27.519531 23.546875 -27 L 23.515625 -22.65625 C 23.515625 -21.976562 23.1875 -21.640625 22.53125 -21.640625 L 11.3125 -21.640625 C 10.726562 -21.640625 10.4375 -21.398438 10.4375 -20.921875 L 10.4375 -17.75 C 10.4375 -17.5 10.5 -17.300781 10.625 -17.15625 C 10.75 -17.019531 10.914062 -16.953125 11.125 -16.953125 L 17.859375 -16.953125 C 18.378906 -16.953125 18.640625 -16.703125 18.640625 -16.203125 L 18.640625 -11.5625 C 18.640625 -11.144531 18.414062 -10.9375 17.96875 -10.9375 L 11.046875 -10.9375 C 10.867188 -10.9375 10.722656 -10.882812 10.609375 -10.78125 C 10.492188 -10.675781 10.4375 -10.550781 10.4375 -10.40625 L 10.4375 -6.65625 C 10.4375 -6.457031 10.46875 -6.320312 10.53125 -6.25 C 10.59375 -6.175781 10.710938 -6.140625 10.890625 -6.140625 L 23.0625 -6.140625 C 23.613281 -6.140625 23.890625 -5.898438 23.890625 -5.421875 L 23.890625 -0.828125 C 23.890625 -0.578125 23.8125 -0.375 23.65625 -0.21875 C 23.507812 -0.0703125 23.285156 0 22.984375 0 L 2.953125 0 C 2.578125 0 2.316406 -0.0703125 2.171875 -0.21875 C 2.023438 -0.375 1.953125 -0.613281 1.953125 -0.9375 Z M 1.953125 -26.921875 "/></g></g></g><g fill="#004aad" fill-opacity="1"><g transform="translate(107.198641, 310.180558)"><g><path d="M 2.921875 0 C 2.617188 0 2.378906 -0.09375 2.203125 -0.28125 C 2.035156 -0.46875 1.953125 -0.722656 1.953125 -1.046875 L 1.953125 -26.921875 C 1.953125 -27.210938 2.015625 -27.425781 2.140625 -27.5625 C 2.265625 -27.707031 2.460938 -27.78125 2.734375 -27.78125 L 13.21875 -27.78125 C 13.539062 -27.78125 13.769531 -27.734375 13.90625 -27.640625 C 14.039062 -27.554688 14.160156 -27.378906 14.265625 -27.109375 L 18.15625 -15.203125 C 18.226562 -15.003906 18.316406 -14.90625 18.421875 -14.90625 C 18.492188 -14.90625 18.566406 -15.003906 18.640625 -15.203125 L 22.125 -26.6875 C 22.320312 -27.414062 22.660156 -27.78125 23.140625 -27.78125 L 33.953125 -27.78125 C 34.398438 -27.78125 34.625 -27.519531 34.625 -27 L 34.625 -1.078125 C 34.625 -0.679688 34.53125 -0.398438 34.34375 -0.234375 C 34.15625 -0.078125 33.851562 0 33.4375 0 L 27.109375 0 C 26.734375 0 26.472656 -0.0703125 26.328125 -0.21875 C 26.191406 -0.375 26.125 -0.613281 26.125 -0.9375 L 26.125 -17.75 C 26.125 -17.945312 26.078125 -18.046875 25.984375 -18.046875 C 25.859375 -18.046875 25.757812 -17.929688 25.6875 -17.703125 L 20.296875 -0.671875 C 20.117188 -0.222656 19.816406 0 19.390625 0 L 15.46875 0 C 15.007812 0 14.707031 -0.222656 14.5625 -0.671875 L 9.171875 -17.40625 C 9.097656 -17.65625 9.007812 -17.78125 8.90625 -17.78125 C 8.78125 -17.78125 8.71875 -17.644531 8.71875 -17.375 L 8.71875 -0.828125 C 8.71875 -0.503906 8.664062 -0.285156 8.5625 -0.171875 C 8.46875 -0.0546875 8.25 0 7.90625 0 Z M 2.921875 0 "/></g></g></g></svg>