<svg xmlns="http://www.w3.org/2000/svg" xmlns:xlink="http://www.w3.org/1999/xlink" width="500" zoomAndPan="magnify" viewBox="0 0 375 299.999988" height="400" preserveAspectRatio="xMidYMid meet" version="1.0"><defs><clipPath id="b19283f1a1"><path d="M 37.5 0 L 337.5 0 L 337.5 300 L 37.5 300 Z M 37.5 0 " clip-rule="nonzero"/></clipPath><clipPath id="9c3caabf42"><path d="M 40.882812 3.382812 L 334.132812 3.382812 L 334.132812 296.632812 L 40.882812 296.632812 Z M 40.882812 3.382812 " clip-rule="nonzero"/></clipPath></defs><g clip-path="url(#b19283f1a1)"><path fill="#155ec4" d="M 337.5 254.386719 C 337.5 279.5625 317.089844 299.972656 291.914062 299.972656 L 83.097656 299.972656 C 57.917969 299.972656 37.511719 279.5625 37.511719 254.386719 L 37.511719 45.566406 C 37.511719 20.390625 57.917969 -0.0195312 83.097656 -0.0195312 L 291.914062 -0.0195312 C 317.089844 -0.0195312 337.5 20.390625 337.5 45.566406 Z M 337.5 254.386719 " fill-opacity="1" fill-rule="nonzero"/></g><path fill="#ffffff" d="M 156.132812 107.007812 C 156.132812 107.742188 156.097656 108.476562 156.023438 109.207031 C 155.953125 109.9375 155.847656 110.660156 155.703125 111.382812 C 155.558594 112.101562 155.382812 112.8125 155.167969 113.515625 C 154.957031 114.21875 154.707031 114.90625 154.425781 115.585938 C 154.148438 116.261719 153.832031 116.925781 153.488281 117.574219 C 153.140625 118.222656 152.765625 118.851562 152.355469 119.460938 C 151.949219 120.070312 151.511719 120.660156 151.046875 121.226562 C 150.582031 121.792969 150.089844 122.335938 149.570312 122.855469 C 149.050781 123.375 148.507812 123.867188 147.941406 124.332031 C 147.371094 124.796875 146.785156 125.234375 146.171875 125.644531 C 145.5625 126.050781 144.933594 126.425781 144.289062 126.773438 C 143.640625 127.121094 142.976562 127.433594 142.300781 127.714844 C 141.621094 127.996094 140.929688 128.242188 140.226562 128.453125 C 139.527344 128.667969 138.816406 128.847656 138.09375 128.988281 C 137.375 129.132812 136.648438 129.238281 135.917969 129.3125 C 135.1875 129.382812 134.457031 129.417969 133.722656 129.417969 C 132.988281 129.417969 132.257812 129.382812 131.527344 129.3125 C 130.796875 129.238281 130.070312 129.132812 129.351562 128.988281 C 128.632812 128.847656 127.921875 128.667969 127.21875 128.453125 C 126.515625 128.242188 125.824219 127.996094 125.148438 127.714844 C 124.46875 127.433594 123.804688 127.121094 123.160156 126.773438 C 122.511719 126.425781 121.882812 126.050781 121.273438 125.644531 C 120.664062 125.234375 120.074219 124.796875 119.507812 124.332031 C 118.9375 123.867188 118.394531 123.375 117.875 122.855469 C 117.359375 122.335938 116.867188 121.792969 116.398438 121.226562 C 115.933594 120.660156 115.496094 120.070312 115.089844 119.460938 C 114.683594 118.851562 114.304688 118.222656 113.960938 117.574219 C 113.613281 116.925781 113.300781 116.261719 113.019531 115.585938 C 112.738281 114.90625 112.492188 114.21875 112.277344 113.515625 C 112.066406 112.8125 111.886719 112.101562 111.742188 111.382812 C 111.601562 110.660156 111.492188 109.9375 111.421875 109.207031 C 111.347656 108.476562 111.3125 107.742188 111.3125 107.007812 C 111.3125 106.277344 111.347656 105.542969 111.421875 104.8125 C 111.492188 104.082031 111.601562 103.355469 111.742188 102.636719 C 111.886719 101.917969 112.066406 101.207031 112.277344 100.503906 C 112.492188 99.800781 112.738281 99.113281 113.019531 98.433594 C 113.300781 97.753906 113.613281 97.09375 113.960938 96.445312 C 114.304688 95.796875 114.683594 95.167969 115.089844 94.558594 C 115.496094 93.949219 115.933594 93.359375 116.398438 92.792969 C 116.867188 92.226562 117.359375 91.683594 117.875 91.164062 C 118.394531 90.644531 118.9375 90.152344 119.507812 89.6875 C 120.074219 89.21875 120.664062 88.785156 121.273438 88.375 C 121.882812 87.96875 122.511719 87.589844 123.160156 87.246094 C 123.804688 86.898438 124.46875 86.585938 125.148438 86.304688 C 125.824219 86.023438 126.515625 85.777344 127.21875 85.5625 C 127.921875 85.351562 128.632812 85.171875 129.351562 85.03125 C 130.070312 84.886719 130.796875 84.777344 131.527344 84.707031 C 132.257812 84.636719 132.988281 84.597656 133.722656 84.597656 C 134.457031 84.597656 135.1875 84.636719 135.917969 84.707031 C 136.648438 84.777344 137.375 84.886719 138.09375 85.03125 C 138.816406 85.171875 139.527344 85.351562 140.226562 85.5625 C 140.929688 85.777344 141.621094 86.023438 142.300781 86.304688 C 142.976562 86.585938 143.640625 86.898438 144.289062 87.246094 C 144.933594 87.589844 145.5625 87.96875 146.171875 88.375 C 146.785156 88.785156 147.371094 89.21875 147.941406 89.6875 C 148.507812 90.152344 149.050781 90.644531 149.570312 91.164062 C 150.089844 91.683594 150.582031 92.226562 151.046875 92.792969 C 151.511719 93.359375 151.949219 93.949219 152.355469 94.558594 C 152.765625 95.167969 153.140625 95.796875 153.488281 96.445312 C 153.832031 97.09375 154.148438 97.753906 154.425781 98.433594 C 154.707031 99.113281 154.957031 99.800781 155.167969 100.503906 C 155.382812 101.207031 155.558594 101.917969 155.703125 102.636719 C 155.847656 103.355469 155.953125 104.082031 156.023438 104.8125 C 156.097656 105.542969 156.132812 106.277344 156.132812 107.007812 Z M 156.132812 107.007812 " fill-opacity="1" fill-rule="nonzero"/><path fill="#ffffff" d="M 114.402344 145.941406 L 152.902344 145.941406 L 152.902344 269.792969 L 114.402344 269.792969 Z M 114.402344 145.941406 " fill-opacity="1" fill-rule="nonzero"/><path fill="#ffffff" d="M 177.117188 145.941406 L 213.761719 145.941406 L 213.761719 269.792969 L 177.117188 269.792969 Z M 177.117188 145.941406 " fill-opacity="1" fill-rule="nonzero"/><path fill="#ffffff" d="M 178.703125 211.882812 L 215.34375 211.882812 L 215.34375 269.792969 L 178.703125 269.792969 Z M 178.703125 211.882812 " fill-opacity="1" fill-rule="nonzero"/><path fill="#ffffff" d="M 215.34375 211.882812 C 215.34375 211.882812 214.773438 195.820312 219.007812 187.46875 C 219.007812 187.46875 223.246094 177.179688 236.5625 177.121094 C 236.5625 177.121094 252.179688 174.394531 256.660156 189.890625 C 256.660156 189.890625 258.355469 198.484375 258.355469 202.117188 C 258.355469 205.75 258.476562 269.796875 258.476562 269.796875 L 296.855469 269.796875 L 296.855469 198.851562 C 296.855469 198.851562 299.640625 158.773438 275.585938 147.796875 C 275.585938 147.796875 236.035156 130.042969 214.570312 162.648438 C 214.570312 162.648438 209.886719 165.875 209.242188 156.835938 C 208.59375 147.796875 203.109375 170.71875 202.945312 171.207031 C 202.785156 171.6875 209.242188 216.886719 209.242188 216.886719 Z M 215.34375 211.882812 " fill-opacity="1" fill-rule="nonzero"/><g clip-path="url(#9c3caabf42)"><path fill="#ffffff" d="M 334.109375 252.023438 C 334.109375 276.628906 314.160156 296.578125 289.550781 296.578125 L 85.449219 296.578125 C 60.839844 296.578125 40.894531 276.628906 40.894531 252.023438 L 40.894531 47.921875 C 40.894531 23.3125 60.839844 3.363281 85.449219 3.363281 L 289.550781 3.363281 C 314.160156 3.363281 334.109375 23.3125 334.109375 47.921875 Z M 334.109375 252.023438 " fill-opacity="1" fill-rule="nonzero"/></g><path fill="#155ec4" d="M 156.835938 107.976562 C 156.835938 108.691406 156.800781 109.40625 156.730469 110.121094 C 156.660156 110.835938 156.554688 111.542969 156.414062 112.25 C 156.277344 112.953125 156.101562 113.648438 155.894531 114.332031 C 155.683594 115.019531 155.445312 115.695312 155.167969 116.355469 C 154.894531 117.019531 154.589844 117.667969 154.25 118.300781 C 153.910156 118.933594 153.542969 119.546875 153.144531 120.144531 C 152.746094 120.742188 152.320312 121.316406 151.863281 121.871094 C 151.410156 122.425781 150.929688 122.957031 150.421875 123.464844 C 149.914062 123.972656 149.382812 124.453125 148.828125 124.90625 C 148.273438 125.363281 147.699219 125.789062 147.101562 126.1875 C 146.503906 126.585938 145.890625 126.953125 145.257812 127.292969 C 144.625 127.632812 143.976562 127.9375 143.316406 128.210938 C 142.652344 128.488281 141.976562 128.726562 141.289062 128.9375 C 140.605469 129.144531 139.910156 129.320312 139.207031 129.457031 C 138.5 129.597656 137.792969 129.703125 137.078125 129.773438 C 136.367188 129.84375 135.648438 129.878906 134.933594 129.878906 C 134.214844 129.878906 133.5 129.84375 132.785156 129.773438 C 132.070312 129.703125 131.363281 129.597656 130.660156 129.457031 C 129.957031 129.316406 129.261719 129.144531 128.574219 128.9375 C 127.886719 128.726562 127.210938 128.488281 126.550781 128.210938 C 125.886719 127.9375 125.238281 127.632812 124.605469 127.292969 C 123.972656 126.953125 123.359375 126.585938 122.761719 126.1875 C 122.167969 125.789062 121.589844 125.363281 121.035156 124.90625 C 120.480469 124.453125 119.949219 123.972656 119.445312 123.464844 C 118.9375 122.957031 118.457031 122.425781 118 121.871094 C 117.546875 121.316406 117.117188 120.742188 116.71875 120.144531 C 116.320312 119.546875 115.953125 118.933594 115.613281 118.300781 C 115.277344 117.667969 114.96875 117.019531 114.695312 116.355469 C 114.421875 115.695312 114.179688 115.019531 113.972656 114.332031 C 113.761719 113.648438 113.589844 112.953125 113.449219 112.25 C 113.308594 111.542969 113.203125 110.835938 113.132812 110.121094 C 113.0625 109.40625 113.027344 108.691406 113.027344 107.976562 C 113.027344 107.257812 113.0625 106.542969 113.132812 105.828125 C 113.203125 105.113281 113.308594 104.40625 113.449219 103.703125 C 113.589844 103 113.761719 102.304688 113.972656 101.617188 C 114.179688 100.929688 114.421875 100.253906 114.695312 99.59375 C 114.96875 98.929688 115.277344 98.28125 115.613281 97.648438 C 115.953125 97.015625 116.320312 96.402344 116.71875 95.804688 C 117.117188 95.210938 117.546875 94.632812 118 94.078125 C 118.457031 93.523438 118.9375 92.992188 119.445312 92.488281 C 119.949219 91.980469 120.480469 91.5 121.035156 91.042969 C 121.589844 90.585938 122.167969 90.160156 122.761719 89.761719 C 123.359375 89.363281 123.972656 88.996094 124.605469 88.65625 C 125.238281 88.320312 125.886719 88.011719 126.550781 87.738281 C 127.210938 87.464844 127.886719 87.222656 128.574219 87.015625 C 129.261719 86.804688 129.957031 86.632812 130.660156 86.492188 C 131.363281 86.351562 132.070312 86.246094 132.785156 86.175781 C 133.5 86.105469 134.214844 86.070312 134.933594 86.070312 C 135.648438 86.070312 136.367188 86.105469 137.078125 86.175781 C 137.792969 86.246094 138.5 86.351562 139.207031 86.492188 C 139.910156 86.632812 140.605469 86.804688 141.289062 87.015625 C 141.976562 87.222656 142.652344 87.464844 143.316406 87.738281 C 143.976562 88.011719 144.625 88.320312 145.257812 88.65625 C 145.890625 88.996094 146.503906 89.363281 147.101562 89.761719 C 147.699219 90.160156 148.273438 90.585938 148.828125 91.042969 C 149.382812 91.496094 149.914062 91.980469 150.421875 92.488281 C 150.929688 92.992188 151.410156 93.523438 151.863281 94.078125 C 152.320312 94.632812 152.746094 95.210938 153.144531 95.804688 C 153.542969 96.402344 153.910156 97.015625 154.25 97.648438 C 154.589844 98.28125 154.894531 98.929688 155.167969 99.59375 C 155.445312 100.253906 155.683594 100.929688 155.894531 101.617188 C 156.101562 102.304688 156.277344 103 156.414062 103.703125 C 156.554688 104.40625 156.660156 105.113281 156.730469 105.828125 C 156.800781 106.542969 156.835938 107.257812 156.835938 107.976562 Z M 156.835938 107.976562 " fill-opacity="1" fill-rule="nonzero"/><path fill="#155ec4" d="M 116.050781 146.027344 L 153.679688 146.027344 L 153.679688 267.085938 L 116.050781 267.085938 Z M 116.050781 146.027344 " fill-opacity="1" fill-rule="nonzero"/><path fill="#155ec4" d="M 177.347656 146.027344 L 213.164062 146.027344 L 213.164062 267.085938 L 177.347656 267.085938 Z M 177.347656 146.027344 " fill-opacity="1" fill-rule="nonzero"/><path fill="#155ec4" d="M 178.894531 210.480469 L 214.710938 210.480469 L 214.710938 267.085938 L 178.894531 267.085938 Z M 178.894531 210.480469 " fill-opacity="1" fill-rule="nonzero"/><path fill="#155ec4" d="M 214.710938 210.480469 C 214.710938 210.480469 214.152344 194.78125 218.292969 186.617188 C 218.292969 186.617188 222.433594 176.5625 235.449219 176.503906 C 235.449219 176.503906 250.714844 173.835938 255.09375 188.984375 C 255.09375 188.984375 256.75 197.386719 256.75 200.9375 C 256.75 204.488281 256.867188 267.085938 256.867188 267.085938 L 294.378906 267.085938 L 294.378906 197.742188 C 294.378906 197.742188 297.101562 158.570312 273.59375 147.839844 C 273.59375 147.839844 234.9375 130.488281 213.953125 162.359375 C 213.953125 162.359375 209.378906 165.511719 208.746094 156.675781 C 208.113281 147.839844 202.75 170.246094 202.59375 170.722656 C 202.433594 171.195312 208.746094 215.371094 208.746094 215.371094 Z M 214.710938 210.480469 " fill-opacity="1" fill-rule="nonzero"/></svg>