<svg xmlns="http://www.w3.org/2000/svg" xmlns:xlink="http://www.w3.org/1999/xlink" width="1920" zoomAndPan="magnify" viewBox="0 0 1440 112.499997" height="150" preserveAspectRatio="xMidYMid meet" version="1.0"><defs><clipPath id="72d728d746"><path d="M 3.1875 0 L 1436.8125 0 L 1436.8125 112 L 3.1875 112 Z M 3.1875 0 " clip-rule="nonzero"/></clipPath></defs><path fill="#006494" d="M 26.335938 93.964844 C 60.464844 81.796875 96.074219 74.675781 131.984375 72.003906 C 139.402344 71.410156 139.402344 59.542969 131.984375 60.429688 C 94.292969 63.398438 58.386719 72.597656 23.367188 87.4375 C 19.804688 88.921875 22.476562 95.449219 26.335938 93.964844 Z M 26.335938 93.964844 " fill-opacity="1" fill-rule="nonzero"/><g clip-path="url(#72d728d746)"><path fill="#006494" d="M 1435.957031 3.75 C 1412.511719 39.359375 1371.261719 58.058594 1331.199219 69.039062 C 1283.71875 82.09375 1234.453125 85.65625 1185.488281 85.359375 C 1083.996094 84.46875 981.910156 69.335938 881.011719 58.652344 C 674.761719 36.988281 467.324219 14.136719 259.589844 17.105469 C 213.59375 17.996094 167 19.179688 121.300781 24.820312 C 17.433594 39.65625 -20.554688 71.410156 -22.925781 73.488281 C -25.300781 75.566406 -27.675781 77.644531 -29.753906 79.722656 C -32.421875 82.09375 -29.753906 86.84375 -26.191406 85.65625 C 15.652344 71.113281 56.902344 57.464844 100.824219 50.339844 C 148.601562 42.625 196.972656 41.140625 245.347656 40.25 C 351.585938 38.175781 458.125 43.21875 564.070312 51.527344 C 669.121094 59.835938 773.878906 71.707031 878.339844 83.578125 C 981.019531 95.152344 1084.886719 111.472656 1188.457031 111.179688 C 1278.671875 111.179688 1402.421875 99.605469 1456.433594 15.621094 C 1464.742188 2.859375 1444.265625 -8.714844 1435.957031 3.75 Z M 1435.957031 3.75 " fill-opacity="1" fill-rule="nonzero"/></g></svg>