<svg xmlns="http://www.w3.org/2000/svg" xmlns:xlink="http://www.w3.org/1999/xlink" width="500" zoomAndPan="magnify" viewBox="0 0 375 299.999988" height="400" preserveAspectRatio="xMidYMid meet" version="1.0"><defs><clipPath id="3a1473b99a"><path d="M 37.5 0 L 337.5 0 L 337.5 300 L 37.5 300 Z M 37.5 0 " clip-rule="nonzero"/></clipPath><clipPath id="9b35fb2fc3"><path d="M 40.882812 3.382812 L 334.132812 3.382812 L 334.132812 296.632812 L 40.882812 296.632812 Z M 40.882812 3.382812 " clip-rule="nonzero"/></clipPath><clipPath id="3f78249cf5"><path d="M 90 74 L 285.261719 74 L 285.261719 270 L 90 270 Z M 90 74 " clip-rule="nonzero"/></clipPath></defs><g clip-path="url(#3a1473b99a)"><path fill="#155ec4" d="M 337.5 254.386719 C 337.5 279.5625 317.089844 299.972656 291.914062 299.972656 L 83.097656 299.972656 C 57.917969 299.972656 37.511719 279.5625 37.511719 254.386719 L 37.511719 45.566406 C 37.511719 20.390625 57.917969 -0.0195312 83.097656 -0.0195312 L 291.914062 -0.0195312 C 317.089844 -0.0195312 337.5 20.390625 337.5 45.566406 Z M 337.5 254.386719 " fill-opacity="1" fill-rule="nonzero"/></g><path fill="#ffffff" d="M 156.132812 107.007812 C 156.132812 107.742188 156.097656 108.476562 156.023438 109.207031 C 155.953125 109.9375 155.847656 110.660156 155.703125 111.382812 C 155.558594 112.101562 155.382812 112.8125 155.167969 113.515625 C 154.957031 114.21875 154.707031 114.90625 154.425781 115.585938 C 154.148438 116.261719 153.832031 116.925781 153.488281 117.574219 C 153.140625 118.222656 152.765625 118.851562 152.355469 119.460938 C 151.949219 120.070312 151.511719 120.660156 151.046875 121.226562 C 150.582031 121.792969 150.089844 122.335938 149.570312 122.855469 C 149.050781 123.375 148.507812 123.867188 147.941406 124.332031 C 147.371094 124.796875 146.785156 125.234375 146.171875 125.644531 C 145.5625 126.050781 144.933594 126.425781 144.289062 126.773438 C 143.640625 127.121094 142.976562 127.433594 142.300781 127.714844 C 141.621094 127.996094 140.929688 128.242188 140.226562 128.453125 C 139.527344 128.667969 138.816406 128.847656 138.09375 128.988281 C 137.375 129.132812 136.648438 129.238281 135.917969 129.3125 C 135.1875 129.382812 134.457031 129.417969 133.722656 129.417969 C 132.988281 129.417969 132.257812 129.382812 131.527344 129.3125 C 130.796875 129.238281 130.070312 129.132812 129.351562 128.988281 C 128.632812 128.847656 127.921875 128.667969 127.21875 128.453125 C 126.515625 128.242188 125.824219 127.996094 125.148438 127.714844 C 124.46875 127.433594 123.804688 127.121094 123.160156 126.773438 C 122.511719 126.425781 121.882812 126.050781 121.273438 125.644531 C 120.664062 125.234375 120.074219 124.796875 119.507812 124.332031 C 118.9375 123.867188 118.394531 123.375 117.875 122.855469 C 117.359375 122.335938 116.867188 121.792969 116.398438 121.226562 C 115.933594 120.660156 115.496094 120.070312 115.089844 119.460938 C 114.683594 118.851562 114.304688 118.222656 113.960938 117.574219 C 113.613281 116.925781 113.300781 116.261719 113.019531 115.585938 C 112.738281 114.90625 112.492188 114.21875 112.277344 113.515625 C 112.066406 112.8125 111.886719 112.101562 111.742188 111.382812 C 111.601562 110.660156 111.492188 109.9375 111.421875 109.207031 C 111.347656 108.476562 111.3125 107.742188 111.3125 107.007812 C 111.3125 106.277344 111.347656 105.542969 111.421875 104.8125 C 111.492188 104.082031 111.601562 103.355469 111.742188 102.636719 C 111.886719 101.917969 112.066406 101.207031 112.277344 100.503906 C 112.492188 99.800781 112.738281 99.113281 113.019531 98.433594 C 113.300781 97.753906 113.613281 97.09375 113.960938 96.445312 C 114.304688 95.796875 114.683594 95.167969 115.089844 94.558594 C 115.496094 93.949219 115.933594 93.359375 116.398438 92.792969 C 116.867188 92.226562 117.359375 91.683594 117.875 91.164062 C 118.394531 90.644531 118.9375 90.152344 119.507812 89.6875 C 120.074219 89.21875 120.664062 88.785156 121.273438 88.375 C 121.882812 87.96875 122.511719 87.589844 123.160156 87.246094 C 123.804688 86.898438 124.46875 86.585938 125.148438 86.304688 C 125.824219 86.023438 126.515625 85.777344 127.21875 85.5625 C 127.921875 85.351562 128.632812 85.171875 129.351562 85.03125 C 130.070312 84.886719 130.796875 84.777344 131.527344 84.707031 C 132.257812 84.636719 132.988281 84.597656 133.722656 84.597656 C 134.457031 84.597656 135.1875 84.636719 135.917969 84.707031 C 136.648438 84.777344 137.375 84.886719 138.09375 85.03125 C 138.816406 85.171875 139.527344 85.351562 140.226562 85.5625 C 140.929688 85.777344 141.621094 86.023438 142.300781 86.304688 C 142.976562 86.585938 143.640625 86.898438 144.289062 87.246094 C 144.933594 87.589844 145.5625 87.96875 146.171875 88.375 C 146.785156 88.785156 147.371094 89.21875 147.941406 89.6875 C 148.507812 90.152344 149.050781 90.644531 149.570312 91.164062 C 150.089844 91.683594 150.582031 92.226562 151.046875 92.792969 C 151.511719 93.359375 151.949219 93.949219 152.355469 94.558594 C 152.765625 95.167969 153.140625 95.796875 153.488281 96.445312 C 153.832031 97.09375 154.148438 97.753906 154.425781 98.433594 C 154.707031 99.113281 154.957031 99.800781 155.167969 100.503906 C 155.382812 101.207031 155.558594 101.917969 155.703125 102.636719 C 155.847656 103.355469 155.953125 104.082031 156.023438 104.8125 C 156.097656 105.542969 156.132812 106.277344 156.132812 107.007812 Z M 156.132812 107.007812 " fill-opacity="1" fill-rule="nonzero"/><path fill="#ffffff" d="M 114.402344 145.941406 L 152.902344 145.941406 L 152.902344 269.792969 L 114.402344 269.792969 Z M 114.402344 145.941406 " fill-opacity="1" fill-rule="nonzero"/><path fill="#ffffff" d="M 177.117188 145.941406 L 213.761719 145.941406 L 213.761719 269.792969 L 177.117188 269.792969 Z M 177.117188 145.941406 " fill-opacity="1" fill-rule="nonzero"/><path fill="#ffffff" d="M 178.703125 211.882812 L 215.34375 211.882812 L 215.34375 269.792969 L 178.703125 269.792969 Z M 178.703125 211.882812 " fill-opacity="1" fill-rule="nonzero"/><path fill="#ffffff" d="M 215.34375 211.882812 C 215.34375 211.882812 214.773438 195.820312 219.007812 187.46875 C 219.007812 187.46875 223.246094 177.179688 236.5625 177.121094 C 236.5625 177.121094 252.179688 174.394531 256.660156 189.890625 C 256.660156 189.890625 258.355469 198.484375 258.355469 202.117188 C 258.355469 205.75 258.476562 269.796875 258.476562 269.796875 L 296.855469 269.796875 L 296.855469 198.851562 C 296.855469 198.851562 299.640625 158.773438 275.585938 147.796875 C 275.585938 147.796875 236.035156 130.042969 214.570312 162.648438 C 214.570312 162.648438 209.886719 165.875 209.242188 156.835938 C 208.59375 147.796875 203.109375 170.71875 202.945312 171.207031 C 202.785156 171.6875 209.242188 216.886719 209.242188 216.886719 Z M 215.34375 211.882812 " fill-opacity="1" fill-rule="nonzero"/><g clip-path="url(#9b35fb2fc3)"><path fill="#ffffff" d="M 334.109375 252.023438 C 334.109375 276.628906 314.160156 296.578125 289.550781 296.578125 L 85.449219 296.578125 C 60.839844 296.578125 40.894531 276.628906 40.894531 252.023438 L 40.894531 47.921875 C 40.894531 23.3125 60.839844 3.363281 85.449219 3.363281 L 289.550781 3.363281 C 314.160156 3.363281 334.109375 23.3125 334.109375 47.921875 Z M 334.109375 252.023438 " fill-opacity="1" fill-rule="nonzero"/></g><path fill="#ffffff" d="M 156.835938 107.976562 C 156.835938 108.691406 156.800781 109.40625 156.730469 110.121094 C 156.660156 110.835938 156.554688 111.542969 156.414062 112.25 C 156.277344 112.953125 156.101562 113.648438 155.894531 114.332031 C 155.683594 115.019531 155.445312 115.695312 155.167969 116.355469 C 154.894531 117.019531 154.589844 117.667969 154.25 118.300781 C 153.910156 118.933594 153.542969 119.546875 153.144531 120.144531 C 152.746094 120.742188 152.320312 121.316406 151.863281 121.871094 C 151.410156 122.425781 150.929688 122.957031 150.421875 123.464844 C 149.914062 123.972656 149.382812 124.453125 148.828125 124.90625 C 148.273438 125.363281 147.699219 125.789062 147.101562 126.1875 C 146.503906 126.585938 145.890625 126.953125 145.257812 127.292969 C 144.625 127.632812 143.976562 127.9375 143.316406 128.210938 C 142.652344 128.488281 141.976562 128.726562 141.289062 128.9375 C 140.605469 129.144531 139.910156 129.320312 139.207031 129.457031 C 138.5 129.597656 137.792969 129.703125 137.078125 129.773438 C 136.367188 129.84375 135.648438 129.878906 134.933594 129.878906 C 134.214844 129.878906 133.5 129.84375 132.785156 129.773438 C 132.070312 129.703125 131.363281 129.597656 130.660156 129.457031 C 129.957031 129.316406 129.261719 129.144531 128.574219 128.9375 C 127.886719 128.726562 127.210938 128.488281 126.550781 128.210938 C 125.886719 127.9375 125.238281 127.632812 124.605469 127.292969 C 123.972656 126.953125 123.359375 126.585938 122.761719 126.1875 C 122.167969 125.789062 121.589844 125.363281 121.035156 124.90625 C 120.480469 124.453125 119.949219 123.972656 119.445312 123.464844 C 118.9375 122.957031 118.457031 122.425781 118 121.871094 C 117.546875 121.316406 117.117188 120.742188 116.71875 120.144531 C 116.320312 119.546875 115.953125 118.933594 115.613281 118.300781 C 115.277344 117.667969 114.96875 117.019531 114.695312 116.355469 C 114.421875 115.695312 114.179688 115.019531 113.972656 114.332031 C 113.761719 113.648438 113.589844 112.953125 113.449219 112.25 C 113.308594 111.542969 113.203125 110.835938 113.132812 110.121094 C 113.0625 109.40625 113.027344 108.691406 113.027344 107.976562 C 113.027344 107.257812 113.0625 106.542969 113.132812 105.828125 C 113.203125 105.113281 113.308594 104.40625 113.449219 103.703125 C 113.589844 103 113.761719 102.304688 113.972656 101.617188 C 114.179688 100.929688 114.421875 100.253906 114.695312 99.59375 C 114.96875 98.929688 115.277344 98.28125 115.613281 97.648438 C 115.953125 97.015625 116.320312 96.402344 116.71875 95.804688 C 117.117188 95.210938 117.546875 94.632812 118 94.078125 C 118.457031 93.523438 118.9375 92.992188 119.445312 92.488281 C 119.949219 91.980469 120.480469 91.5 121.035156 91.042969 C 121.589844 90.585938 122.167969 90.160156 122.761719 89.761719 C 123.359375 89.363281 123.972656 88.996094 124.605469 88.65625 C 125.238281 88.320312 125.886719 88.011719 126.550781 87.738281 C 127.210938 87.464844 127.886719 87.222656 128.574219 87.015625 C 129.261719 86.804688 129.957031 86.632812 130.660156 86.492188 C 131.363281 86.351562 132.070312 86.246094 132.785156 86.175781 C 133.5 86.105469 134.214844 86.070312 134.933594 86.070312 C 135.648438 86.070312 136.367188 86.105469 137.078125 86.175781 C 137.792969 86.246094 138.5 86.351562 139.207031 86.492188 C 139.910156 86.632812 140.605469 86.804688 141.289062 87.015625 C 141.976562 87.222656 142.652344 87.464844 143.316406 87.738281 C 143.976562 88.011719 144.625 88.320312 145.257812 88.65625 C 145.890625 88.996094 146.503906 89.363281 147.101562 89.761719 C 147.699219 90.160156 148.273438 90.585938 148.828125 91.042969 C 149.382812 91.496094 149.914062 91.980469 150.421875 92.488281 C 150.929688 92.992188 151.410156 93.523438 151.863281 94.078125 C 152.320312 94.632812 152.746094 95.210938 153.144531 95.804688 C 153.542969 96.402344 153.910156 97.015625 154.25 97.648438 C 154.589844 98.28125 154.894531 98.929688 155.167969 99.59375 C 155.445312 100.253906 155.683594 100.929688 155.894531 101.617188 C 156.101562 102.304688 156.277344 103 156.414062 103.703125 C 156.554688 104.40625 156.660156 105.113281 156.730469 105.828125 C 156.800781 106.542969 156.835938 107.257812 156.835938 107.976562 Z M 156.835938 107.976562 " fill-opacity="1" fill-rule="nonzero"/><path fill="#ffffff" d="M 116.050781 146.027344 L 153.679688 146.027344 L 153.679688 267.085938 L 116.050781 267.085938 Z M 116.050781 146.027344 " fill-opacity="1" fill-rule="nonzero"/><path fill="#ffffff" d="M 177.347656 146.027344 L 213.164062 146.027344 L 213.164062 267.085938 L 177.347656 267.085938 Z M 177.347656 146.027344 " fill-opacity="1" fill-rule="nonzero"/><path fill="#ffffff" d="M 178.894531 210.480469 L 214.710938 210.480469 L 214.710938 267.085938 L 178.894531 267.085938 Z M 178.894531 210.480469 " fill-opacity="1" fill-rule="nonzero"/><path fill="#ffffff" d="M 214.710938 210.480469 C 214.710938 210.480469 214.152344 194.78125 218.292969 186.617188 C 218.292969 186.617188 222.433594 176.5625 235.449219 176.503906 C 235.449219 176.503906 250.714844 173.835938 255.09375 188.984375 C 255.09375 188.984375 256.75 197.386719 256.75 200.9375 C 256.75 204.488281 256.867188 267.085938 256.867188 267.085938 L 294.378906 267.085938 L 294.378906 197.742188 C 294.378906 197.742188 297.101562 158.570312 273.59375 147.839844 C 273.59375 147.839844 234.9375 130.488281 213.953125 162.359375 C 213.953125 162.359375 209.378906 165.511719 208.746094 156.675781 C 208.113281 147.839844 202.75 170.246094 202.59375 170.722656 C 202.433594 171.195312 208.746094 215.371094 208.746094 215.371094 Z M 214.710938 210.480469 " fill-opacity="1" fill-rule="nonzero"/><g clip-path="url(#3f78249cf5)"><path fill="#155ec4" d="M 230.023438 269.984375 C 229.378906 269.984375 228.742188 269.921875 228.109375 269.796875 C 227.480469 269.671875 226.867188 269.484375 226.273438 269.238281 C 225.679688 268.992188 225.113281 268.691406 224.578125 268.332031 C 224.042969 267.976562 223.550781 267.570312 223.09375 267.113281 C 222.640625 266.660156 222.234375 266.164062 221.875 265.628906 C 221.519531 265.09375 221.214844 264.53125 220.96875 263.933594 C 220.722656 263.339844 220.539062 262.726562 220.414062 262.097656 C 220.285156 261.464844 220.222656 260.828125 220.222656 260.183594 L 220.222656 234.707031 C 220.375 233.242188 220.375 231.777344 220.21875 230.3125 C 220.066406 228.847656 219.757812 227.414062 219.304688 226.015625 C 218.847656 224.613281 218.25 223.277344 217.515625 222 C 216.777344 220.722656 215.917969 219.539062 214.933594 218.441406 C 214.324219 217.78125 213.8125 217.050781 213.40625 216.25 C 212.996094 215.445312 212.703125 214.605469 212.527344 213.722656 C 212.351562 212.839844 212.296875 211.949219 212.367188 211.050781 C 212.433594 210.15625 212.625 209.285156 212.933594 208.4375 C 213.242188 207.59375 213.660156 206.804688 214.183594 206.074219 C 214.710938 205.34375 215.324219 204.699219 216.027344 204.140625 C 216.730469 203.578125 217.5 203.121094 218.328125 202.773438 C 219.15625 202.421875 220.015625 202.191406 220.910156 202.078125 C 244.820312 199.238281 266.867188 191.59375 266.867188 150.148438 C 266.871094 146.277344 266.3125 142.488281 265.195312 138.785156 C 264.074219 135.078125 262.445312 131.617188 260.300781 128.394531 C 259.320312 126.925781 258.492188 125.375 257.816406 123.742188 C 257.144531 122.113281 256.632812 120.429688 256.289062 118.699219 C 255.945312 116.96875 255.769531 115.21875 255.769531 113.453125 C 255.769531 111.6875 255.941406 109.941406 256.28125 108.207031 C 257.175781 103.601562 257.175781 98.996094 256.28125 94.390625 C 248.902344 96.886719 242.074219 100.449219 235.804688 105.074219 C 234.609375 105.921875 233.292969 106.472656 231.851562 106.730469 C 230.414062 106.988281 228.984375 106.925781 227.574219 106.542969 C 223.171875 105.300781 218.710938 104.363281 214.179688 103.738281 C 209.652344 103.109375 205.101562 102.796875 200.527344 102.796875 C 195.957031 102.796875 191.40625 103.109375 186.878906 103.738281 C 182.347656 104.363281 177.882812 105.300781 173.484375 106.542969 C 172.070312 106.925781 170.644531 106.988281 169.203125 106.730469 C 167.765625 106.472656 166.445312 105.921875 165.253906 105.074219 C 158.941406 100.390625 152.050781 96.832031 144.578125 94.390625 C 143.636719 98.996094 143.636719 103.601562 144.578125 108.207031 C 144.898438 109.960938 145.046875 111.730469 145.023438 113.515625 C 145 115.296875 144.808594 117.0625 144.449219 118.808594 C 144.089844 120.554688 143.5625 122.25 142.878906 123.894531 C 142.191406 125.539062 141.351562 127.105469 140.367188 128.589844 C 138.230469 131.835938 136.605469 135.316406 135.488281 139.035156 C 134.371094 142.753906 133.808594 146.558594 133.800781 150.441406 C 133.800781 188.558594 152.222656 198.746094 179.855469 202.273438 C 180.757812 202.386719 181.628906 202.621094 182.46875 202.976562 C 183.308594 203.332031 184.082031 203.796875 184.789062 204.367188 C 185.5 204.9375 186.117188 205.59375 186.644531 206.339844 C 187.171875 207.082031 187.585938 207.882812 187.886719 208.742188 C 188.171875 209.574219 188.34375 210.433594 188.398438 211.3125 C 188.449219 212.191406 188.386719 213.0625 188.207031 213.925781 C 188.023438 214.785156 187.734375 215.609375 187.328125 216.394531 C 186.925781 217.175781 186.425781 217.890625 185.832031 218.542969 C 184.878906 219.558594 184.039062 220.664062 183.316406 221.859375 C 182.59375 223.050781 182 224.304688 181.535156 225.621094 C 181.070312 226.933594 180.746094 228.285156 180.5625 229.667969 C 180.378906 231.050781 180.339844 232.4375 180.441406 233.828125 L 180.441406 260.183594 C 180.441406 260.828125 180.378906 261.464844 180.253906 262.097656 C 180.128906 262.726562 179.941406 263.339844 179.695312 263.933594 C 179.449219 264.53125 179.148438 265.09375 178.789062 265.628906 C 178.433594 266.164062 178.027344 266.660156 177.570312 267.113281 C 177.117188 267.570312 176.621094 267.976562 176.085938 268.332031 C 175.550781 268.691406 174.988281 268.992188 174.394531 269.238281 C 173.796875 269.484375 173.1875 269.671875 172.554688 269.796875 C 171.921875 269.921875 171.285156 269.984375 170.644531 269.984375 C 170 269.984375 169.363281 269.921875 168.730469 269.796875 C 168.101562 269.671875 167.488281 269.484375 166.894531 269.238281 C 166.300781 268.992188 165.734375 268.691406 165.199219 268.332031 C 164.664062 267.976562 164.167969 267.570312 163.714844 267.113281 C 163.257812 266.660156 162.851562 266.164062 162.496094 265.628906 C 162.136719 265.09375 161.835938 264.53125 161.589844 263.933594 C 161.34375 263.339844 161.15625 262.726562 161.03125 262.097656 C 160.90625 261.464844 160.84375 260.828125 160.84375 260.183594 L 160.84375 254.601562 C 158.445312 254.875 156.039062 255.003906 153.625 254.984375 C 151.214844 254.960938 148.808594 254.792969 146.417969 254.476562 C 144.023438 254.160156 141.660156 253.699219 139.324219 253.089844 C 136.988281 252.484375 134.699219 251.734375 132.453125 250.84375 C 130.210938 249.953125 128.027344 248.929688 125.910156 247.773438 C 123.792969 246.613281 121.753906 245.328125 119.796875 243.917969 C 117.835938 242.511719 115.972656 240.984375 114.199219 239.347656 C 112.425781 237.707031 110.761719 235.964844 109.207031 234.121094 C 105.964844 230.527344 102.175781 227.652344 97.839844 225.5 C 97.214844 225.335938 96.613281 225.117188 96.03125 224.839844 C 95.449219 224.558594 94.902344 224.226562 94.386719 223.835938 C 93.871094 223.449219 93.398438 223.015625 92.96875 222.535156 C 92.539062 222.054688 92.160156 221.539062 91.832031 220.984375 C 91.503906 220.425781 91.234375 219.847656 91.023438 219.238281 C 90.808594 218.628906 90.65625 218.003906 90.566406 217.367188 C 90.476562 216.730469 90.449219 216.089844 90.484375 215.445312 C 90.523438 214.800781 90.621094 214.167969 90.78125 213.542969 C 90.941406 212.917969 91.160156 212.316406 91.441406 211.734375 C 91.722656 211.15625 92.054688 210.605469 92.441406 210.089844 C 92.828125 209.578125 93.265625 209.105469 93.746094 208.675781 C 94.226562 208.246094 94.742188 207.867188 95.296875 207.539062 C 95.855469 207.210938 96.433594 206.941406 97.042969 206.726562 C 97.652344 206.515625 98.277344 206.363281 98.914062 206.273438 C 99.550781 206.183594 100.191406 206.15625 100.835938 206.191406 C 101.480469 206.230469 102.113281 206.328125 102.738281 206.488281 C 106.507812 207.863281 110.050781 209.675781 113.367188 211.929688 C 116.683594 214.1875 119.671875 216.816406 122.335938 219.816406 C 132.132812 229.613281 141.933594 238.234375 160.550781 234.707031 C 160.21875 229.390625 160.972656 224.230469 162.804688 219.226562 C 142.617188 214.132812 113.8125 199.628906 113.8125 150.636719 C 113.796875 144.832031 114.625 139.152344 116.296875 133.597656 C 117.964844 128.039062 120.402344 122.84375 123.609375 118.007812 C 124.207031 117.113281 124.613281 116.144531 124.832031 115.09375 C 125.054688 114.042969 125.070312 112.988281 124.882812 111.933594 C 123.894531 106.644531 123.671875 101.324219 124.222656 95.972656 C 124.773438 90.617188 126.070312 85.453125 128.117188 80.476562 C 128.679688 79.136719 129.5 77.976562 130.582031 76.996094 C 131.660156 76.019531 132.898438 75.320312 134.289062 74.894531 C 137.621094 73.914062 149.574219 71.953125 172.210938 86.652344 C 181.371094 84.445312 190.664062 83.34375 200.089844 83.34375 C 209.511719 83.34375 218.804688 84.445312 227.964844 86.652344 C 250.601562 71.953125 262.554688 73.816406 265.789062 74.894531 C 267.179688 75.320312 268.417969 76.019531 269.496094 76.996094 C 270.578125 77.976562 271.398438 79.136719 271.960938 80.476562 C 274.011719 85.472656 275.308594 90.652344 275.859375 96.019531 C 276.410156 101.390625 276.1875 106.726562 275.195312 112.03125 C 274.992188 112.996094 274.984375 113.960938 275.171875 114.929688 C 275.359375 115.898438 275.726562 116.792969 276.273438 117.613281 C 279.488281 122.464844 281.933594 127.675781 283.601562 133.25 C 285.269531 138.828125 286.09375 144.523438 286.070312 150.34375 C 286.070312 200.023438 257.457031 214.425781 237.078125 218.933594 C 238.890625 224.242188 239.609375 229.699219 239.234375 235.296875 L 239.234375 260.183594 C 239.234375 260.804688 239.175781 261.417969 239.0625 262.027344 C 238.945312 262.636719 238.773438 263.226562 238.546875 263.804688 C 238.320312 264.378906 238.039062 264.929688 237.707031 265.453125 C 237.375 265.976562 237 266.460938 236.574219 266.914062 C 236.148438 267.367188 235.6875 267.773438 235.1875 268.136719 C 234.683594 268.5 234.152344 268.8125 233.59375 269.074219 C 233.03125 269.339844 232.449219 269.546875 231.851562 269.699219 C 231.25 269.851562 230.640625 269.945312 230.023438 269.984375 Z M 230.023438 269.984375 " fill-opacity="1" fill-rule="nonzero"/></g></svg>