<svg xmlns="http://www.w3.org/2000/svg" xmlns:xlink="http://www.w3.org/1999/xlink" width="500" zoomAndPan="magnify" viewBox="0 0 375 299.999988" height="400" preserveAspectRatio="xMidYMid meet" version="1.0"><defs><clipPath id="e1f714fd0f"><path d="M 37.5 0 L 337.5 0 L 337.5 300 L 37.5 300 Z M 37.5 0 " clip-rule="nonzero"/></clipPath><clipPath id="680f0d2a6f"><path d="M 43.902344 6.402344 L 331.152344 6.402344 L 331.152344 293.652344 L 43.902344 293.652344 Z M 43.902344 6.402344 " clip-rule="nonzero"/></clipPath><clipPath id="15ae222d20"><path d="M 245 30 L 292.199219 30 L 292.199219 77 L 245 77 Z M 245 30 " clip-rule="nonzero"/></clipPath><clipPath id="c0b5604f13"><path d="M 113 30 L 292.199219 30 L 292.199219 270 L 113 270 Z M 113 30 " clip-rule="nonzero"/></clipPath><clipPath id="47904b70ed"><path d="M 249 76 L 292.199219 76 L 292.199219 85 L 249 85 Z M 249 76 " clip-rule="nonzero"/></clipPath><clipPath id="5da9476f41"><path d="M 82.949219 41 L 223 41 L 223 104 L 82.949219 104 Z M 82.949219 41 " clip-rule="nonzero"/></clipPath></defs><g clip-path="url(#e1f714fd0f)"><path fill="#155ec4" d="M 337.5 254.386719 C 337.5 279.5625 317.089844 299.972656 291.914062 299.972656 L 83.097656 299.972656 C 57.917969 299.972656 37.511719 279.5625 37.511719 254.386719 L 37.511719 45.566406 C 37.511719 20.390625 57.917969 -0.0195312 83.097656 -0.0195312 L 291.914062 -0.0195312 C 317.089844 -0.0195312 337.5 20.390625 337.5 45.566406 Z M 337.5 254.386719 " fill-opacity="1" fill-rule="nonzero"/></g><path fill="#ffffff" d="M 156.132812 107.007812 C 156.132812 107.742188 156.097656 108.476562 156.023438 109.207031 C 155.953125 109.9375 155.847656 110.660156 155.703125 111.382812 C 155.558594 112.101562 155.382812 112.8125 155.167969 113.515625 C 154.957031 114.21875 154.707031 114.90625 154.425781 115.585938 C 154.148438 116.261719 153.832031 116.925781 153.488281 117.574219 C 153.140625 118.222656 152.765625 118.851562 152.355469 119.460938 C 151.949219 120.070312 151.511719 120.660156 151.046875 121.226562 C 150.582031 121.792969 150.089844 122.335938 149.570312 122.855469 C 149.050781 123.375 148.507812 123.867188 147.941406 124.332031 C 147.371094 124.796875 146.785156 125.234375 146.171875 125.644531 C 145.5625 126.050781 144.933594 126.425781 144.289062 126.773438 C 143.640625 127.121094 142.976562 127.433594 142.300781 127.714844 C 141.621094 127.996094 140.929688 128.242188 140.226562 128.453125 C 139.527344 128.667969 138.816406 128.847656 138.09375 128.988281 C 137.375 129.132812 136.648438 129.238281 135.917969 129.3125 C 135.1875 129.382812 134.457031 129.417969 133.722656 129.417969 C 132.988281 129.417969 132.257812 129.382812 131.527344 129.3125 C 130.796875 129.238281 130.070312 129.132812 129.351562 128.988281 C 128.632812 128.847656 127.921875 128.667969 127.21875 128.453125 C 126.515625 128.242188 125.824219 127.996094 125.148438 127.714844 C 124.46875 127.433594 123.804688 127.121094 123.160156 126.773438 C 122.511719 126.425781 121.882812 126.050781 121.273438 125.644531 C 120.664062 125.234375 120.074219 124.796875 119.507812 124.332031 C 118.9375 123.867188 118.394531 123.375 117.875 122.855469 C 117.359375 122.335938 116.867188 121.792969 116.398438 121.226562 C 115.933594 120.660156 115.496094 120.070312 115.089844 119.460938 C 114.683594 118.851562 114.304688 118.222656 113.960938 117.574219 C 113.613281 116.925781 113.300781 116.261719 113.019531 115.585938 C 112.738281 114.90625 112.492188 114.21875 112.277344 113.515625 C 112.066406 112.8125 111.886719 112.101562 111.742188 111.382812 C 111.601562 110.660156 111.492188 109.9375 111.421875 109.207031 C 111.347656 108.476562 111.3125 107.742188 111.3125 107.007812 C 111.3125 106.277344 111.347656 105.542969 111.421875 104.8125 C 111.492188 104.082031 111.601562 103.355469 111.742188 102.636719 C 111.886719 101.917969 112.066406 101.207031 112.277344 100.503906 C 112.492188 99.800781 112.738281 99.113281 113.019531 98.433594 C 113.300781 97.753906 113.613281 97.09375 113.960938 96.445312 C 114.304688 95.796875 114.683594 95.167969 115.089844 94.558594 C 115.496094 93.949219 115.933594 93.359375 116.398438 92.792969 C 116.867188 92.226562 117.359375 91.683594 117.875 91.164062 C 118.394531 90.644531 118.9375 90.152344 119.507812 89.6875 C 120.074219 89.21875 120.664062 88.785156 121.273438 88.375 C 121.882812 87.96875 122.511719 87.589844 123.160156 87.246094 C 123.804688 86.898438 124.46875 86.585938 125.148438 86.304688 C 125.824219 86.023438 126.515625 85.777344 127.21875 85.5625 C 127.921875 85.351562 128.632812 85.171875 129.351562 85.03125 C 130.070312 84.886719 130.796875 84.777344 131.527344 84.707031 C 132.257812 84.636719 132.988281 84.597656 133.722656 84.597656 C 134.457031 84.597656 135.1875 84.636719 135.917969 84.707031 C 136.648438 84.777344 137.375 84.886719 138.09375 85.03125 C 138.816406 85.171875 139.527344 85.351562 140.226562 85.5625 C 140.929688 85.777344 141.621094 86.023438 142.300781 86.304688 C 142.976562 86.585938 143.640625 86.898438 144.289062 87.246094 C 144.933594 87.589844 145.5625 87.96875 146.171875 88.375 C 146.785156 88.785156 147.371094 89.21875 147.941406 89.6875 C 148.507812 90.152344 149.050781 90.644531 149.570312 91.164062 C 150.089844 91.683594 150.582031 92.226562 151.046875 92.792969 C 151.511719 93.359375 151.949219 93.949219 152.355469 94.558594 C 152.765625 95.167969 153.140625 95.796875 153.488281 96.445312 C 153.832031 97.09375 154.148438 97.753906 154.425781 98.433594 C 154.707031 99.113281 154.957031 99.800781 155.167969 100.503906 C 155.382812 101.207031 155.558594 101.917969 155.703125 102.636719 C 155.847656 103.355469 155.953125 104.082031 156.023438 104.8125 C 156.097656 105.542969 156.132812 106.277344 156.132812 107.007812 Z M 156.132812 107.007812 " fill-opacity="1" fill-rule="nonzero"/><path fill="#ffffff" d="M 114.402344 145.941406 L 152.902344 145.941406 L 152.902344 269.792969 L 114.402344 269.792969 Z M 114.402344 145.941406 " fill-opacity="1" fill-rule="nonzero"/><path fill="#ffffff" d="M 177.117188 145.941406 L 213.761719 145.941406 L 213.761719 269.792969 L 177.117188 269.792969 Z M 177.117188 145.941406 " fill-opacity="1" fill-rule="nonzero"/><path fill="#ffffff" d="M 178.703125 211.882812 L 215.34375 211.882812 L 215.34375 269.792969 L 178.703125 269.792969 Z M 178.703125 211.882812 " fill-opacity="1" fill-rule="nonzero"/><path fill="#ffffff" d="M 215.34375 211.882812 C 215.34375 211.882812 214.773438 195.820312 219.007812 187.46875 C 219.007812 187.46875 223.246094 177.179688 236.5625 177.121094 C 236.5625 177.121094 252.179688 174.394531 256.660156 189.890625 C 256.660156 189.890625 258.355469 198.484375 258.355469 202.117188 C 258.355469 205.75 258.476562 269.796875 258.476562 269.796875 L 296.855469 269.796875 L 296.855469 198.851562 C 296.855469 198.851562 299.640625 158.773438 275.585938 147.796875 C 275.585938 147.796875 236.035156 130.042969 214.570312 162.648438 C 214.570312 162.648438 209.886719 165.875 209.242188 156.835938 C 208.59375 147.796875 203.109375 170.71875 202.945312 171.207031 C 202.785156 171.6875 209.242188 216.886719 209.242188 216.886719 Z M 215.34375 211.882812 " fill-opacity="1" fill-rule="nonzero"/><g clip-path="url(#680f0d2a6f)"><path fill="#ffffff" d="M 331.09375 249.925781 C 331.09375 274.027344 311.554688 293.566406 287.453125 293.566406 L 87.550781 293.566406 C 63.449219 293.566406 43.914062 274.027344 43.914062 249.925781 L 43.914062 50.023438 C 43.914062 25.921875 63.449219 6.382812 87.550781 6.382812 L 287.453125 6.382812 C 311.554688 6.382812 331.09375 25.921875 331.09375 50.023438 Z M 331.09375 249.925781 " fill-opacity="1" fill-rule="nonzero"/></g><path fill="#ffffff" d="M 157.46875 108.839844 C 157.46875 109.542969 157.433594 110.246094 157.367188 110.945312 C 157.296875 111.644531 157.195312 112.335938 157.058594 113.027344 C 156.917969 113.714844 156.75 114.398438 156.546875 115.070312 C 156.339844 115.742188 156.105469 116.402344 155.835938 117.050781 C 155.566406 117.699219 155.265625 118.335938 154.9375 118.953125 C 154.605469 119.574219 154.242188 120.175781 153.855469 120.761719 C 153.464844 121.34375 153.046875 121.910156 152.597656 122.453125 C 152.152344 122.996094 151.683594 123.515625 151.1875 124.011719 C 150.6875 124.507812 150.167969 124.980469 149.625 125.425781 C 149.082031 125.871094 148.519531 126.289062 147.933594 126.679688 C 147.351562 127.070312 146.75 127.429688 146.128906 127.761719 C 145.507812 128.09375 144.875 128.394531 144.226562 128.660156 C 143.578125 128.929688 142.914062 129.167969 142.242188 129.371094 C 141.570312 129.574219 140.890625 129.746094 140.199219 129.882812 C 139.511719 130.019531 138.816406 130.121094 138.117188 130.191406 C 137.417969 130.261719 136.71875 130.296875 136.015625 130.296875 C 135.3125 130.296875 134.613281 130.261719 133.914062 130.191406 C 133.214844 130.121094 132.519531 130.019531 131.832031 129.882812 C 131.140625 129.746094 130.460938 129.574219 129.789062 129.371094 C 129.117188 129.167969 128.457031 128.929688 127.804688 128.660156 C 127.15625 128.394531 126.523438 128.09375 125.902344 127.761719 C 125.28125 127.429688 124.679688 127.070312 124.097656 126.679688 C 123.511719 126.289062 122.949219 125.871094 122.40625 125.425781 C 121.863281 124.980469 121.34375 124.507812 120.847656 124.011719 C 120.347656 123.515625 119.878906 122.996094 119.433594 122.453125 C 118.988281 121.910156 118.570312 121.34375 118.179688 120.761719 C 117.789062 120.175781 117.425781 119.574219 117.09375 118.953125 C 116.765625 118.335938 116.464844 117.699219 116.195312 117.050781 C 115.925781 116.402344 115.691406 115.742188 115.484375 115.070312 C 115.28125 114.398438 115.113281 113.714844 114.976562 113.027344 C 114.835938 112.335938 114.734375 111.644531 114.664062 110.945312 C 114.597656 110.246094 114.5625 109.542969 114.5625 108.839844 C 114.5625 108.140625 114.597656 107.4375 114.664062 106.738281 C 114.734375 106.039062 114.835938 105.34375 114.976562 104.65625 C 115.113281 103.96875 115.28125 103.285156 115.484375 102.613281 C 115.691406 101.941406 115.925781 101.28125 116.195312 100.632812 C 116.464844 99.984375 116.765625 99.347656 117.09375 98.730469 C 117.425781 98.109375 117.789062 97.507812 118.179688 96.921875 C 118.570312 96.339844 118.988281 95.773438 119.433594 95.230469 C 119.878906 94.6875 120.347656 94.167969 120.847656 93.671875 C 121.34375 93.175781 121.863281 92.703125 122.40625 92.257812 C 122.949219 91.8125 123.511719 91.394531 124.097656 91.003906 C 124.679688 90.613281 125.28125 90.253906 125.902344 89.921875 C 126.523438 89.589844 127.15625 89.289062 127.804688 89.019531 C 128.457031 88.753906 129.117188 88.515625 129.789062 88.3125 C 130.460938 88.109375 131.140625 87.9375 131.832031 87.800781 C 132.519531 87.664062 133.214844 87.558594 133.914062 87.492188 C 134.613281 87.421875 135.3125 87.386719 136.015625 87.386719 C 136.71875 87.386719 137.417969 87.421875 138.117188 87.492188 C 138.816406 87.558594 139.511719 87.664062 140.199219 87.800781 C 140.890625 87.9375 141.570312 88.109375 142.242188 88.3125 C 142.914062 88.515625 143.578125 88.753906 144.226562 89.019531 C 144.875 89.289062 145.507812 89.589844 146.128906 89.921875 C 146.75 90.253906 147.351562 90.613281 147.933594 91.003906 C 148.519531 91.394531 149.082031 91.8125 149.625 92.257812 C 150.167969 92.703125 150.6875 93.175781 151.1875 93.671875 C 151.683594 94.167969 152.152344 94.6875 152.597656 95.230469 C 153.046875 95.773438 153.464844 96.339844 153.855469 96.921875 C 154.242188 97.507812 154.605469 98.109375 154.9375 98.730469 C 155.265625 99.347656 155.566406 99.984375 155.835938 100.632812 C 156.105469 101.28125 156.339844 101.941406 156.546875 102.613281 C 156.75 103.285156 156.917969 103.96875 157.058594 104.65625 C 157.195312 105.34375 157.296875 106.039062 157.367188 106.738281 C 157.433594 107.4375 157.46875 108.140625 157.46875 108.839844 Z M 157.46875 108.839844 " fill-opacity="1" fill-rule="nonzero"/><path fill="#ffffff" d="M 117.523438 146.109375 L 154.378906 146.109375 L 154.378906 264.675781 L 117.523438 264.675781 Z M 117.523438 146.109375 " fill-opacity="1" fill-rule="nonzero"/><path fill="#ffffff" d="M 177.558594 146.109375 L 212.636719 146.109375 L 212.636719 264.675781 L 177.558594 264.675781 Z M 177.558594 146.109375 " fill-opacity="1" fill-rule="nonzero"/><path fill="#ffffff" d="M 179.074219 209.238281 L 214.152344 209.238281 L 214.152344 264.675781 L 179.074219 264.675781 Z M 179.074219 209.238281 " fill-opacity="1" fill-rule="nonzero"/><path fill="#ffffff" d="M 214.152344 209.238281 C 214.152344 209.238281 213.605469 193.859375 217.660156 185.863281 C 217.660156 185.863281 221.714844 176.019531 234.464844 175.957031 C 234.464844 175.957031 249.417969 173.347656 253.703125 188.183594 C 253.703125 188.183594 255.328125 196.410156 255.328125 199.890625 C 255.328125 203.367188 255.441406 264.675781 255.441406 264.675781 L 292.183594 264.675781 L 292.183594 196.761719 C 292.183594 196.761719 294.847656 158.398438 271.824219 147.886719 C 271.824219 147.886719 233.960938 130.890625 213.410156 162.105469 C 213.410156 162.105469 208.929688 165.195312 208.308594 156.542969 C 207.691406 147.886719 202.4375 169.832031 202.285156 170.296875 C 202.128906 170.761719 208.308594 214.027344 208.308594 214.027344 Z M 214.152344 209.238281 " fill-opacity="1" fill-rule="nonzero"/><g clip-path="url(#15ae222d20)"><path fill="#ffaf36" d="M 245.683594 30 L 292.167969 76.453125 L 245.683594 76.453125 Z M 245.683594 30 " fill-opacity="1" fill-rule="nonzero"/></g><g clip-path="url(#c0b5604f13)"><path fill="#ff6d00" d="M 292.167969 76.453125 L 292.167969 270 L 113.972656 270 L 113.972656 30 L 245.683594 30 L 245.683594 76.453125 Z M 292.167969 76.453125 " fill-opacity="1" fill-rule="nonzero"/></g><path fill="#f54e00" d="M 121.71875 60.96875 L 121.71875 246.773438 C 121.71875 247.789062 121.820312 248.796875 122.019531 249.792969 C 122.21875 250.792969 122.511719 251.761719 122.898438 252.699219 C 123.289062 253.640625 123.765625 254.53125 124.332031 255.375 C 124.898438 256.222656 125.539062 257.003906 126.257812 257.722656 C 126.976562 258.441406 127.761719 259.082031 128.605469 259.648438 C 129.453125 260.214844 130.347656 260.691406 131.285156 261.078125 C 132.226562 261.46875 133.195312 261.761719 134.191406 261.960938 C 135.191406 262.160156 136.199219 262.257812 137.214844 262.257812 L 268.925781 262.257812 C 269.941406 262.257812 270.949219 262.160156 271.949219 261.960938 C 272.945312 261.761719 273.914062 261.46875 274.855469 261.078125 C 275.792969 260.691406 276.6875 260.214844 277.53125 259.648438 C 278.378906 259.082031 279.160156 258.441406 279.882812 257.722656 C 280.601562 257.003906 281.242188 256.222656 281.808594 255.375 C 282.375 254.53125 282.851562 253.640625 283.238281 252.699219 C 283.628906 251.761719 283.921875 250.792969 284.121094 249.792969 C 284.320312 248.796875 284.417969 247.789062 284.417969 246.773438 L 284.417969 238.554688 C 121.71875 228.539062 121.71875 60.96875 121.71875 60.96875 Z M 121.71875 60.96875 " fill-opacity="1" fill-rule="nonzero"/><g clip-path="url(#47904b70ed)"><path fill="#f54e00" d="M 249.554688 76.453125 L 292.167969 76.453125 L 292.167969 84.195312 L 249.554688 84.195312 Z M 249.554688 76.453125 " fill-opacity="1" fill-rule="nonzero"/></g><g clip-path="url(#5da9476f41)"><path fill="#f54100" d="M 82.984375 41.613281 L 222.4375 41.613281 L 222.4375 103.546875 L 82.984375 103.546875 Z M 82.984375 41.613281 " fill-opacity="1" fill-rule="nonzero"/></g><path fill="#d63900" d="M 113.972656 103.546875 L 214.691406 103.546875 L 214.691406 115.160156 L 113.972656 115.160156 Z M 113.972656 103.546875 " fill-opacity="1" fill-rule="nonzero"/><path fill="#ffffff" d="M 199.195312 84.195312 L 199.195312 53.226562 L 191.449219 53.226562 L 191.449219 88.066406 C 191.449219 88.578125 191.546875 89.070312 191.742188 89.546875 C 191.941406 90.019531 192.21875 90.4375 192.582031 90.800781 C 192.945312 91.164062 193.367188 91.445312 193.839844 91.640625 C 194.316406 91.835938 194.808594 91.933594 195.324219 91.933594 L 210.816406 91.933594 L 210.816406 84.195312 Z M 199.195312 84.195312 " fill-opacity="1" fill-rule="nonzero"/><path fill="#ffffff" d="M 113.972656 68.710938 L 102.351562 68.710938 L 102.351562 53.226562 L 94.605469 53.226562 L 94.605469 91.933594 L 102.351562 91.933594 L 102.351562 76.453125 L 113.972656 76.453125 L 113.972656 91.933594 L 121.71875 91.933594 L 121.71875 53.226562 L 113.972656 53.226562 Z M 113.972656 68.710938 " fill-opacity="1" fill-rule="nonzero"/><path fill="#ffffff" d="M 125.59375 60.96875 L 133.34375 60.96875 L 133.34375 91.933594 L 141.089844 91.933594 L 141.089844 60.96875 L 148.835938 60.96875 L 148.835938 53.226562 L 125.59375 53.226562 Z M 125.59375 60.96875 " fill-opacity="1" fill-rule="nonzero"/><path fill="#ffffff" d="M 180.601562 53.308594 C 180.164062 53.214844 179.726562 53.199219 179.285156 53.261719 C 178.839844 53.320312 178.421875 53.453125 178.027344 53.660156 C 177.628906 53.867188 177.28125 54.132812 176.976562 54.460938 C 176.675781 54.789062 176.4375 55.160156 176.261719 55.570312 L 168.207031 74.363281 L 160.144531 55.570312 C 159.96875 55.160156 159.730469 54.792969 159.425781 54.46875 C 159.125 54.140625 158.773438 53.875 158.378906 53.667969 C 157.984375 53.460938 157.566406 53.328125 157.125 53.265625 C 156.683594 53.203125 156.242188 53.214844 155.804688 53.304688 C 155.367188 53.394531 154.960938 53.554688 154.578125 53.785156 C 154.195312 54.015625 153.863281 54.304688 153.582031 54.652344 C 153.300781 54.996094 153.085938 55.378906 152.9375 55.796875 C 152.785156 56.21875 152.710938 56.652344 152.710938 57.097656 L 152.710938 91.933594 L 160.457031 91.933594 L 160.457031 75.957031 L 164.644531 85.71875 C 164.796875 86.066406 164.992188 86.386719 165.234375 86.675781 C 165.476562 86.964844 165.757812 87.214844 166.074219 87.425781 C 166.390625 87.632812 166.730469 87.792969 167.09375 87.898438 C 167.457031 88.007812 167.828125 88.0625 168.207031 88.0625 C 168.585938 88.0625 168.957031 88.007812 169.320312 87.898438 C 169.683594 87.792969 170.023438 87.632812 170.339844 87.425781 C 170.65625 87.214844 170.933594 86.964844 171.175781 86.675781 C 171.421875 86.386719 171.617188 86.066406 171.765625 85.71875 L 175.953125 75.957031 L 175.953125 91.933594 L 183.703125 91.933594 L 183.703125 57.097656 C 183.699219 56.652344 183.625 56.21875 183.476562 55.796875 C 183.324219 55.378906 183.109375 54.996094 182.828125 54.652344 C 182.542969 54.304688 182.210938 54.015625 181.832031 53.785156 C 181.449219 53.554688 181.039062 53.394531 180.601562 53.308594 Z M 180.601562 53.308594 " fill-opacity="1" fill-rule="nonzero"/><path fill="#ffffff" d="M 160.457031 219.675781 L 129.46875 184.839844 L 160.457031 150 L 175.953125 150 L 144.964844 184.839844 L 175.953125 219.675781 Z M 160.457031 219.675781 " fill-opacity="1" fill-rule="nonzero"/><path fill="#ffffff" d="M 245.683594 219.675781 L 276.671875 184.839844 L 245.683594 150 L 230.1875 150 L 261.175781 184.839844 L 230.1875 219.675781 Z M 245.683594 219.675781 " fill-opacity="1" fill-rule="nonzero"/><path fill="#ffffff" d="M 187.574219 219.675781 L 206.945312 150 L 218.566406 150 L 199.195312 219.675781 Z M 187.574219 219.675781 " fill-opacity="1" fill-rule="nonzero"/><path fill="#d63900" d="M 129.46875 184.839844 L 153.570312 157.742188 L 152.710938 157.742188 L 121.71875 192.582031 L 152.710938 227.417969 L 168.207031 227.417969 L 161.320312 219.675781 L 160.457031 219.675781 Z M 129.46875 184.839844 " fill-opacity="1" fill-rule="nonzero"/><path fill="#d63900" d="M 261.175781 184.839844 L 237.074219 157.742188 L 222.4375 157.742188 L 253.429688 192.582031 L 222.4375 227.417969 L 237.933594 227.417969 L 244.820312 219.675781 L 230.1875 219.675781 Z M 261.175781 184.839844 " fill-opacity="1" fill-rule="nonzero"/><path fill="#d63900" d="M 204.789062 157.742188 L 199.195312 157.742188 L 179.828125 227.417969 L 191.449219 227.417969 L 193.601562 219.675781 L 187.574219 219.675781 Z M 204.789062 157.742188 " fill-opacity="1" fill-rule="nonzero"/><path fill="#d63900" d="M 191.449219 88.066406 L 191.449219 57.097656 L 187.574219 57.097656 L 187.574219 91.933594 C 187.574219 92.449219 187.671875 92.941406 187.871094 93.417969 C 188.066406 93.890625 188.347656 94.308594 188.710938 94.671875 C 189.074219 95.035156 189.492188 95.316406 189.964844 95.511719 C 190.441406 95.707031 190.933594 95.804688 191.449219 95.804688 L 206.945312 95.804688 L 206.945312 91.933594 L 195.324219 91.933594 C 194.808594 91.933594 194.316406 91.835938 193.839844 91.640625 C 193.367188 91.445312 192.945312 91.164062 192.582031 90.800781 C 192.21875 90.4375 191.941406 90.019531 191.742188 89.546875 C 191.546875 89.070312 191.449219 88.578125 191.449219 88.066406 Z M 191.449219 88.066406 " fill-opacity="1" fill-rule="nonzero"/><path fill="#d63900" d="M 110.097656 57.097656 L 113.972656 57.097656 L 113.972656 68.710938 L 110.097656 68.710938 Z M 110.097656 57.097656 " fill-opacity="1" fill-rule="nonzero"/><path fill="#d63900" d="M 94.605469 57.097656 L 90.730469 57.097656 L 90.730469 95.804688 L 98.476562 95.804688 L 98.476562 91.933594 L 94.605469 91.933594 Z M 94.605469 57.097656 " fill-opacity="1" fill-rule="nonzero"/><path fill="#d63900" d="M 113.972656 76.453125 L 102.351562 76.453125 L 102.351562 80.324219 L 110.097656 80.324219 L 110.097656 95.804688 L 117.847656 95.804688 L 117.847656 91.933594 L 113.972656 91.933594 Z M 113.972656 76.453125 " fill-opacity="1" fill-rule="nonzero"/><path fill="#d63900" d="M 141.089844 60.96875 L 144.964844 60.96875 L 144.964844 64.839844 L 141.089844 64.839844 Z M 141.089844 60.96875 " fill-opacity="1" fill-rule="nonzero"/><path fill="#d63900" d="M 133.34375 60.96875 L 125.59375 60.96875 L 125.59375 57.097656 L 121.71875 57.097656 L 121.71875 64.839844 L 129.46875 64.839844 L 129.46875 95.804688 L 137.214844 95.804688 L 137.214844 91.933594 L 133.34375 91.933594 Z M 133.34375 60.96875 " fill-opacity="1" fill-rule="nonzero"/><path fill="#d63900" d="M 152.710938 57.152344 C 152.453125 57.132812 152.195312 57.140625 151.9375 57.179688 C 151.5 57.265625 151.089844 57.425781 150.707031 57.65625 C 150.324219 57.886719 149.992188 58.175781 149.710938 58.519531 C 149.429688 58.867188 149.210938 59.25 149.0625 59.667969 C 148.914062 60.089844 148.835938 60.523438 148.835938 60.96875 L 148.835938 95.804688 L 156.585938 95.804688 L 156.585938 91.933594 L 152.710938 91.933594 Z M 152.710938 57.152344 " fill-opacity="1" fill-rule="nonzero"/><path fill="#d63900" d="M 175.597656 57.136719 C 174.890625 57.199219 174.25 57.441406 173.675781 57.855469 C 173.101562 58.273438 172.675781 58.808594 172.394531 59.457031 L 167.097656 71.804688 L 168.207031 74.382812 Z M 175.597656 57.136719 " fill-opacity="1" fill-rule="nonzero"/><path fill="#d63900" d="M 164.644531 85.71875 L 160.457031 75.957031 L 160.457031 88.839844 L 160.773438 89.570312 C 160.921875 89.917969 161.117188 90.238281 161.359375 90.527344 C 161.605469 90.820312 161.882812 91.066406 162.199219 91.277344 C 162.515625 91.484375 162.855469 91.644531 163.21875 91.75 C 163.582031 91.859375 163.953125 91.914062 164.332031 91.914062 C 164.710938 91.914062 165.082031 91.859375 165.445312 91.75 C 165.808594 91.644531 166.148438 91.484375 166.464844 91.277344 C 166.78125 91.066406 167.058594 90.820312 167.304688 90.527344 C 167.546875 90.238281 167.742188 89.917969 167.890625 89.570312 L 168.570312 87.992188 C 168.445312 87.992188 168.328125 88.046875 168.207031 88.046875 C 167.828125 88.046875 167.457031 87.992188 167.097656 87.886719 C 166.734375 87.777344 166.394531 87.621094 166.078125 87.414062 C 165.761719 87.207031 165.480469 86.960938 165.238281 86.671875 C 164.992188 86.382812 164.796875 86.066406 164.644531 85.71875 Z M 164.644531 85.71875 " fill-opacity="1" fill-rule="nonzero"/><path fill="#d63900" d="M 175.953125 75.957031 L 172.078125 84.988281 L 172.078125 95.804688 L 179.828125 95.804688 L 179.828125 91.933594 L 175.953125 91.933594 Z M 175.953125 75.957031 " fill-opacity="1" fill-rule="nonzero"/></svg>