<svg xmlns="http://www.w3.org/2000/svg" xmlns:xlink="http://www.w3.org/1999/xlink" width="500" zoomAndPan="magnify" viewBox="0 0 375 299.999988" height="400" preserveAspectRatio="xMidYMid meet" version="1.0"><defs><clipPath id="a882eb8a1b"><path d="M 37.5 0 L 337.5 0 L 337.5 300 L 37.5 300 Z M 37.5 0 " clip-rule="nonzero"/></clipPath><clipPath id="91a4fdc472"><path d="M 43.902344 6.402344 L 331.152344 6.402344 L 331.152344 293.652344 L 43.902344 293.652344 Z M 43.902344 6.402344 " clip-rule="nonzero"/></clipPath><clipPath id="f0a6ed4597"><path d="M 245 30 L 292.199219 30 L 292.199219 77 L 245 77 Z M 245 30 " clip-rule="nonzero"/></clipPath><clipPath id="4917821432"><path d="M 113 30 L 292.199219 30 L 292.199219 270 L 113 270 Z M 113 30 " clip-rule="nonzero"/></clipPath><clipPath id="5bc87b055b"><path d="M 249 76 L 292.199219 76 L 292.199219 85 L 249 85 Z M 249 76 " clip-rule="nonzero"/></clipPath><clipPath id="c48fcdcccd"><path d="M 82.949219 41 L 223 41 L 223 104 L 82.949219 104 Z M 82.949219 41 " clip-rule="nonzero"/></clipPath></defs><g clip-path="url(#a882eb8a1b)"><path fill="#155ec4" d="M 337.5 254.386719 C 337.5 279.5625 317.089844 299.972656 291.914062 299.972656 L 83.097656 299.972656 C 57.917969 299.972656 37.511719 279.5625 37.511719 254.386719 L 37.511719 45.566406 C 37.511719 20.390625 57.917969 -0.0195312 83.097656 -0.0195312 L 291.914062 -0.0195312 C 317.089844 -0.0195312 337.5 20.390625 337.5 45.566406 Z M 337.5 254.386719 " fill-opacity="1" fill-rule="nonzero"/></g><path fill="#ffffff" d="M 156.132812 107.007812 C 156.132812 107.742188 156.097656 108.476562 156.023438 109.207031 C 155.953125 109.9375 155.847656 110.660156 155.703125 111.382812 C 155.558594 112.101562 155.382812 112.8125 155.167969 113.515625 C 154.957031 114.21875 154.707031 114.90625 154.425781 115.585938 C 154.148438 116.261719 153.832031 116.925781 153.488281 117.574219 C 153.140625 118.222656 152.765625 118.851562 152.355469 119.460938 C 151.949219 120.070312 151.511719 120.660156 151.046875 121.226562 C 150.582031 121.792969 150.089844 122.335938 149.570312 122.855469 C 149.050781 123.375 148.507812 123.867188 147.941406 124.332031 C 147.371094 124.796875 146.785156 125.234375 146.171875 125.644531 C 145.5625 126.050781 144.933594 126.425781 144.289062 126.773438 C 143.640625 127.121094 142.976562 127.433594 142.300781 127.714844 C 141.621094 127.996094 140.929688 128.242188 140.226562 128.453125 C 139.527344 128.667969 138.816406 128.847656 138.09375 128.988281 C 137.375 129.132812 136.648438 129.238281 135.917969 129.3125 C 135.1875 129.382812 134.457031 129.417969 133.722656 129.417969 C 132.988281 129.417969 132.257812 129.382812 131.527344 129.3125 C 130.796875 129.238281 130.070312 129.132812 129.351562 128.988281 C 128.632812 128.847656 127.921875 128.667969 127.21875 128.453125 C 126.515625 128.242188 125.824219 127.996094 125.148438 127.714844 C 124.46875 127.433594 123.804688 127.121094 123.160156 126.773438 C 122.511719 126.425781 121.882812 126.050781 121.273438 125.644531 C 120.664062 125.234375 120.074219 124.796875 119.507812 124.332031 C 118.9375 123.867188 118.394531 123.375 117.875 122.855469 C 117.359375 122.335938 116.867188 121.792969 116.398438 121.226562 C 115.933594 120.660156 115.496094 120.070312 115.089844 119.460938 C 114.683594 118.851562 114.304688 118.222656 113.960938 117.574219 C 113.613281 116.925781 113.300781 116.261719 113.019531 115.585938 C 112.738281 114.90625 112.492188 114.21875 112.277344 113.515625 C 112.066406 112.8125 111.886719 112.101562 111.742188 111.382812 C 111.601562 110.660156 111.492188 109.9375 111.421875 109.207031 C 111.347656 108.476562 111.3125 107.742188 111.3125 107.007812 C 111.3125 106.277344 111.347656 105.542969 111.421875 104.8125 C 111.492188 104.082031 111.601562 103.355469 111.742188 102.636719 C 111.886719 101.917969 112.066406 101.207031 112.277344 100.503906 C 112.492188 99.800781 112.738281 99.113281 113.019531 98.433594 C 113.300781 97.753906 113.613281 97.09375 113.960938 96.445312 C 114.304688 95.796875 114.683594 95.167969 115.089844 94.558594 C 115.496094 93.949219 115.933594 93.359375 116.398438 92.792969 C 116.867188 92.226562 117.359375 91.683594 117.875 91.164062 C 118.394531 90.644531 118.9375 90.152344 119.507812 89.6875 C 120.074219 89.21875 120.664062 88.785156 121.273438 88.375 C 121.882812 87.96875 122.511719 87.589844 123.160156 87.246094 C 123.804688 86.898438 124.46875 86.585938 125.148438 86.304688 C 125.824219 86.023438 126.515625 85.777344 127.21875 85.5625 C 127.921875 85.351562 128.632812 85.171875 129.351562 85.03125 C 130.070312 84.886719 130.796875 84.777344 131.527344 84.707031 C 132.257812 84.636719 132.988281 84.597656 133.722656 84.597656 C 134.457031 84.597656 135.1875 84.636719 135.917969 84.707031 C 136.648438 84.777344 137.375 84.886719 138.09375 85.03125 C 138.816406 85.171875 139.527344 85.351562 140.226562 85.5625 C 140.929688 85.777344 141.621094 86.023438 142.300781 86.304688 C 142.976562 86.585938 143.640625 86.898438 144.289062 87.246094 C 144.933594 87.589844 145.5625 87.96875 146.171875 88.375 C 146.785156 88.785156 147.371094 89.21875 147.941406 89.6875 C 148.507812 90.152344 149.050781 90.644531 149.570312 91.164062 C 150.089844 91.683594 150.582031 92.226562 151.046875 92.792969 C 151.511719 93.359375 151.949219 93.949219 152.355469 94.558594 C 152.765625 95.167969 153.140625 95.796875 153.488281 96.445312 C 153.832031 97.09375 154.148438 97.753906 154.425781 98.433594 C 154.707031 99.113281 154.957031 99.800781 155.167969 100.503906 C 155.382812 101.207031 155.558594 101.917969 155.703125 102.636719 C 155.847656 103.355469 155.953125 104.082031 156.023438 104.8125 C 156.097656 105.542969 156.132812 106.277344 156.132812 107.007812 Z M 156.132812 107.007812 " fill-opacity="1" fill-rule="nonzero"/><path fill="#ffffff" d="M 114.402344 145.941406 L 152.902344 145.941406 L 152.902344 269.792969 L 114.402344 269.792969 Z M 114.402344 145.941406 " fill-opacity="1" fill-rule="nonzero"/><path fill="#ffffff" d="M 177.117188 145.941406 L 213.761719 145.941406 L 213.761719 269.792969 L 177.117188 269.792969 Z M 177.117188 145.941406 " fill-opacity="1" fill-rule="nonzero"/><path fill="#ffffff" d="M 178.703125 211.882812 L 215.34375 211.882812 L 215.34375 269.792969 L 178.703125 269.792969 Z M 178.703125 211.882812 " fill-opacity="1" fill-rule="nonzero"/><path fill="#ffffff" d="M 215.34375 211.882812 C 215.34375 211.882812 214.773438 195.820312 219.007812 187.46875 C 219.007812 187.46875 223.246094 177.179688 236.5625 177.121094 C 236.5625 177.121094 252.179688 174.394531 256.660156 189.890625 C 256.660156 189.890625 258.355469 198.484375 258.355469 202.117188 C 258.355469 205.75 258.476562 269.796875 258.476562 269.796875 L 296.855469 269.796875 L 296.855469 198.851562 C 296.855469 198.851562 299.640625 158.773438 275.585938 147.796875 C 275.585938 147.796875 236.035156 130.042969 214.570312 162.648438 C 214.570312 162.648438 209.886719 165.875 209.242188 156.835938 C 208.59375 147.796875 203.109375 170.71875 202.945312 171.207031 C 202.785156 171.6875 209.242188 216.886719 209.242188 216.886719 Z M 215.34375 211.882812 " fill-opacity="1" fill-rule="nonzero"/><g clip-path="url(#91a4fdc472)"><path fill="#ffffff" d="M 331.09375 249.925781 C 331.09375 274.027344 311.554688 293.566406 287.453125 293.566406 L 87.550781 293.566406 C 63.449219 293.566406 43.914062 274.027344 43.914062 249.925781 L 43.914062 50.023438 C 43.914062 25.921875 63.449219 6.382812 87.550781 6.382812 L 287.453125 6.382812 C 311.554688 6.382812 331.09375 25.921875 331.09375 50.023438 Z M 331.09375 249.925781 " fill-opacity="1" fill-rule="nonzero"/></g><path fill="#ffffff" d="M 157.46875 108.839844 C 157.46875 109.542969 157.433594 110.246094 157.367188 110.945312 C 157.296875 111.644531 157.195312 112.335938 157.058594 113.027344 C 156.917969 113.714844 156.75 114.398438 156.546875 115.070312 C 156.339844 115.742188 156.105469 116.402344 155.835938 117.050781 C 155.566406 117.699219 155.265625 118.335938 154.9375 118.953125 C 154.605469 119.574219 154.242188 120.175781 153.855469 120.761719 C 153.464844 121.34375 153.046875 121.910156 152.597656 122.453125 C 152.152344 122.996094 151.683594 123.515625 151.1875 124.011719 C 150.6875 124.507812 150.167969 124.980469 149.625 125.425781 C 149.082031 125.871094 148.519531 126.289062 147.933594 126.679688 C 147.351562 127.070312 146.75 127.429688 146.128906 127.761719 C 145.507812 128.09375 144.875 128.394531 144.226562 128.660156 C 143.578125 128.929688 142.914062 129.167969 142.242188 129.371094 C 141.570312 129.574219 140.890625 129.746094 140.199219 129.882812 C 139.511719 130.019531 138.816406 130.121094 138.117188 130.191406 C 137.417969 130.261719 136.71875 130.296875 136.015625 130.296875 C 135.3125 130.296875 134.613281 130.261719 133.914062 130.191406 C 133.214844 130.121094 132.519531 130.019531 131.832031 129.882812 C 131.140625 129.746094 130.460938 129.574219 129.789062 129.371094 C 129.117188 129.167969 128.457031 128.929688 127.804688 128.660156 C 127.15625 128.394531 126.523438 128.09375 125.902344 127.761719 C 125.28125 127.429688 124.679688 127.070312 124.097656 126.679688 C 123.511719 126.289062 122.949219 125.871094 122.40625 125.425781 C 121.863281 124.980469 121.34375 124.507812 120.847656 124.011719 C 120.347656 123.515625 119.878906 122.996094 119.433594 122.453125 C 118.988281 121.910156 118.570312 121.34375 118.179688 120.761719 C 117.789062 120.175781 117.425781 119.574219 117.09375 118.953125 C 116.765625 118.335938 116.464844 117.699219 116.195312 117.050781 C 115.925781 116.402344 115.691406 115.742188 115.484375 115.070312 C 115.28125 114.398438 115.113281 113.714844 114.976562 113.027344 C 114.835938 112.335938 114.734375 111.644531 114.664062 110.945312 C 114.597656 110.246094 114.5625 109.542969 114.5625 108.839844 C 114.5625 108.140625 114.597656 107.4375 114.664062 106.738281 C 114.734375 106.039062 114.835938 105.34375 114.976562 104.65625 C 115.113281 103.96875 115.28125 103.285156 115.484375 102.613281 C 115.691406 101.941406 115.925781 101.28125 116.195312 100.632812 C 116.464844 99.984375 116.765625 99.347656 117.09375 98.730469 C 117.425781 98.109375 117.789062 97.507812 118.179688 96.921875 C 118.570312 96.339844 118.988281 95.773438 119.433594 95.230469 C 119.878906 94.6875 120.347656 94.167969 120.847656 93.671875 C 121.34375 93.175781 121.863281 92.703125 122.40625 92.257812 C 122.949219 91.8125 123.511719 91.394531 124.097656 91.003906 C 124.679688 90.613281 125.28125 90.253906 125.902344 89.921875 C 126.523438 89.589844 127.15625 89.289062 127.804688 89.019531 C 128.457031 88.753906 129.117188 88.515625 129.789062 88.3125 C 130.460938 88.109375 131.140625 87.9375 131.832031 87.800781 C 132.519531 87.664062 133.214844 87.558594 133.914062 87.492188 C 134.613281 87.421875 135.3125 87.386719 136.015625 87.386719 C 136.71875 87.386719 137.417969 87.421875 138.117188 87.492188 C 138.816406 87.558594 139.511719 87.664062 140.199219 87.800781 C 140.890625 87.9375 141.570312 88.109375 142.242188 88.3125 C 142.914062 88.515625 143.578125 88.753906 144.226562 89.019531 C 144.875 89.289062 145.507812 89.589844 146.128906 89.921875 C 146.75 90.253906 147.351562 90.613281 147.933594 91.003906 C 148.519531 91.394531 149.082031 91.8125 149.625 92.257812 C 150.167969 92.703125 150.6875 93.175781 151.1875 93.671875 C 151.683594 94.167969 152.152344 94.6875 152.597656 95.230469 C 153.046875 95.773438 153.464844 96.339844 153.855469 96.921875 C 154.242188 97.507812 154.605469 98.109375 154.9375 98.730469 C 155.265625 99.347656 155.566406 99.984375 155.835938 100.632812 C 156.105469 101.28125 156.339844 101.941406 156.546875 102.613281 C 156.75 103.285156 156.917969 103.96875 157.058594 104.65625 C 157.195312 105.34375 157.296875 106.039062 157.367188 106.738281 C 157.433594 107.4375 157.46875 108.140625 157.46875 108.839844 Z M 157.46875 108.839844 " fill-opacity="1" fill-rule="nonzero"/><path fill="#ffffff" d="M 117.523438 146.109375 L 154.378906 146.109375 L 154.378906 264.675781 L 117.523438 264.675781 Z M 117.523438 146.109375 " fill-opacity="1" fill-rule="nonzero"/><path fill="#ffffff" d="M 177.558594 146.109375 L 212.636719 146.109375 L 212.636719 264.675781 L 177.558594 264.675781 Z M 177.558594 146.109375 " fill-opacity="1" fill-rule="nonzero"/><path fill="#ffffff" d="M 179.074219 209.238281 L 214.152344 209.238281 L 214.152344 264.675781 L 179.074219 264.675781 Z M 179.074219 209.238281 " fill-opacity="1" fill-rule="nonzero"/><path fill="#ffffff" d="M 214.152344 209.238281 C 214.152344 209.238281 213.605469 193.859375 217.660156 185.863281 C 217.660156 185.863281 221.714844 176.019531 234.464844 175.957031 C 234.464844 175.957031 249.417969 173.347656 253.703125 188.183594 C 253.703125 188.183594 255.328125 196.410156 255.328125 199.890625 C 255.328125 203.367188 255.441406 264.675781 255.441406 264.675781 L 292.183594 264.675781 L 292.183594 196.761719 C 292.183594 196.761719 294.847656 158.398438 271.824219 147.886719 C 271.824219 147.886719 233.960938 130.890625 213.410156 162.105469 C 213.410156 162.105469 208.929688 165.195312 208.308594 156.542969 C 207.691406 147.886719 202.4375 169.832031 202.285156 170.296875 C 202.128906 170.761719 208.308594 214.027344 208.308594 214.027344 Z M 214.152344 209.238281 " fill-opacity="1" fill-rule="nonzero"/><g clip-path="url(#f0a6ed4597)"><path fill="#ffed9e" d="M 245.683594 30 L 292.167969 76.453125 L 245.683594 76.453125 Z M 245.683594 30 " fill-opacity="1" fill-rule="nonzero"/></g><g clip-path="url(#4917821432)"><path fill="#fdd734" d="M 292.167969 76.453125 L 292.167969 270 L 113.972656 270 L 113.972656 30 L 245.683594 30 L 245.683594 76.453125 Z M 292.167969 76.453125 " fill-opacity="1" fill-rule="nonzero"/></g><path fill="#ffbf00" d="M 121.71875 60.96875 L 121.71875 246.773438 C 121.71875 247.789062 121.820312 248.796875 122.019531 249.792969 C 122.21875 250.792969 122.511719 251.761719 122.898438 252.699219 C 123.289062 253.640625 123.765625 254.53125 124.332031 255.375 C 124.898438 256.222656 125.539062 257.003906 126.257812 257.722656 C 126.976562 258.441406 127.761719 259.082031 128.605469 259.648438 C 129.453125 260.214844 130.347656 260.691406 131.285156 261.078125 C 132.226562 261.46875 133.195312 261.761719 134.191406 261.960938 C 135.191406 262.160156 136.199219 262.257812 137.214844 262.257812 L 268.925781 262.257812 C 269.941406 262.257812 270.949219 262.160156 271.949219 261.960938 C 272.945312 261.761719 273.914062 261.46875 274.855469 261.078125 C 275.792969 260.691406 276.6875 260.214844 277.53125 259.648438 C 278.378906 259.082031 279.160156 258.441406 279.882812 257.722656 C 280.601562 257.003906 281.242188 256.222656 281.808594 255.375 C 282.375 254.53125 282.851562 253.640625 283.238281 252.699219 C 283.628906 251.761719 283.921875 250.792969 284.121094 249.792969 C 284.320312 248.796875 284.417969 247.789062 284.417969 246.773438 L 284.417969 238.554688 C 121.71875 228.539062 121.71875 60.96875 121.71875 60.96875 Z M 121.71875 60.96875 " fill-opacity="1" fill-rule="nonzero"/><g clip-path="url(#5bc87b055b)"><path fill="#ffbf00" d="M 249.554688 76.453125 L 292.167969 76.453125 L 292.167969 84.195312 L 249.554688 84.195312 Z M 249.554688 76.453125 " fill-opacity="1" fill-rule="nonzero"/></g><g clip-path="url(#c48fcdcccd)"><path fill="#ffbf00" d="M 82.984375 41.613281 L 222.4375 41.613281 L 222.4375 103.546875 L 82.984375 103.546875 Z M 82.984375 41.613281 " fill-opacity="1" fill-rule="nonzero"/></g><path fill="#e89e00" d="M 113.972656 103.546875 L 214.691406 103.546875 L 214.691406 115.160156 L 113.972656 115.160156 Z M 113.972656 103.546875 " fill-opacity="1" fill-rule="nonzero"/><path fill="#ffffff" d="M 164.332031 91.933594 C 152.074219 91.933594 148.835938 84.339844 148.835938 80.324219 L 152.710938 80.324219 L 156.585938 80.210938 C 156.632812 80.875 157.203125 84.195312 164.332031 84.195312 C 164.847656 84.195312 165.339844 84.09375 165.816406 83.898438 C 166.289062 83.703125 166.707031 83.421875 167.070312 83.058594 C 167.433594 82.695312 167.714844 82.277344 167.910156 81.804688 C 168.109375 81.328125 168.207031 80.835938 168.207031 80.324219 C 168.207031 79.808594 168.109375 79.316406 167.910156 78.839844 C 167.714844 78.367188 167.433594 77.949219 167.070312 77.585938 C 166.707031 77.222656 166.289062 76.941406 165.816406 76.746094 C 165.339844 76.550781 164.847656 76.453125 164.332031 76.453125 L 160.457031 76.453125 C 159.695312 76.453125 158.941406 76.378906 158.191406 76.226562 C 157.441406 76.078125 156.714844 75.859375 156.011719 75.566406 C 155.304688 75.277344 154.636719 74.917969 154.003906 74.496094 C 153.367188 74.070312 152.78125 73.589844 152.242188 73.050781 C 151.703125 72.511719 151.21875 71.925781 150.796875 71.289062 C 150.371094 70.65625 150.015625 69.988281 149.722656 69.28125 C 149.429688 68.578125 149.210938 67.851562 149.058594 67.105469 C 148.910156 66.355469 148.835938 65.601562 148.835938 64.839844 C 148.835938 64.078125 148.910156 63.320312 149.058594 62.574219 C 149.210938 61.824219 149.429688 61.097656 149.722656 60.394531 C 150.015625 59.691406 150.371094 59.019531 150.796875 58.386719 C 151.21875 57.753906 151.703125 57.167969 152.242188 56.628906 C 152.78125 56.089844 153.367188 55.605469 154.003906 55.183594 C 154.636719 54.757812 155.304688 54.402344 156.011719 54.109375 C 156.714844 53.816406 157.441406 53.597656 158.191406 53.449219 C 158.941406 53.300781 159.695312 53.226562 160.457031 53.226562 C 172.714844 53.226562 175.953125 60.820312 175.953125 64.839844 L 168.207031 64.839844 C 168.164062 64.285156 167.589844 60.96875 160.457031 60.96875 C 159.945312 60.96875 159.449219 61.066406 158.976562 61.261719 C 158.5 61.457031 158.082031 61.738281 157.71875 62.101562 C 157.355469 62.464844 157.074219 62.882812 156.878906 63.355469 C 156.683594 63.832031 156.585938 64.324219 156.585938 64.839844 C 156.585938 65.351562 156.683594 65.847656 156.878906 66.320312 C 157.074219 66.792969 157.355469 67.214844 157.71875 67.574219 C 158.082031 67.9375 158.5 68.21875 158.976562 68.414062 C 159.449219 68.613281 159.945312 68.710938 160.457031 68.710938 L 164.332031 68.710938 C 165.09375 68.710938 165.851562 68.785156 166.597656 68.933594 C 167.347656 69.082031 168.074219 69.300781 168.78125 69.59375 C 169.484375 69.886719 170.152344 70.242188 170.789062 70.667969 C 171.421875 71.089844 172.011719 71.570312 172.550781 72.109375 C 173.089844 72.648438 173.570312 73.238281 173.996094 73.871094 C 174.417969 74.503906 174.777344 75.175781 175.070312 75.878906 C 175.359375 76.582031 175.582031 77.308594 175.730469 78.058594 C 175.878906 78.804688 175.953125 79.558594 175.953125 80.324219 C 175.953125 81.085938 175.878906 81.839844 175.730469 82.589844 C 175.582031 83.335938 175.359375 84.0625 175.070312 84.765625 C 174.777344 85.472656 174.417969 86.140625 173.996094 86.773438 C 173.570312 87.410156 173.089844 87.996094 172.550781 88.535156 C 172.011719 89.074219 171.421875 89.554688 170.789062 89.976562 C 170.152344 90.402344 169.484375 90.757812 168.78125 91.050781 C 168.074219 91.34375 167.347656 91.5625 166.597656 91.710938 C 165.851562 91.859375 165.09375 91.933594 164.332031 91.933594 Z M 164.332031 91.933594 " fill-opacity="1" fill-rule="nonzero"/><path fill="#ffffff" d="M 133.34375 91.933594 C 132.578125 91.933594 131.824219 91.859375 131.074219 91.710938 C 130.328125 91.5625 129.601562 91.34375 128.894531 91.050781 C 128.191406 90.757812 127.519531 90.402344 126.886719 89.976562 C 126.25 89.554688 125.664062 89.074219 125.125 88.535156 C 124.585938 87.996094 124.101562 87.410156 123.679688 86.773438 C 123.253906 86.140625 122.898438 85.472656 122.605469 84.765625 C 122.3125 84.0625 122.09375 83.335938 121.945312 82.589844 C 121.796875 81.839844 121.71875 81.085938 121.71875 80.324219 L 121.71875 76.453125 L 129.46875 76.453125 L 129.46875 80.324219 C 129.46875 80.835938 129.566406 81.328125 129.761719 81.804688 C 129.960938 82.277344 130.238281 82.695312 130.601562 83.058594 C 130.964844 83.421875 131.386719 83.703125 131.859375 83.898438 C 132.335938 84.09375 132.828125 84.195312 133.34375 84.195312 C 133.855469 84.195312 134.351562 84.09375 134.824219 83.898438 C 135.300781 83.703125 135.71875 83.421875 136.082031 83.058594 C 136.445312 82.695312 136.722656 82.277344 136.921875 81.804688 C 137.117188 81.328125 137.214844 80.835938 137.214844 80.324219 L 137.214844 53.226562 L 144.964844 53.226562 L 144.964844 80.324219 C 144.964844 81.085938 144.890625 81.839844 144.738281 82.589844 C 144.589844 83.335938 144.371094 84.0625 144.078125 84.765625 C 143.785156 85.472656 143.429688 86.140625 143.003906 86.773438 C 142.582031 87.410156 142.097656 87.996094 141.558594 88.535156 C 141.019531 89.074219 140.433594 89.554688 139.796875 89.976562 C 139.164062 90.402344 138.496094 90.757812 137.789062 91.050781 C 137.085938 91.34375 136.359375 91.5625 135.609375 91.710938 C 134.859375 91.859375 134.105469 91.933594 133.34375 91.933594 Z M 133.34375 91.933594 " fill-opacity="1" fill-rule="nonzero"/><path fill="#ffffff" d="M 175.953125 227.417969 L 172.078125 227.417969 C 171.445312 227.417969 170.8125 227.386719 170.183594 227.324219 C 169.550781 227.261719 168.925781 227.167969 168.304688 227.042969 C 167.679688 226.917969 167.066406 226.765625 166.460938 226.582031 C 165.851562 226.394531 165.257812 226.183594 164.671875 225.941406 C 164.085938 225.695312 163.511719 225.425781 162.953125 225.128906 C 162.394531 224.828125 161.851562 224.503906 161.324219 224.148438 C 160.796875 223.796875 160.289062 223.421875 159.796875 223.019531 C 159.308594 222.617188 158.839844 222.191406 158.390625 221.742188 C 157.941406 221.296875 157.515625 220.828125 157.113281 220.335938 C 156.710938 219.847656 156.335938 219.339844 155.980469 218.8125 C 155.628906 218.285156 155.304688 217.742188 155.003906 217.183594 C 154.707031 216.625 154.433594 216.054688 154.191406 215.46875 C 153.949219 214.882812 153.734375 214.285156 153.550781 213.679688 C 153.367188 213.074219 153.210938 212.460938 153.085938 211.839844 C 152.960938 211.21875 152.867188 210.589844 152.804688 209.960938 C 152.742188 209.332031 152.710938 208.699219 152.710938 208.066406 L 152.710938 196.453125 C 152.542969 195.945312 151.71875 195.472656 151.121094 195.125 C 149.273438 194.132812 147.59375 192.90625 146.085938 191.445312 C 145.722656 191.082031 145.445312 190.664062 145.246094 190.191406 C 145.050781 189.714844 144.953125 189.222656 144.953125 188.710938 C 144.953125 188.195312 145.050781 187.703125 145.246094 187.230469 C 145.445312 186.753906 145.722656 186.335938 146.085938 185.972656 C 147.59375 184.511719 149.273438 183.289062 151.121094 182.296875 C 151.6875 182 152.214844 181.652344 152.710938 181.253906 L 152.710938 169.355469 C 152.710938 168.722656 152.742188 168.089844 152.804688 167.457031 C 152.867188 166.828125 152.960938 166.203125 153.085938 165.582031 C 153.210938 164.960938 153.367188 164.34375 153.550781 163.738281 C 153.734375 163.132812 153.949219 162.535156 154.191406 161.953125 C 154.433594 161.367188 154.707031 160.792969 155.003906 160.234375 C 155.304688 159.675781 155.628906 159.132812 155.980469 158.605469 C 156.335938 158.082031 156.710938 157.574219 157.113281 157.082031 C 157.515625 156.59375 157.941406 156.125 158.390625 155.675781 C 158.839844 155.226562 159.308594 154.800781 159.796875 154.402344 C 160.289062 154 160.796875 153.621094 161.324219 153.269531 C 161.851562 152.917969 162.394531 152.589844 162.953125 152.292969 C 163.511719 151.992188 164.085938 151.722656 164.671875 151.480469 C 165.257812 151.238281 165.851562 151.023438 166.460938 150.839844 C 167.066406 150.652344 167.679688 150.5 168.304688 150.375 C 168.925781 150.25 169.550781 150.15625 170.183594 150.09375 C 170.8125 150.03125 171.445312 150 172.078125 150 L 175.953125 150 L 175.953125 157.742188 L 172.078125 157.742188 C 171.316406 157.742188 170.5625 157.816406 169.8125 157.964844 C 169.0625 158.113281 168.335938 158.335938 167.632812 158.625 C 166.925781 158.917969 166.257812 159.277344 165.625 159.699219 C 164.988281 160.121094 164.402344 160.605469 163.863281 161.144531 C 163.324219 161.683594 162.839844 162.269531 162.417969 162.902344 C 161.992188 163.535156 161.636719 164.207031 161.34375 164.910156 C 161.050781 165.613281 160.832031 166.339844 160.683594 167.089844 C 160.53125 167.835938 160.457031 168.59375 160.457031 169.355469 L 160.457031 180.96875 C 160.460938 181.78125 160.347656 182.582031 160.121094 183.363281 C 159.890625 184.148438 159.558594 184.882812 159.117188 185.570312 C 158.679688 186.253906 158.148438 186.867188 157.535156 187.398438 C 156.917969 187.933594 156.238281 188.371094 155.496094 188.710938 C 156.238281 189.046875 156.917969 189.484375 157.535156 190.019531 C 158.148438 190.554688 158.679688 191.164062 159.117188 191.851562 C 159.558594 192.535156 159.890625 193.273438 160.121094 194.054688 C 160.347656 194.835938 160.460938 195.636719 160.457031 196.453125 L 160.457031 208.066406 C 160.457031 208.828125 160.53125 209.582031 160.683594 210.328125 C 160.832031 211.078125 161.050781 211.804688 161.34375 212.507812 C 161.636719 213.214844 161.992188 213.882812 162.417969 214.515625 C 162.839844 215.148438 163.324219 215.738281 163.863281 216.277344 C 164.402344 216.816406 164.988281 217.296875 165.625 217.71875 C 166.257812 218.144531 166.925781 218.5 167.632812 218.792969 C 168.335938 219.085938 169.0625 219.304688 169.8125 219.453125 C 170.5625 219.601562 171.316406 219.675781 172.078125 219.675781 L 175.953125 219.675781 Z M 175.953125 227.417969 " fill-opacity="1" fill-rule="nonzero"/><path fill="#ffffff" d="M 234.058594 227.417969 L 230.1875 227.417969 L 230.1875 219.675781 L 234.058594 219.675781 C 234.824219 219.675781 235.578125 219.601562 236.328125 219.453125 C 237.074219 219.304688 237.804688 219.085938 238.507812 218.792969 C 239.210938 218.5 239.882812 218.144531 240.515625 217.71875 C 241.152344 217.296875 241.738281 216.816406 242.277344 216.277344 C 242.816406 215.738281 243.300781 215.148438 243.722656 214.515625 C 244.148438 213.882812 244.503906 213.214844 244.796875 212.507812 C 245.089844 211.804688 245.308594 211.078125 245.457031 210.328125 C 245.605469 209.582031 245.683594 208.828125 245.683594 208.066406 L 245.683594 196.453125 C 245.679688 195.636719 245.792969 194.835938 246.019531 194.054688 C 246.246094 193.273438 246.582031 192.535156 247.023438 191.851562 C 247.460938 191.164062 247.992188 190.554688 248.605469 190.019531 C 249.222656 189.484375 249.902344 189.046875 250.644531 188.710938 C 249.902344 188.371094 249.222656 187.933594 248.605469 187.398438 C 247.992188 186.867188 247.460938 186.253906 247.023438 185.570312 C 246.582031 184.882812 246.246094 184.148438 246.019531 183.363281 C 245.792969 182.582031 245.679688 181.78125 245.683594 180.96875 L 245.683594 169.355469 C 245.683594 168.59375 245.605469 167.835938 245.457031 167.089844 C 245.308594 166.339844 245.089844 165.613281 244.796875 164.910156 C 244.503906 164.207031 244.148438 163.535156 243.722656 162.902344 C 243.300781 162.269531 242.816406 161.683594 242.277344 161.144531 C 241.738281 160.605469 241.152344 160.121094 240.515625 159.699219 C 239.882812 159.277344 239.210938 158.917969 238.507812 158.625 C 237.804688 158.335938 237.074219 158.113281 236.328125 157.964844 C 235.578125 157.816406 234.824219 157.742188 234.058594 157.742188 L 230.1875 157.742188 L 230.1875 150 L 234.058594 150 C 234.695312 150 235.328125 150.03125 235.957031 150.09375 C 236.589844 150.15625 237.214844 150.25 237.835938 150.375 C 238.460938 150.5 239.074219 150.652344 239.679688 150.839844 C 240.285156 151.023438 240.882812 151.238281 241.46875 151.480469 C 242.054688 151.722656 242.628906 151.992188 243.1875 152.292969 C 243.746094 152.589844 244.289062 152.917969 244.816406 153.269531 C 245.34375 153.621094 245.851562 154 246.339844 154.402344 C 246.832031 154.800781 247.300781 155.226562 247.75 155.675781 C 248.199219 156.125 248.625 156.59375 249.027344 157.082031 C 249.429688 157.574219 249.804688 158.082031 250.15625 158.605469 C 250.511719 159.132812 250.835938 159.675781 251.136719 160.234375 C 251.433594 160.792969 251.707031 161.367188 251.949219 161.953125 C 252.191406 162.535156 252.40625 163.132812 252.589844 163.738281 C 252.773438 164.34375 252.929688 164.960938 253.054688 165.582031 C 253.175781 166.203125 253.269531 166.828125 253.335938 167.457031 C 253.398438 168.089844 253.429688 168.722656 253.429688 169.355469 L 253.429688 180.96875 C 253.597656 181.476562 254.421875 181.945312 255.019531 182.296875 C 256.867188 183.289062 258.546875 184.511719 260.054688 185.972656 C 260.417969 186.335938 260.695312 186.753906 260.894531 187.230469 C 261.089844 187.703125 261.1875 188.195312 261.1875 188.710938 C 261.1875 189.222656 261.089844 189.714844 260.894531 190.191406 C 260.695312 190.664062 260.417969 191.082031 260.054688 191.445312 C 258.546875 192.90625 256.867188 194.132812 255.019531 195.125 C 254.449219 195.417969 253.917969 195.765625 253.417969 196.164062 L 253.429688 208.066406 C 253.429688 208.699219 253.398438 209.332031 253.335938 209.960938 C 253.269531 210.589844 253.175781 211.21875 253.054688 211.839844 C 252.929688 212.460938 252.773438 213.074219 252.589844 213.679688 C 252.40625 214.285156 252.191406 214.882812 251.949219 215.46875 C 251.707031 216.054688 251.433594 216.625 251.136719 217.183594 C 250.835938 217.742188 250.511719 218.285156 250.15625 218.8125 C 249.804688 219.339844 249.429688 219.847656 249.027344 220.335938 C 248.625 220.828125 248.199219 221.296875 247.75 221.742188 C 247.300781 222.191406 246.832031 222.617188 246.339844 223.019531 C 245.851562 223.421875 245.34375 223.796875 244.816406 224.148438 C 244.289062 224.503906 243.746094 224.828125 243.1875 225.128906 C 242.628906 225.425781 242.054688 225.695312 241.46875 225.941406 C 240.882812 226.183594 240.285156 226.394531 239.679688 226.582031 C 239.074219 226.765625 238.460938 226.917969 237.835938 227.042969 C 237.214844 227.167969 236.589844 227.261719 235.957031 227.324219 C 235.328125 227.386719 234.695312 227.417969 234.058594 227.417969 Z M 234.058594 227.417969 " fill-opacity="1" fill-rule="nonzero"/><path fill="#ffffff" d="M 210.816406 169.355469 C 210.816406 169.863281 210.769531 170.367188 210.667969 170.863281 C 210.570312 171.363281 210.421875 171.847656 210.226562 172.316406 C 210.035156 172.789062 209.792969 173.234375 209.511719 173.65625 C 209.230469 174.078125 208.910156 174.46875 208.546875 174.828125 C 208.1875 175.1875 207.796875 175.507812 207.375 175.792969 C 206.953125 176.074219 206.503906 176.3125 206.035156 176.507812 C 205.566406 176.703125 205.082031 176.847656 204.582031 176.949219 C 204.082031 177.046875 203.578125 177.097656 203.070312 177.097656 C 202.5625 177.097656 202.058594 177.046875 201.558594 176.949219 C 201.058594 176.847656 200.574219 176.703125 200.105469 176.507812 C 199.636719 176.3125 199.1875 176.074219 198.765625 175.792969 C 198.34375 175.507812 197.953125 175.1875 197.589844 174.828125 C 197.230469 174.46875 196.910156 174.078125 196.628906 173.65625 C 196.34375 173.234375 196.105469 172.789062 195.914062 172.316406 C 195.71875 171.847656 195.570312 171.363281 195.472656 170.863281 C 195.371094 170.367188 195.324219 169.863281 195.324219 169.355469 C 195.324219 168.847656 195.371094 168.34375 195.472656 167.84375 C 195.570312 167.347656 195.71875 166.863281 195.914062 166.390625 C 196.105469 165.921875 196.34375 165.476562 196.628906 165.054688 C 196.910156 164.632812 197.230469 164.238281 197.589844 163.878906 C 197.953125 163.519531 198.34375 163.199219 198.765625 162.917969 C 199.1875 162.636719 199.636719 162.398438 200.105469 162.203125 C 200.574219 162.007812 201.058594 161.859375 201.558594 161.761719 C 202.058594 161.664062 202.5625 161.613281 203.070312 161.613281 C 203.578125 161.613281 204.082031 161.664062 204.582031 161.761719 C 205.082031 161.859375 205.566406 162.007812 206.035156 162.203125 C 206.503906 162.398438 206.953125 162.636719 207.375 162.917969 C 207.796875 163.199219 208.1875 163.519531 208.546875 163.878906 C 208.910156 164.238281 209.230469 164.632812 209.511719 165.054688 C 209.792969 165.476562 210.035156 165.921875 210.226562 166.390625 C 210.421875 166.863281 210.570312 167.347656 210.667969 167.84375 C 210.769531 168.34375 210.816406 168.847656 210.816406 169.355469 Z M 210.816406 169.355469 " fill-opacity="1" fill-rule="nonzero"/><path fill="#ffffff" d="M 195.324219 184.839844 L 206.945312 184.839844 L 195.324219 211.933594 L 187.574219 211.933594 Z M 195.324219 184.839844 " fill-opacity="1" fill-rule="nonzero"/><path fill="#e89e00" d="M 170.375 90.230469 C 169.855469 91.082031 169.238281 91.851562 168.519531 92.542969 C 167.804688 93.230469 167.011719 93.820312 166.144531 94.308594 C 165.273438 94.796875 164.359375 95.167969 163.398438 95.421875 C 162.433594 95.675781 161.453125 95.804688 160.457031 95.804688 C 148.21875 95.804688 144.964844 88.21875 144.964844 84.195312 L 149.6875 84.195312 C 151.277344 87.910156 155.421875 91.933594 164.332031 91.933594 C 166.507812 91.9375 168.523438 91.367188 170.375 90.230469 Z M 170.375 90.230469 " fill-opacity="1" fill-rule="nonzero"/><path fill="#e89e00" d="M 168.207031 80.324219 C 168.207031 80.835938 168.109375 81.328125 167.910156 81.804688 C 167.714844 82.277344 167.433594 82.695312 167.070312 83.058594 C 166.707031 83.421875 166.289062 83.703125 165.816406 83.898438 C 165.339844 84.09375 164.847656 84.195312 164.332031 84.195312 C 164.332031 83.679688 164.234375 83.1875 164.039062 82.710938 C 163.839844 82.238281 163.5625 81.820312 163.199219 81.457031 C 162.835938 81.09375 162.414062 80.8125 161.941406 80.617188 C 161.464844 80.421875 160.972656 80.324219 160.457031 80.324219 L 156.585938 80.324219 L 156.585938 80.207031 L 155.421875 80.246094 L 155.382812 80.246094 C 154.785156 80.179688 154.195312 80.070312 153.613281 79.914062 C 153.027344 79.757812 152.460938 79.558594 151.910156 79.316406 C 151.359375 79.070312 150.832031 78.785156 150.324219 78.460938 C 149.816406 78.132812 149.339844 77.769531 148.890625 77.371094 C 148.4375 76.96875 148.023438 76.535156 147.640625 76.070312 C 147.257812 75.605469 146.914062 75.113281 146.605469 74.59375 C 146.300781 74.074219 146.039062 73.535156 145.816406 72.976562 C 145.59375 72.414062 145.414062 71.839844 145.28125 71.253906 C 145.152344 70.667969 145.0625 70.070312 145.023438 69.472656 C 144.984375 68.871094 144.992188 68.269531 145.042969 67.667969 C 145.097656 67.070312 145.195312 66.476562 145.34375 65.894531 C 145.488281 65.308594 145.679688 64.738281 145.914062 64.183594 C 146.148438 63.628906 146.421875 63.09375 146.738281 62.582031 C 147.058594 62.070312 147.414062 61.585938 147.804688 61.128906 C 148.199219 60.671875 148.625 60.25 149.082031 59.859375 C 149.542969 59.46875 150.027344 59.113281 150.542969 58.800781 C 150.003906 59.679688 149.59375 60.613281 149.308594 61.605469 C 149.019531 62.59375 148.867188 63.605469 148.847656 64.632812 C 148.832031 65.664062 148.949219 66.679688 149.199219 67.675781 C 149.453125 68.675781 149.828125 69.625 150.335938 70.523438 C 150.839844 71.421875 151.453125 72.238281 152.175781 72.972656 C 152.898438 73.710938 153.703125 74.335938 154.59375 74.859375 C 155.480469 75.378906 156.425781 75.773438 157.417969 76.042969 C 158.414062 76.316406 159.425781 76.449219 160.457031 76.453125 L 164.332031 76.453125 C 164.847656 76.453125 165.339844 76.550781 165.816406 76.746094 C 166.289062 76.941406 166.707031 77.222656 167.070312 77.585938 C 167.433594 77.949219 167.714844 78.367188 167.910156 78.839844 C 168.109375 79.316406 168.207031 79.808594 168.207031 80.324219 Z M 168.207031 80.324219 " fill-opacity="1" fill-rule="nonzero"/><path fill="#e89e00" d="M 172.078125 68.710938 L 164.332031 68.710938 C 164.292969 68.167969 163.710938 64.839844 156.585938 64.839844 C 156.585938 64.324219 156.683594 63.832031 156.878906 63.355469 C 157.074219 62.882812 157.355469 62.464844 157.71875 62.101562 C 158.082031 61.738281 158.5 61.457031 158.976562 61.261719 C 159.449219 61.066406 159.945312 60.96875 160.457031 60.96875 C 167.585938 60.96875 168.167969 64.296875 168.207031 64.839844 L 171.226562 64.839844 C 171.78125 66.070312 172.0625 67.359375 172.078125 68.710938 Z M 172.078125 68.710938 " fill-opacity="1" fill-rule="nonzero"/><path fill="#e89e00" d="M 137.214844 57.097656 L 137.214844 80.324219 C 137.214844 80.835938 137.117188 81.328125 136.921875 81.804688 C 136.722656 82.277344 136.445312 82.695312 136.082031 83.058594 C 135.71875 83.421875 135.300781 83.703125 134.824219 83.898438 C 134.351562 84.09375 133.855469 84.195312 133.34375 84.195312 L 133.34375 57.097656 Z M 137.214844 57.097656 " fill-opacity="1" fill-rule="nonzero"/><path fill="#e89e00" d="M 139.386719 90.230469 C 139.058594 90.769531 138.6875 91.273438 138.277344 91.75 C 137.867188 92.226562 137.421875 92.667969 136.941406 93.070312 C 136.457031 93.476562 135.949219 93.839844 135.40625 94.160156 C 134.867188 94.480469 134.304688 94.757812 133.71875 94.984375 C 133.132812 95.214844 132.53125 95.398438 131.917969 95.53125 C 131.304688 95.660156 130.683594 95.746094 130.054688 95.777344 C 129.425781 95.808594 128.800781 95.789062 128.175781 95.71875 C 127.550781 95.648438 126.933594 95.527344 126.328125 95.359375 C 125.722656 95.1875 125.136719 94.972656 124.566406 94.707031 C 123.996094 94.441406 123.449219 94.132812 122.929688 93.777344 C 122.410156 93.425781 121.921875 93.03125 121.464844 92.597656 C 121.011719 92.167969 120.59375 91.699219 120.210938 91.199219 C 119.832031 90.699219 119.492188 90.171875 119.199219 89.617188 C 118.90625 89.058594 118.65625 88.484375 118.457031 87.890625 C 118.253906 87.292969 118.105469 86.6875 118 86.066406 C 117.898438 85.445312 117.847656 84.820312 117.847656 84.195312 L 117.847656 80.324219 L 121.71875 80.324219 C 121.722656 81.351562 121.855469 82.363281 122.128906 83.359375 C 122.398438 84.351562 122.792969 85.296875 123.316406 86.183594 C 123.835938 87.074219 124.464844 87.878906 125.199219 88.601562 C 125.9375 89.320312 126.753906 89.933594 127.652344 90.4375 C 128.550781 90.945312 129.5 91.320312 130.5 91.574219 C 131.5 91.824219 132.515625 91.941406 133.546875 91.925781 C 134.578125 91.90625 135.589844 91.753906 136.578125 91.464844 C 137.570312 91.179688 138.503906 90.769531 139.386719 90.230469 Z M 139.386719 90.230469 " fill-opacity="1" fill-rule="nonzero"/><path fill="#e89e00" d="M 245.683594 223.546875 C 244.777344 224.75 243.75 225.832031 242.59375 226.792969 C 241.441406 227.753906 240.191406 228.570312 238.847656 229.242188 C 237.503906 229.914062 236.097656 230.421875 234.636719 230.769531 C 233.171875 231.113281 231.691406 231.289062 230.1875 231.289062 L 226.3125 231.289062 L 226.3125 223.546875 L 230.1875 223.546875 L 230.1875 227.417969 L 234.058594 227.417969 C 236.15625 227.425781 238.199219 227.101562 240.1875 226.4375 C 242.179688 225.773438 244.007812 224.8125 245.683594 223.546875 Z M 245.683594 223.546875 " fill-opacity="1" fill-rule="nonzero"/><path fill="#e89e00" d="M 246.496094 192.734375 C 245.925781 193.910156 245.65625 195.148438 245.683594 196.453125 L 245.683594 208.066406 C 245.679688 209.058594 245.550781 210.039062 245.296875 211 C 245.042969 211.960938 244.671875 212.878906 244.183594 213.746094 C 243.695312 214.613281 243.105469 215.402344 242.414062 216.121094 C 241.722656 216.835938 240.953125 217.453125 240.105469 217.972656 C 241.242188 216.121094 241.808594 214.109375 241.808594 211.933594 L 241.808594 200.324219 C 241.800781 199.535156 241.902344 198.757812 242.113281 198 C 242.328125 197.238281 242.640625 196.523438 243.054688 195.851562 C 243.46875 195.179688 243.96875 194.582031 244.554688 194.050781 C 245.140625 193.519531 245.785156 193.082031 246.496094 192.734375 Z M 246.496094 192.734375 " fill-opacity="1" fill-rule="nonzero"/><path fill="#e89e00" d="M 257.070312 193.859375 C 256.902344 194.425781 256.605469 194.914062 256.179688 195.328125 C 255.332031 196.171875 254.414062 196.933594 253.429688 197.613281 L 253.429688 196.179688 C 253.917969 195.773438 254.449219 195.425781 255.019531 195.136719 C 255.730469 194.753906 256.414062 194.328125 257.070312 193.859375 Z M 257.070312 193.859375 " fill-opacity="1" fill-rule="nonzero"/><path fill="#e89e00" d="M 250.640625 188.710938 C 248.9375 189.589844 247.59375 190.855469 246.613281 192.503906 C 245.890625 192.15625 245.230469 191.714844 244.632812 191.183594 C 244.035156 190.648438 243.527344 190.042969 243.101562 189.363281 C 242.675781 188.6875 242.351562 187.964844 242.132812 187.195312 C 241.914062 186.425781 241.804688 185.640625 241.808594 184.839844 L 241.808594 173.226562 C 241.804688 172.464844 241.730469 171.710938 241.578125 170.960938 C 241.429688 170.214844 241.207031 169.492188 240.914062 168.789062 C 240.621094 168.082031 240.261719 167.414062 239.839844 166.78125 C 239.414062 166.148438 238.933594 165.5625 238.394531 165.023438 C 237.855469 164.484375 237.269531 164.003906 236.636719 163.582031 C 236 163.15625 235.332031 162.796875 234.628906 162.507812 C 233.925781 162.214844 233.199219 161.992188 232.453125 161.839844 C 231.703125 161.691406 230.949219 161.613281 230.1875 161.613281 L 226.3125 161.613281 L 226.3125 153.871094 L 230.1875 153.871094 L 230.1875 157.742188 L 234.058594 157.742188 C 234.824219 157.746094 235.578125 157.820312 236.324219 157.972656 C 237.074219 158.121094 237.796875 158.34375 238.503906 158.636719 C 239.207031 158.929688 239.875 159.285156 240.507812 159.710938 C 241.140625 160.132812 241.730469 160.613281 242.269531 161.152344 C 242.808594 161.691406 243.289062 162.277344 243.710938 162.910156 C 244.136719 163.542969 244.496094 164.210938 244.789062 164.917969 C 245.082031 165.621094 245.300781 166.34375 245.453125 167.089844 C 245.601562 167.839844 245.679688 168.59375 245.683594 169.355469 L 245.683594 180.96875 C 245.679688 181.78125 245.792969 182.582031 246.019531 183.363281 C 246.25 184.144531 246.582031 184.878906 247.023438 185.566406 C 247.460938 186.253906 247.988281 186.863281 248.605469 187.398438 C 249.21875 187.933594 249.898438 188.371094 250.640625 188.710938 Z M 250.640625 188.710938 " fill-opacity="1" fill-rule="nonzero"/><path fill="#e89e00" d="M 172.078125 227.417969 L 172.078125 231.289062 L 168.207031 231.289062 C 167.570312 231.289062 166.9375 231.257812 166.308594 231.195312 C 165.675781 231.136719 165.050781 231.042969 164.425781 230.917969 C 163.804688 230.792969 163.191406 230.640625 162.582031 230.457031 C 161.976562 230.273438 161.378906 230.058594 160.792969 229.816406 C 160.207031 229.574219 159.636719 229.304688 159.074219 229.003906 C 158.515625 228.707031 157.972656 228.378906 157.445312 228.027344 C 156.917969 227.675781 156.410156 227.300781 155.917969 226.898438 C 155.429688 226.496094 154.957031 226.070312 154.511719 225.621094 C 154.0625 225.171875 153.636719 224.703125 153.234375 224.214844 C 152.832031 223.722656 152.453125 223.214844 152.101562 222.6875 C 151.75 222.160156 151.421875 221.617188 151.125 221.058594 C 150.824219 220.5 150.554688 219.929688 150.3125 219.34375 C 150.070312 218.757812 149.855469 218.160156 149.671875 217.554688 C 149.488281 216.949219 149.332031 216.332031 149.210938 215.710938 C 149.085938 215.089844 148.992188 214.464844 148.929688 213.832031 C 148.867188 213.203125 148.835938 212.570312 148.835938 211.933594 L 148.835938 200.324219 C 148.683594 199.820312 147.828125 199.355469 147.25 199.007812 C 145.40625 198.003906 143.726562 196.78125 142.214844 195.328125 C 141.851562 194.964844 141.570312 194.542969 141.375 194.066406 C 141.179688 193.589844 141.078125 193.09375 141.078125 192.582031 C 141.078125 192.066406 141.179688 191.570312 141.375 191.09375 C 141.570312 190.617188 141.851562 190.199219 142.214844 189.832031 C 143.136719 188.941406 144.128906 188.144531 145.195312 187.433594 C 144.9375 188.132812 144.890625 188.847656 145.050781 189.574219 C 145.214844 190.304688 145.558594 190.929688 146.085938 191.457031 C 147.601562 192.910156 149.28125 194.136719 151.121094 195.136719 C 151.703125 195.484375 152.554688 195.949219 152.710938 196.453125 L 152.710938 208.066406 C 152.710938 208.699219 152.742188 209.332031 152.804688 209.960938 C 152.867188 210.59375 152.960938 211.21875 153.082031 211.839844 C 153.207031 212.460938 153.359375 213.078125 153.546875 213.683594 C 153.730469 214.289062 153.941406 214.886719 154.183594 215.472656 C 154.429688 216.058594 154.699219 216.628906 154.996094 217.1875 C 155.296875 217.746094 155.621094 218.289062 155.976562 218.816406 C 156.328125 219.34375 156.703125 219.851562 157.109375 220.34375 C 157.511719 220.832031 157.933594 221.300781 158.382812 221.75 C 158.832031 222.199219 159.300781 222.625 159.792969 223.027344 C 160.28125 223.429688 160.792969 223.804688 161.320312 224.15625 C 161.847656 224.507812 162.390625 224.835938 162.949219 225.132812 C 163.507812 225.433594 164.082031 225.703125 164.667969 225.945312 C 165.253906 226.1875 165.851562 226.402344 166.457031 226.585938 C 167.0625 226.769531 167.679688 226.921875 168.300781 227.046875 C 168.921875 227.171875 169.550781 227.265625 170.179688 227.324219 C 170.8125 227.386719 171.445312 227.417969 172.078125 227.417969 Z M 172.078125 227.417969 " fill-opacity="1" fill-rule="nonzero"/><path fill="#e89e00" d="M 156.585938 157.742188 C 155.320312 159.414062 154.355469 161.242188 153.691406 163.230469 C 153.03125 165.21875 152.703125 167.257812 152.710938 169.355469 L 152.710938 181.238281 C 152.21875 181.644531 151.691406 181.996094 151.121094 182.285156 C 150.464844 182.671875 149.6875 183.136719 148.835938 183.675781 L 148.835938 173.226562 C 148.839844 171.722656 149.011719 170.242188 149.359375 168.78125 C 149.703125 167.316406 150.214844 165.914062 150.886719 164.570312 C 151.558594 163.230469 152.375 161.980469 153.339844 160.828125 C 154.300781 159.671875 155.382812 158.644531 156.585938 157.742188 Z M 156.585938 157.742188 " fill-opacity="1" fill-rule="nonzero"/><path fill="#e89e00" d="M 172.078125 157.742188 L 172.078125 161.613281 L 168.207031 161.613281 C 166.03125 161.613281 164.015625 162.179688 162.164062 163.316406 C 162.683594 162.46875 163.300781 161.699219 164.019531 161.007812 C 164.734375 160.316406 165.527344 159.726562 166.394531 159.238281 C 167.261719 158.75 168.179688 158.378906 169.140625 158.125 C 170.105469 157.875 171.085938 157.746094 172.078125 157.742188 Z M 172.078125 157.742188 " fill-opacity="1" fill-rule="nonzero"/><path fill="#e89e00" d="M 206.246094 176.398438 C 206.121094 176.6875 205.976562 176.964844 205.816406 177.230469 C 205.652344 177.5 205.476562 177.757812 205.285156 178.003906 C 205.09375 178.253906 204.886719 178.488281 204.664062 178.707031 C 204.445312 178.929688 204.210938 179.140625 203.964844 179.332031 C 203.71875 179.527344 203.464844 179.703125 203.195312 179.867188 C 202.929688 180.03125 202.652344 180.175781 202.367188 180.304688 C 202.082031 180.433594 201.789062 180.546875 201.492188 180.640625 C 201.191406 180.734375 200.890625 180.808594 200.582031 180.867188 C 200.273438 180.925781 199.964844 180.960938 199.652344 180.980469 C 199.339844 181 199.023438 181.003906 198.710938 180.984375 C 198.398438 180.964844 198.089844 180.929688 197.78125 180.871094 C 197.472656 180.816406 197.167969 180.742188 196.871094 180.648438 C 196.570312 180.554688 196.277344 180.445312 195.992188 180.316406 C 195.707031 180.1875 195.429688 180.042969 195.164062 179.882812 C 194.894531 179.722656 194.636719 179.542969 194.390625 179.351562 C 194.144531 179.15625 193.910156 178.949219 193.6875 178.730469 C 193.46875 178.507812 193.261719 178.273438 193.066406 178.027344 C 192.875 177.78125 192.695312 177.523438 192.535156 177.257812 C 192.371094 176.988281 192.226562 176.710938 192.097656 176.425781 C 191.972656 176.140625 191.859375 175.847656 191.769531 175.550781 C 191.675781 175.25 191.601562 174.949219 191.542969 174.640625 C 191.488281 174.332031 191.453125 174.023438 191.433594 173.710938 C 191.414062 173.398438 191.414062 173.085938 191.433594 172.773438 C 191.453125 172.460938 191.492188 172.148438 191.550781 171.84375 C 191.605469 171.535156 191.683594 171.230469 191.777344 170.933594 C 191.871094 170.632812 191.980469 170.34375 192.109375 170.058594 C 192.242188 169.773438 192.386719 169.496094 192.550781 169.230469 C 192.710938 168.960938 192.890625 168.707031 193.085938 168.460938 C 193.277344 168.214844 193.488281 167.980469 193.710938 167.761719 C 193.929688 167.539062 194.167969 167.332031 194.414062 167.140625 C 194.660156 166.949219 194.917969 166.773438 195.1875 166.613281 C 195.457031 166.453125 195.734375 166.308594 196.019531 166.179688 C 195.546875 167.1875 195.3125 168.242188 195.324219 169.355469 C 195.324219 169.863281 195.375 170.367188 195.476562 170.863281 C 195.574219 171.363281 195.722656 171.84375 195.917969 172.3125 C 196.113281 172.78125 196.351562 173.226562 196.636719 173.652344 C 196.917969 174.074219 197.238281 174.464844 197.597656 174.824219 C 197.957031 175.179688 198.347656 175.503906 198.769531 175.785156 C 199.195312 176.066406 199.640625 176.304688 200.109375 176.5 C 200.578125 176.695312 201.0625 176.84375 201.558594 176.945312 C 202.058594 177.042969 202.5625 177.09375 203.070312 177.097656 C 204.183594 177.105469 205.242188 176.875 206.246094 176.398438 Z M 206.246094 176.398438 " fill-opacity="1" fill-rule="nonzero"/><path fill="#e89e00" d="M 187.574219 211.933594 L 193.113281 211.933594 L 191.449219 215.804688 L 183.703125 215.804688 L 191.449219 188.710938 L 194.199219 188.710938 Z M 187.574219 211.933594 " fill-opacity="1" fill-rule="nonzero"/></svg>