<svg xmlns="http://www.w3.org/2000/svg" xmlns:xlink="http://www.w3.org/1999/xlink" width="500" zoomAndPan="magnify" viewBox="0 0 375 299.999988" height="400" preserveAspectRatio="xMidYMid meet" version="1.0"><defs><clipPath id="783122f67f"><path d="M 37.5 0 L 337.5 0 L 337.5 300 L 37.5 300 Z M 37.5 0 " clip-rule="nonzero"/></clipPath><clipPath id="c376a73cc6"><path d="M 43.902344 6.402344 L 331.152344 6.402344 L 331.152344 293.652344 L 43.902344 293.652344 Z M 43.902344 6.402344 " clip-rule="nonzero"/></clipPath><clipPath id="aaf71f2455"><path d="M 245 30 L 292.199219 30 L 292.199219 77 L 245 77 Z M 245 30 " clip-rule="nonzero"/></clipPath><clipPath id="53be35ac36"><path d="M 113 30 L 292.199219 30 L 292.199219 270 L 113 270 Z M 113 30 " clip-rule="nonzero"/></clipPath><clipPath id="b7ca81a2ce"><path d="M 249 76 L 292.199219 76 L 292.199219 85 L 249 85 Z M 249 76 " clip-rule="nonzero"/></clipPath><clipPath id="2402f69ac7"><path d="M 82.949219 41 L 223 41 L 223 104 L 82.949219 104 Z M 82.949219 41 " clip-rule="nonzero"/></clipPath></defs><g clip-path="url(#783122f67f)"><path fill="#155ec4" d="M 337.5 254.386719 C 337.5 279.5625 317.089844 299.972656 291.914062 299.972656 L 83.097656 299.972656 C 57.917969 299.972656 37.511719 279.5625 37.511719 254.386719 L 37.511719 45.566406 C 37.511719 20.390625 57.917969 -0.0195312 83.097656 -0.0195312 L 291.914062 -0.0195312 C 317.089844 -0.0195312 337.5 20.390625 337.5 45.566406 Z M 337.5 254.386719 " fill-opacity="1" fill-rule="nonzero"/></g><path fill="#ffffff" d="M 156.132812 107.007812 C 156.132812 107.742188 156.097656 108.476562 156.023438 109.207031 C 155.953125 109.9375 155.847656 110.660156 155.703125 111.382812 C 155.558594 112.101562 155.382812 112.8125 155.167969 113.515625 C 154.957031 114.21875 154.707031 114.90625 154.425781 115.585938 C 154.148438 116.261719 153.832031 116.925781 153.488281 117.574219 C 153.140625 118.222656 152.765625 118.851562 152.355469 119.460938 C 151.949219 120.070312 151.511719 120.660156 151.046875 121.226562 C 150.582031 121.792969 150.089844 122.335938 149.570312 122.855469 C 149.050781 123.375 148.507812 123.867188 147.941406 124.332031 C 147.371094 124.796875 146.785156 125.234375 146.171875 125.644531 C 145.5625 126.050781 144.933594 126.425781 144.289062 126.773438 C 143.640625 127.121094 142.976562 127.433594 142.300781 127.714844 C 141.621094 127.996094 140.929688 128.242188 140.226562 128.453125 C 139.527344 128.667969 138.816406 128.847656 138.09375 128.988281 C 137.375 129.132812 136.648438 129.238281 135.917969 129.3125 C 135.1875 129.382812 134.457031 129.417969 133.722656 129.417969 C 132.988281 129.417969 132.257812 129.382812 131.527344 129.3125 C 130.796875 129.238281 130.070312 129.132812 129.351562 128.988281 C 128.632812 128.847656 127.921875 128.667969 127.21875 128.453125 C 126.515625 128.242188 125.824219 127.996094 125.148438 127.714844 C 124.46875 127.433594 123.804688 127.121094 123.160156 126.773438 C 122.511719 126.425781 121.882812 126.050781 121.273438 125.644531 C 120.664062 125.234375 120.074219 124.796875 119.507812 124.332031 C 118.9375 123.867188 118.394531 123.375 117.875 122.855469 C 117.359375 122.335938 116.867188 121.792969 116.398438 121.226562 C 115.933594 120.660156 115.496094 120.070312 115.089844 119.460938 C 114.683594 118.851562 114.304688 118.222656 113.960938 117.574219 C 113.613281 116.925781 113.300781 116.261719 113.019531 115.585938 C 112.738281 114.90625 112.492188 114.21875 112.277344 113.515625 C 112.066406 112.8125 111.886719 112.101562 111.742188 111.382812 C 111.601562 110.660156 111.492188 109.9375 111.421875 109.207031 C 111.347656 108.476562 111.3125 107.742188 111.3125 107.007812 C 111.3125 106.277344 111.347656 105.542969 111.421875 104.8125 C 111.492188 104.082031 111.601562 103.355469 111.742188 102.636719 C 111.886719 101.917969 112.066406 101.207031 112.277344 100.503906 C 112.492188 99.800781 112.738281 99.113281 113.019531 98.433594 C 113.300781 97.753906 113.613281 97.09375 113.960938 96.445312 C 114.304688 95.796875 114.683594 95.167969 115.089844 94.558594 C 115.496094 93.949219 115.933594 93.359375 116.398438 92.792969 C 116.867188 92.226562 117.359375 91.683594 117.875 91.164062 C 118.394531 90.644531 118.9375 90.152344 119.507812 89.6875 C 120.074219 89.21875 120.664062 88.785156 121.273438 88.375 C 121.882812 87.96875 122.511719 87.589844 123.160156 87.246094 C 123.804688 86.898438 124.46875 86.585938 125.148438 86.304688 C 125.824219 86.023438 126.515625 85.777344 127.21875 85.5625 C 127.921875 85.351562 128.632812 85.171875 129.351562 85.03125 C 130.070312 84.886719 130.796875 84.777344 131.527344 84.707031 C 132.257812 84.636719 132.988281 84.597656 133.722656 84.597656 C 134.457031 84.597656 135.1875 84.636719 135.917969 84.707031 C 136.648438 84.777344 137.375 84.886719 138.09375 85.03125 C 138.816406 85.171875 139.527344 85.351562 140.226562 85.5625 C 140.929688 85.777344 141.621094 86.023438 142.300781 86.304688 C 142.976562 86.585938 143.640625 86.898438 144.289062 87.246094 C 144.933594 87.589844 145.5625 87.96875 146.171875 88.375 C 146.785156 88.785156 147.371094 89.21875 147.941406 89.6875 C 148.507812 90.152344 149.050781 90.644531 149.570312 91.164062 C 150.089844 91.683594 150.582031 92.226562 151.046875 92.792969 C 151.511719 93.359375 151.949219 93.949219 152.355469 94.558594 C 152.765625 95.167969 153.140625 95.796875 153.488281 96.445312 C 153.832031 97.09375 154.148438 97.753906 154.425781 98.433594 C 154.707031 99.113281 154.957031 99.800781 155.167969 100.503906 C 155.382812 101.207031 155.558594 101.917969 155.703125 102.636719 C 155.847656 103.355469 155.953125 104.082031 156.023438 104.8125 C 156.097656 105.542969 156.132812 106.277344 156.132812 107.007812 Z M 156.132812 107.007812 " fill-opacity="1" fill-rule="nonzero"/><path fill="#ffffff" d="M 114.402344 145.941406 L 152.902344 145.941406 L 152.902344 269.792969 L 114.402344 269.792969 Z M 114.402344 145.941406 " fill-opacity="1" fill-rule="nonzero"/><path fill="#ffffff" d="M 177.117188 145.941406 L 213.761719 145.941406 L 213.761719 269.792969 L 177.117188 269.792969 Z M 177.117188 145.941406 " fill-opacity="1" fill-rule="nonzero"/><path fill="#ffffff" d="M 178.703125 211.882812 L 215.34375 211.882812 L 215.34375 269.792969 L 178.703125 269.792969 Z M 178.703125 211.882812 " fill-opacity="1" fill-rule="nonzero"/><path fill="#ffffff" d="M 215.34375 211.882812 C 215.34375 211.882812 214.773438 195.820312 219.007812 187.46875 C 219.007812 187.46875 223.246094 177.179688 236.5625 177.121094 C 236.5625 177.121094 252.179688 174.394531 256.660156 189.890625 C 256.660156 189.890625 258.355469 198.484375 258.355469 202.117188 C 258.355469 205.75 258.476562 269.796875 258.476562 269.796875 L 296.855469 269.796875 L 296.855469 198.851562 C 296.855469 198.851562 299.640625 158.773438 275.585938 147.796875 C 275.585938 147.796875 236.035156 130.042969 214.570312 162.648438 C 214.570312 162.648438 209.886719 165.875 209.242188 156.835938 C 208.59375 147.796875 203.109375 170.71875 202.945312 171.207031 C 202.785156 171.6875 209.242188 216.886719 209.242188 216.886719 Z M 215.34375 211.882812 " fill-opacity="1" fill-rule="nonzero"/><g clip-path="url(#c376a73cc6)"><path fill="#ffffff" d="M 331.09375 249.925781 C 331.09375 274.027344 311.554688 293.566406 287.453125 293.566406 L 87.550781 293.566406 C 63.449219 293.566406 43.914062 274.027344 43.914062 249.925781 L 43.914062 50.023438 C 43.914062 25.921875 63.449219 6.382812 87.550781 6.382812 L 287.453125 6.382812 C 311.554688 6.382812 331.09375 25.921875 331.09375 50.023438 Z M 331.09375 249.925781 " fill-opacity="1" fill-rule="nonzero"/></g><path fill="#ffffff" d="M 157.46875 108.839844 C 157.46875 109.542969 157.433594 110.246094 157.367188 110.945312 C 157.296875 111.644531 157.195312 112.335938 157.058594 113.027344 C 156.917969 113.714844 156.75 114.398438 156.546875 115.070312 C 156.339844 115.742188 156.105469 116.402344 155.835938 117.050781 C 155.566406 117.699219 155.265625 118.335938 154.9375 118.953125 C 154.605469 119.574219 154.242188 120.175781 153.855469 120.761719 C 153.464844 121.34375 153.046875 121.910156 152.597656 122.453125 C 152.152344 122.996094 151.683594 123.515625 151.1875 124.011719 C 150.6875 124.507812 150.167969 124.980469 149.625 125.425781 C 149.082031 125.871094 148.519531 126.289062 147.933594 126.679688 C 147.351562 127.070312 146.75 127.429688 146.128906 127.761719 C 145.507812 128.09375 144.875 128.394531 144.226562 128.660156 C 143.578125 128.929688 142.914062 129.167969 142.242188 129.371094 C 141.570312 129.574219 140.890625 129.746094 140.199219 129.882812 C 139.511719 130.019531 138.816406 130.121094 138.117188 130.191406 C 137.417969 130.261719 136.71875 130.296875 136.015625 130.296875 C 135.3125 130.296875 134.613281 130.261719 133.914062 130.191406 C 133.214844 130.121094 132.519531 130.019531 131.832031 129.882812 C 131.140625 129.746094 130.460938 129.574219 129.789062 129.371094 C 129.117188 129.167969 128.457031 128.929688 127.804688 128.660156 C 127.15625 128.394531 126.523438 128.09375 125.902344 127.761719 C 125.28125 127.429688 124.679688 127.070312 124.097656 126.679688 C 123.511719 126.289062 122.949219 125.871094 122.40625 125.425781 C 121.863281 124.980469 121.34375 124.507812 120.847656 124.011719 C 120.347656 123.515625 119.878906 122.996094 119.433594 122.453125 C 118.988281 121.910156 118.570312 121.34375 118.179688 120.761719 C 117.789062 120.175781 117.425781 119.574219 117.09375 118.953125 C 116.765625 118.335938 116.464844 117.699219 116.195312 117.050781 C 115.925781 116.402344 115.691406 115.742188 115.484375 115.070312 C 115.28125 114.398438 115.113281 113.714844 114.976562 113.027344 C 114.835938 112.335938 114.734375 111.644531 114.664062 110.945312 C 114.597656 110.246094 114.5625 109.542969 114.5625 108.839844 C 114.5625 108.140625 114.597656 107.4375 114.664062 106.738281 C 114.734375 106.039062 114.835938 105.34375 114.976562 104.65625 C 115.113281 103.96875 115.28125 103.285156 115.484375 102.613281 C 115.691406 101.941406 115.925781 101.28125 116.195312 100.632812 C 116.464844 99.984375 116.765625 99.347656 117.09375 98.730469 C 117.425781 98.109375 117.789062 97.507812 118.179688 96.921875 C 118.570312 96.339844 118.988281 95.773438 119.433594 95.230469 C 119.878906 94.6875 120.347656 94.167969 120.847656 93.671875 C 121.34375 93.175781 121.863281 92.703125 122.40625 92.257812 C 122.949219 91.8125 123.511719 91.394531 124.097656 91.003906 C 124.679688 90.613281 125.28125 90.253906 125.902344 89.921875 C 126.523438 89.589844 127.15625 89.289062 127.804688 89.019531 C 128.457031 88.753906 129.117188 88.515625 129.789062 88.3125 C 130.460938 88.109375 131.140625 87.9375 131.832031 87.800781 C 132.519531 87.664062 133.214844 87.558594 133.914062 87.492188 C 134.613281 87.421875 135.3125 87.386719 136.015625 87.386719 C 136.71875 87.386719 137.417969 87.421875 138.117188 87.492188 C 138.816406 87.558594 139.511719 87.664062 140.199219 87.800781 C 140.890625 87.9375 141.570312 88.109375 142.242188 88.3125 C 142.914062 88.515625 143.578125 88.753906 144.226562 89.019531 C 144.875 89.289062 145.507812 89.589844 146.128906 89.921875 C 146.75 90.253906 147.351562 90.613281 147.933594 91.003906 C 148.519531 91.394531 149.082031 91.8125 149.625 92.257812 C 150.167969 92.703125 150.6875 93.175781 151.1875 93.671875 C 151.683594 94.167969 152.152344 94.6875 152.597656 95.230469 C 153.046875 95.773438 153.464844 96.339844 153.855469 96.921875 C 154.242188 97.507812 154.605469 98.109375 154.9375 98.730469 C 155.265625 99.347656 155.566406 99.984375 155.835938 100.632812 C 156.105469 101.28125 156.339844 101.941406 156.546875 102.613281 C 156.75 103.285156 156.917969 103.96875 157.058594 104.65625 C 157.195312 105.34375 157.296875 106.039062 157.367188 106.738281 C 157.433594 107.4375 157.46875 108.140625 157.46875 108.839844 Z M 157.46875 108.839844 " fill-opacity="1" fill-rule="nonzero"/><path fill="#ffffff" d="M 117.523438 146.109375 L 154.378906 146.109375 L 154.378906 264.675781 L 117.523438 264.675781 Z M 117.523438 146.109375 " fill-opacity="1" fill-rule="nonzero"/><path fill="#ffffff" d="M 177.558594 146.109375 L 212.636719 146.109375 L 212.636719 264.675781 L 177.558594 264.675781 Z M 177.558594 146.109375 " fill-opacity="1" fill-rule="nonzero"/><path fill="#ffffff" d="M 179.074219 209.238281 L 214.152344 209.238281 L 214.152344 264.675781 L 179.074219 264.675781 Z M 179.074219 209.238281 " fill-opacity="1" fill-rule="nonzero"/><path fill="#ffffff" d="M 214.152344 209.238281 C 214.152344 209.238281 213.605469 193.859375 217.660156 185.863281 C 217.660156 185.863281 221.714844 176.019531 234.464844 175.957031 C 234.464844 175.957031 249.417969 173.347656 253.703125 188.183594 C 253.703125 188.183594 255.328125 196.410156 255.328125 199.890625 C 255.328125 203.367188 255.441406 264.675781 255.441406 264.675781 L 292.183594 264.675781 L 292.183594 196.761719 C 292.183594 196.761719 294.847656 158.398438 271.824219 147.886719 C 271.824219 147.886719 233.960938 130.890625 213.410156 162.105469 C 213.410156 162.105469 208.929688 165.195312 208.308594 156.542969 C 207.691406 147.886719 202.4375 169.832031 202.285156 170.296875 C 202.128906 170.761719 208.308594 214.027344 208.308594 214.027344 Z M 214.152344 209.238281 " fill-opacity="1" fill-rule="nonzero"/><g clip-path="url(#aaf71f2455)"><path fill="#59caff" d="M 245.683594 30 L 292.167969 76.453125 L 245.683594 76.453125 Z M 245.683594 30 " fill-opacity="1" fill-rule="nonzero"/></g><g clip-path="url(#53be35ac36)"><path fill="#0096dc" d="M 292.167969 76.453125 L 292.167969 270 L 113.972656 270 L 113.972656 30 L 245.683594 30 L 245.683594 76.453125 Z M 292.167969 76.453125 " fill-opacity="1" fill-rule="nonzero"/></g><path fill="#006bc0" d="M 121.71875 60.96875 L 121.71875 246.773438 C 121.71875 247.789062 121.820312 248.796875 122.019531 249.792969 C 122.21875 250.792969 122.511719 251.761719 122.898438 252.699219 C 123.289062 253.640625 123.765625 254.53125 124.332031 255.375 C 124.898438 256.222656 125.539062 257.003906 126.257812 257.722656 C 126.976562 258.441406 127.761719 259.082031 128.605469 259.648438 C 129.453125 260.214844 130.347656 260.691406 131.285156 261.078125 C 132.226562 261.46875 133.195312 261.761719 134.191406 261.960938 C 135.191406 262.160156 136.199219 262.257812 137.214844 262.257812 L 268.925781 262.257812 C 269.941406 262.257812 270.949219 262.160156 271.949219 261.960938 C 272.945312 261.761719 273.914062 261.46875 274.855469 261.078125 C 275.792969 260.691406 276.6875 260.214844 277.53125 259.648438 C 278.378906 259.082031 279.160156 258.441406 279.882812 257.722656 C 280.601562 257.003906 281.242188 256.222656 281.808594 255.375 C 282.375 254.53125 282.851562 253.640625 283.238281 252.699219 C 283.628906 251.761719 283.921875 250.792969 284.121094 249.792969 C 284.320312 248.796875 284.417969 247.789062 284.417969 246.773438 L 284.417969 238.554688 C 121.71875 228.539062 121.71875 60.96875 121.71875 60.96875 Z M 121.71875 60.96875 " fill-opacity="1" fill-rule="nonzero"/><g clip-path="url(#b7ca81a2ce)"><path fill="#005599" d="M 249.554688 76.453125 L 292.167969 76.453125 L 292.167969 84.195312 L 249.554688 84.195312 Z M 249.554688 76.453125 " fill-opacity="1" fill-rule="nonzero"/></g><g clip-path="url(#2402f69ac7)"><path fill="#006bc0" d="M 82.984375 41.613281 L 222.4375 41.613281 L 222.4375 103.546875 L 82.984375 103.546875 Z M 82.984375 41.613281 " fill-opacity="1" fill-rule="nonzero"/></g><path fill="#005599" d="M 113.972656 103.546875 L 214.691406 103.546875 L 214.691406 115.160156 L 113.972656 115.160156 Z M 113.972656 103.546875 " fill-opacity="1" fill-rule="nonzero"/><path fill="#ffffff" d="M 175.953125 227.417969 L 172.078125 227.417969 C 171.445312 227.417969 170.8125 227.386719 170.183594 227.324219 C 169.550781 227.261719 168.925781 227.167969 168.304688 227.042969 C 167.679688 226.917969 167.066406 226.765625 166.460938 226.582031 C 165.851562 226.394531 165.257812 226.183594 164.671875 225.941406 C 164.085938 225.695312 163.511719 225.425781 162.953125 225.128906 C 162.394531 224.828125 161.851562 224.503906 161.324219 224.148438 C 160.796875 223.796875 160.289062 223.421875 159.796875 223.019531 C 159.308594 222.617188 158.839844 222.191406 158.390625 221.742188 C 157.941406 221.296875 157.515625 220.828125 157.113281 220.335938 C 156.710938 219.847656 156.335938 219.339844 155.980469 218.8125 C 155.628906 218.285156 155.304688 217.742188 155.003906 217.183594 C 154.707031 216.625 154.433594 216.054688 154.191406 215.46875 C 153.949219 214.882812 153.734375 214.285156 153.550781 213.679688 C 153.367188 213.074219 153.210938 212.460938 153.085938 211.839844 C 152.960938 211.21875 152.867188 210.589844 152.804688 209.960938 C 152.742188 209.332031 152.710938 208.699219 152.710938 208.066406 L 152.710938 196.453125 C 152.542969 195.945312 151.71875 195.472656 151.121094 195.125 C 149.273438 194.132812 147.59375 192.90625 146.085938 191.445312 C 145.722656 191.082031 145.445312 190.664062 145.246094 190.191406 C 145.050781 189.714844 144.953125 189.222656 144.953125 188.710938 C 144.953125 188.195312 145.050781 187.703125 145.246094 187.230469 C 145.445312 186.753906 145.722656 186.335938 146.085938 185.972656 C 147.59375 184.511719 149.273438 183.289062 151.121094 182.296875 C 151.6875 182 152.214844 181.652344 152.710938 181.253906 L 152.710938 169.355469 C 152.710938 168.722656 152.742188 168.089844 152.804688 167.457031 C 152.867188 166.828125 152.960938 166.203125 153.085938 165.582031 C 153.210938 164.960938 153.367188 164.34375 153.550781 163.738281 C 153.734375 163.132812 153.949219 162.535156 154.191406 161.953125 C 154.433594 161.367188 154.707031 160.792969 155.003906 160.234375 C 155.304688 159.675781 155.628906 159.132812 155.980469 158.605469 C 156.335938 158.082031 156.710938 157.574219 157.113281 157.082031 C 157.515625 156.59375 157.941406 156.125 158.390625 155.675781 C 158.839844 155.226562 159.308594 154.800781 159.796875 154.402344 C 160.289062 154 160.796875 153.621094 161.324219 153.269531 C 161.851562 152.917969 162.394531 152.589844 162.953125 152.292969 C 163.511719 151.992188 164.085938 151.722656 164.671875 151.480469 C 165.257812 151.238281 165.851562 151.023438 166.460938 150.839844 C 167.066406 150.652344 167.679688 150.5 168.304688 150.375 C 168.925781 150.25 169.550781 150.15625 170.183594 150.09375 C 170.8125 150.03125 171.445312 150 172.078125 150 L 175.953125 150 L 175.953125 157.742188 L 172.078125 157.742188 C 171.316406 157.742188 170.5625 157.816406 169.8125 157.964844 C 169.0625 158.113281 168.335938 158.335938 167.632812 158.625 C 166.925781 158.917969 166.257812 159.277344 165.625 159.699219 C 164.988281 160.121094 164.402344 160.605469 163.863281 161.144531 C 163.324219 161.683594 162.839844 162.269531 162.417969 162.902344 C 161.992188 163.535156 161.636719 164.207031 161.34375 164.910156 C 161.050781 165.613281 160.832031 166.339844 160.683594 167.089844 C 160.53125 167.835938 160.457031 168.59375 160.457031 169.355469 L 160.457031 180.96875 C 160.460938 181.78125 160.347656 182.582031 160.121094 183.363281 C 159.890625 184.148438 159.558594 184.882812 159.117188 185.570312 C 158.679688 186.253906 158.148438 186.867188 157.535156 187.398438 C 156.917969 187.933594 156.238281 188.371094 155.496094 188.710938 C 156.238281 189.046875 156.917969 189.484375 157.535156 190.019531 C 158.148438 190.554688 158.679688 191.164062 159.117188 191.851562 C 159.558594 192.535156 159.890625 193.273438 160.121094 194.054688 C 160.347656 194.835938 160.460938 195.636719 160.457031 196.453125 L 160.457031 208.066406 C 160.457031 208.828125 160.53125 209.582031 160.683594 210.328125 C 160.832031 211.078125 161.050781 211.804688 161.34375 212.507812 C 161.636719 213.214844 161.992188 213.882812 162.417969 214.515625 C 162.839844 215.148438 163.324219 215.738281 163.863281 216.277344 C 164.402344 216.816406 164.988281 217.296875 165.625 217.71875 C 166.257812 218.144531 166.925781 218.5 167.632812 218.792969 C 168.335938 219.085938 169.0625 219.304688 169.8125 219.453125 C 170.5625 219.601562 171.316406 219.675781 172.078125 219.675781 L 175.953125 219.675781 Z M 175.953125 227.417969 " fill-opacity="1" fill-rule="nonzero"/><path fill="#ffffff" d="M 234.058594 227.417969 L 230.1875 227.417969 L 230.1875 219.675781 L 234.058594 219.675781 C 234.824219 219.675781 235.578125 219.601562 236.328125 219.453125 C 237.074219 219.304688 237.804688 219.085938 238.507812 218.792969 C 239.210938 218.5 239.882812 218.144531 240.515625 217.71875 C 241.152344 217.296875 241.738281 216.816406 242.277344 216.277344 C 242.816406 215.738281 243.300781 215.148438 243.722656 214.515625 C 244.148438 213.882812 244.503906 213.214844 244.796875 212.507812 C 245.089844 211.804688 245.308594 211.078125 245.457031 210.328125 C 245.605469 209.582031 245.683594 208.828125 245.683594 208.066406 L 245.683594 196.453125 C 245.679688 195.636719 245.792969 194.835938 246.019531 194.054688 C 246.246094 193.273438 246.582031 192.535156 247.023438 191.851562 C 247.460938 191.164062 247.992188 190.554688 248.605469 190.019531 C 249.222656 189.484375 249.902344 189.046875 250.644531 188.710938 C 249.902344 188.371094 249.222656 187.933594 248.605469 187.398438 C 247.992188 186.867188 247.460938 186.253906 247.023438 185.570312 C 246.582031 184.882812 246.246094 184.148438 246.019531 183.363281 C 245.792969 182.582031 245.679688 181.78125 245.683594 180.96875 L 245.683594 169.355469 C 245.683594 168.59375 245.605469 167.835938 245.457031 167.089844 C 245.308594 166.339844 245.089844 165.613281 244.796875 164.910156 C 244.503906 164.207031 244.148438 163.535156 243.722656 162.902344 C 243.300781 162.269531 242.816406 161.683594 242.277344 161.144531 C 241.738281 160.605469 241.152344 160.121094 240.515625 159.699219 C 239.882812 159.277344 239.210938 158.917969 238.507812 158.625 C 237.804688 158.335938 237.074219 158.113281 236.328125 157.964844 C 235.578125 157.816406 234.824219 157.742188 234.058594 157.742188 L 230.1875 157.742188 L 230.1875 150 L 234.058594 150 C 234.695312 150 235.328125 150.03125 235.957031 150.09375 C 236.589844 150.15625 237.214844 150.25 237.835938 150.375 C 238.460938 150.5 239.074219 150.652344 239.679688 150.839844 C 240.285156 151.023438 240.882812 151.238281 241.46875 151.480469 C 242.054688 151.722656 242.628906 151.992188 243.1875 152.292969 C 243.746094 152.589844 244.289062 152.917969 244.816406 153.269531 C 245.34375 153.621094 245.851562 154 246.339844 154.402344 C 246.832031 154.800781 247.300781 155.226562 247.75 155.675781 C 248.199219 156.125 248.625 156.59375 249.027344 157.082031 C 249.429688 157.574219 249.804688 158.082031 250.15625 158.605469 C 250.511719 159.132812 250.835938 159.675781 251.136719 160.234375 C 251.433594 160.792969 251.707031 161.367188 251.949219 161.953125 C 252.191406 162.535156 252.40625 163.132812 252.589844 163.738281 C 252.773438 164.34375 252.929688 164.960938 253.054688 165.582031 C 253.175781 166.203125 253.269531 166.828125 253.335938 167.457031 C 253.398438 168.089844 253.429688 168.722656 253.429688 169.355469 L 253.429688 180.96875 C 253.597656 181.476562 254.421875 181.945312 255.019531 182.296875 C 256.867188 183.289062 258.546875 184.511719 260.054688 185.972656 C 260.417969 186.335938 260.695312 186.753906 260.894531 187.230469 C 261.089844 187.703125 261.1875 188.195312 261.1875 188.710938 C 261.1875 189.222656 261.089844 189.714844 260.894531 190.191406 C 260.695312 190.664062 260.417969 191.082031 260.054688 191.445312 C 258.546875 192.90625 256.867188 194.132812 255.019531 195.125 C 254.449219 195.417969 253.917969 195.765625 253.417969 196.164062 L 253.429688 208.066406 C 253.429688 208.699219 253.398438 209.332031 253.335938 209.960938 C 253.269531 210.589844 253.175781 211.21875 253.054688 211.839844 C 252.929688 212.460938 252.773438 213.074219 252.589844 213.679688 C 252.40625 214.285156 252.191406 214.882812 251.949219 215.46875 C 251.707031 216.054688 251.433594 216.625 251.136719 217.183594 C 250.835938 217.742188 250.511719 218.285156 250.15625 218.8125 C 249.804688 219.339844 249.429688 219.847656 249.027344 220.335938 C 248.625 220.828125 248.199219 221.296875 247.75 221.742188 C 247.300781 222.191406 246.832031 222.617188 246.339844 223.019531 C 245.851562 223.421875 245.34375 223.796875 244.816406 224.148438 C 244.289062 224.503906 243.746094 224.828125 243.1875 225.128906 C 242.628906 225.425781 242.054688 225.695312 241.46875 225.941406 C 240.882812 226.183594 240.285156 226.394531 239.679688 226.582031 C 239.074219 226.765625 238.460938 226.917969 237.835938 227.042969 C 237.214844 227.167969 236.589844 227.261719 235.957031 227.324219 C 235.328125 227.386719 234.695312 227.417969 234.058594 227.417969 Z M 234.058594 227.417969 " fill-opacity="1" fill-rule="nonzero"/><path fill="#005599" d="M 245.683594 223.546875 C 244.777344 224.75 243.75 225.832031 242.59375 226.792969 C 241.441406 227.753906 240.191406 228.570312 238.847656 229.242188 C 237.503906 229.914062 236.097656 230.421875 234.636719 230.769531 C 233.171875 231.113281 231.691406 231.289062 230.1875 231.289062 L 226.3125 231.289062 L 226.3125 223.546875 L 230.1875 223.546875 L 230.1875 227.417969 L 234.058594 227.417969 C 236.15625 227.425781 238.199219 227.101562 240.1875 226.4375 C 242.179688 225.773438 244.007812 224.8125 245.683594 223.546875 Z M 245.683594 223.546875 " fill-opacity="1" fill-rule="nonzero"/><path fill="#005599" d="M 246.496094 192.734375 C 245.925781 193.910156 245.65625 195.148438 245.683594 196.453125 L 245.683594 208.066406 C 245.679688 209.058594 245.550781 210.039062 245.296875 211 C 245.042969 211.960938 244.671875 212.878906 244.183594 213.746094 C 243.695312 214.613281 243.105469 215.402344 242.414062 216.121094 C 241.722656 216.835938 240.953125 217.453125 240.105469 217.972656 C 241.242188 216.121094 241.808594 214.109375 241.808594 211.933594 L 241.808594 200.324219 C 241.800781 199.535156 241.902344 198.757812 242.113281 198 C 242.328125 197.238281 242.640625 196.523438 243.054688 195.851562 C 243.46875 195.179688 243.96875 194.582031 244.554688 194.050781 C 245.140625 193.519531 245.785156 193.082031 246.496094 192.734375 Z M 246.496094 192.734375 " fill-opacity="1" fill-rule="nonzero"/><path fill="#005599" d="M 257.070312 193.859375 C 256.902344 194.425781 256.605469 194.914062 256.179688 195.328125 C 255.332031 196.171875 254.414062 196.933594 253.429688 197.613281 L 253.429688 196.179688 C 253.917969 195.773438 254.449219 195.425781 255.019531 195.136719 C 255.730469 194.753906 256.414062 194.328125 257.070312 193.859375 Z M 257.070312 193.859375 " fill-opacity="1" fill-rule="nonzero"/><path fill="#005599" d="M 250.640625 188.710938 C 248.9375 189.589844 247.59375 190.855469 246.613281 192.503906 C 245.890625 192.15625 245.230469 191.714844 244.632812 191.183594 C 244.035156 190.648438 243.527344 190.042969 243.101562 189.363281 C 242.675781 188.6875 242.351562 187.964844 242.132812 187.195312 C 241.914062 186.425781 241.804688 185.640625 241.808594 184.839844 L 241.808594 173.226562 C 241.804688 172.464844 241.730469 171.710938 241.578125 170.960938 C 241.429688 170.214844 241.207031 169.492188 240.914062 168.789062 C 240.621094 168.082031 240.261719 167.414062 239.839844 166.78125 C 239.414062 166.148438 238.933594 165.5625 238.394531 165.023438 C 237.855469 164.484375 237.269531 164.003906 236.636719 163.582031 C 236 163.15625 235.332031 162.796875 234.628906 162.507812 C 233.925781 162.214844 233.199219 161.992188 232.453125 161.839844 C 231.703125 161.691406 230.949219 161.613281 230.1875 161.613281 L 226.3125 161.613281 L 226.3125 153.871094 L 230.1875 153.871094 L 230.1875 157.742188 L 234.058594 157.742188 C 234.824219 157.746094 235.578125 157.820312 236.324219 157.972656 C 237.074219 158.121094 237.796875 158.34375 238.503906 158.636719 C 239.207031 158.929688 239.875 159.285156 240.507812 159.710938 C 241.140625 160.132812 241.730469 160.613281 242.269531 161.152344 C 242.808594 161.691406 243.289062 162.277344 243.710938 162.910156 C 244.136719 163.542969 244.496094 164.210938 244.789062 164.917969 C 245.082031 165.621094 245.300781 166.34375 245.453125 167.089844 C 245.601562 167.839844 245.679688 168.59375 245.683594 169.355469 L 245.683594 180.96875 C 245.679688 181.78125 245.792969 182.582031 246.019531 183.363281 C 246.25 184.144531 246.582031 184.878906 247.023438 185.566406 C 247.460938 186.253906 247.988281 186.863281 248.605469 187.398438 C 249.21875 187.933594 249.898438 188.371094 250.640625 188.710938 Z M 250.640625 188.710938 " fill-opacity="1" fill-rule="nonzero"/><path fill="#005599" d="M 172.078125 227.417969 L 172.078125 231.289062 L 168.207031 231.289062 C 167.570312 231.289062 166.9375 231.257812 166.308594 231.195312 C 165.675781 231.136719 165.050781 231.042969 164.425781 230.917969 C 163.804688 230.792969 163.191406 230.640625 162.582031 230.457031 C 161.976562 230.273438 161.378906 230.058594 160.792969 229.816406 C 160.207031 229.574219 159.636719 229.304688 159.074219 229.003906 C 158.515625 228.707031 157.972656 228.378906 157.445312 228.027344 C 156.917969 227.675781 156.410156 227.300781 155.917969 226.898438 C 155.429688 226.496094 154.957031 226.070312 154.511719 225.621094 C 154.0625 225.171875 153.636719 224.703125 153.234375 224.214844 C 152.832031 223.722656 152.453125 223.214844 152.101562 222.6875 C 151.75 222.160156 151.421875 221.617188 151.125 221.058594 C 150.824219 220.5 150.554688 219.929688 150.3125 219.34375 C 150.070312 218.757812 149.855469 218.160156 149.671875 217.554688 C 149.488281 216.949219 149.332031 216.332031 149.210938 215.710938 C 149.085938 215.089844 148.992188 214.464844 148.929688 213.832031 C 148.867188 213.203125 148.835938 212.570312 148.835938 211.933594 L 148.835938 200.324219 C 148.683594 199.820312 147.828125 199.355469 147.25 199.007812 C 145.40625 198.003906 143.726562 196.78125 142.214844 195.328125 C 141.851562 194.964844 141.570312 194.542969 141.375 194.066406 C 141.179688 193.589844 141.078125 193.09375 141.078125 192.582031 C 141.078125 192.066406 141.179688 191.570312 141.375 191.09375 C 141.570312 190.617188 141.851562 190.199219 142.214844 189.832031 C 143.136719 188.941406 144.128906 188.144531 145.195312 187.433594 C 144.9375 188.132812 144.890625 188.847656 145.050781 189.574219 C 145.214844 190.304688 145.558594 190.929688 146.085938 191.457031 C 147.601562 192.910156 149.28125 194.136719 151.121094 195.136719 C 151.703125 195.484375 152.554688 195.949219 152.710938 196.453125 L 152.710938 208.066406 C 152.710938 208.699219 152.742188 209.332031 152.804688 209.960938 C 152.867188 210.59375 152.960938 211.21875 153.082031 211.839844 C 153.207031 212.460938 153.359375 213.078125 153.546875 213.683594 C 153.730469 214.289062 153.941406 214.886719 154.183594 215.472656 C 154.429688 216.058594 154.699219 216.628906 154.996094 217.1875 C 155.296875 217.746094 155.621094 218.289062 155.976562 218.816406 C 156.328125 219.34375 156.703125 219.851562 157.109375 220.34375 C 157.511719 220.832031 157.933594 221.300781 158.382812 221.75 C 158.832031 222.199219 159.300781 222.625 159.792969 223.027344 C 160.28125 223.429688 160.792969 223.804688 161.320312 224.15625 C 161.847656 224.507812 162.390625 224.835938 162.949219 225.132812 C 163.507812 225.433594 164.082031 225.703125 164.667969 225.945312 C 165.253906 226.1875 165.851562 226.402344 166.457031 226.585938 C 167.0625 226.769531 167.679688 226.921875 168.300781 227.046875 C 168.921875 227.171875 169.550781 227.265625 170.179688 227.324219 C 170.8125 227.386719 171.445312 227.417969 172.078125 227.417969 Z M 172.078125 227.417969 " fill-opacity="1" fill-rule="nonzero"/><path fill="#005599" d="M 156.585938 157.742188 C 155.320312 159.414062 154.355469 161.242188 153.691406 163.230469 C 153.03125 165.21875 152.703125 167.257812 152.710938 169.355469 L 152.710938 181.238281 C 152.21875 181.644531 151.691406 181.996094 151.121094 182.285156 C 150.464844 182.671875 149.6875 183.136719 148.835938 183.675781 L 148.835938 173.226562 C 148.839844 171.722656 149.011719 170.242188 149.359375 168.78125 C 149.703125 167.316406 150.214844 165.914062 150.886719 164.570312 C 151.558594 163.230469 152.375 161.980469 153.339844 160.828125 C 154.300781 159.671875 155.382812 158.644531 156.585938 157.742188 Z M 156.585938 157.742188 " fill-opacity="1" fill-rule="nonzero"/><path fill="#005599" d="M 172.078125 157.742188 L 172.078125 161.613281 L 168.207031 161.613281 C 166.03125 161.613281 164.015625 162.179688 162.164062 163.316406 C 162.683594 162.46875 163.300781 161.699219 164.019531 161.007812 C 164.734375 160.316406 165.527344 159.726562 166.394531 159.238281 C 167.261719 158.75 168.179688 158.378906 169.140625 158.125 C 170.105469 157.875 171.085938 157.746094 172.078125 157.742188 Z M 172.078125 157.742188 " fill-opacity="1" fill-rule="nonzero"/><path fill="#ffffff" d="M 148.835938 91.933594 C 136.582031 91.933594 133.34375 84.339844 133.34375 80.324219 L 137.214844 80.324219 L 141.089844 80.210938 C 141.136719 80.875 141.710938 84.195312 148.835938 84.195312 C 149.351562 84.195312 149.84375 84.09375 150.320312 83.898438 C 150.792969 83.703125 151.214844 83.421875 151.578125 83.058594 C 151.941406 82.695312 152.21875 82.277344 152.417969 81.804688 C 152.613281 81.328125 152.710938 80.835938 152.710938 80.324219 C 152.710938 79.808594 152.613281 79.316406 152.417969 78.839844 C 152.21875 78.367188 151.941406 77.949219 151.578125 77.585938 C 151.214844 77.222656 150.792969 76.941406 150.320312 76.746094 C 149.84375 76.550781 149.351562 76.453125 148.835938 76.453125 L 144.964844 76.453125 C 144.199219 76.453125 143.445312 76.378906 142.695312 76.226562 C 141.949219 76.078125 141.222656 75.859375 140.515625 75.566406 C 139.8125 75.277344 139.140625 74.917969 138.507812 74.496094 C 137.871094 74.070312 137.285156 73.589844 136.746094 73.050781 C 136.207031 72.511719 135.722656 71.925781 135.300781 71.289062 C 134.875 70.65625 134.519531 69.988281 134.226562 69.28125 C 133.933594 68.578125 133.714844 67.851562 133.566406 67.105469 C 133.417969 66.355469 133.34375 65.601562 133.34375 64.839844 C 133.34375 64.078125 133.417969 63.320312 133.566406 62.574219 C 133.714844 61.824219 133.933594 61.097656 134.226562 60.394531 C 134.519531 59.691406 134.875 59.019531 135.300781 58.386719 C 135.722656 57.753906 136.207031 57.167969 136.746094 56.628906 C 137.285156 56.089844 137.871094 55.605469 138.507812 55.183594 C 139.140625 54.757812 139.8125 54.402344 140.515625 54.109375 C 141.222656 53.816406 141.949219 53.597656 142.695312 53.449219 C 143.445312 53.300781 144.199219 53.226562 144.964844 53.226562 C 157.21875 53.226562 160.457031 60.820312 160.457031 64.839844 L 152.710938 64.839844 C 152.667969 64.285156 152.09375 60.96875 144.964844 60.96875 C 144.449219 60.96875 143.957031 61.066406 143.480469 61.261719 C 143.007812 61.457031 142.585938 61.738281 142.222656 62.101562 C 141.859375 62.464844 141.582031 62.882812 141.382812 63.355469 C 141.1875 63.832031 141.089844 64.324219 141.089844 64.839844 C 141.089844 65.351562 141.1875 65.847656 141.382812 66.320312 C 141.582031 66.792969 141.859375 67.214844 142.222656 67.574219 C 142.585938 67.9375 143.007812 68.21875 143.480469 68.414062 C 143.957031 68.613281 144.449219 68.710938 144.964844 68.710938 L 148.835938 68.710938 C 149.601562 68.710938 150.355469 68.785156 151.105469 68.933594 C 151.851562 69.082031 152.578125 69.300781 153.285156 69.59375 C 153.988281 69.886719 154.660156 70.242188 155.292969 70.667969 C 155.929688 71.089844 156.515625 71.570312 157.054688 72.109375 C 157.59375 72.648438 158.074219 73.238281 158.5 73.871094 C 158.925781 74.503906 159.28125 75.175781 159.574219 75.878906 C 159.867188 76.582031 160.085938 77.308594 160.234375 78.058594 C 160.382812 78.804688 160.457031 79.558594 160.457031 80.324219 C 160.457031 81.085938 160.382812 81.839844 160.234375 82.589844 C 160.085938 83.335938 159.867188 84.0625 159.574219 84.765625 C 159.28125 85.472656 158.925781 86.140625 158.5 86.773438 C 158.074219 87.410156 157.59375 87.996094 157.054688 88.535156 C 156.515625 89.074219 155.929688 89.554688 155.292969 89.976562 C 154.660156 90.402344 153.988281 90.757812 153.285156 91.050781 C 152.578125 91.34375 151.851562 91.5625 151.105469 91.710938 C 150.355469 91.859375 149.601562 91.933594 148.835938 91.933594 Z M 148.835938 91.933594 " fill-opacity="1" fill-rule="nonzero"/><path fill="#08449e" d="M 154.878906 90.230469 C 154.359375 91.082031 153.742188 91.851562 153.023438 92.542969 C 152.308594 93.230469 151.515625 93.820312 150.648438 94.308594 C 149.78125 94.796875 148.863281 95.167969 147.902344 95.421875 C 146.9375 95.675781 145.960938 95.804688 144.964844 95.804688 C 132.722656 95.804688 129.46875 88.21875 129.46875 84.195312 L 134.195312 84.195312 C 135.78125 87.910156 139.925781 91.933594 148.835938 91.933594 C 151.011719 91.9375 153.027344 91.367188 154.878906 90.230469 Z M 154.878906 90.230469 " fill-opacity="1" fill-rule="nonzero"/><path fill="#08449e" d="M 152.710938 80.324219 C 152.710938 80.835938 152.613281 81.328125 152.417969 81.804688 C 152.21875 82.277344 151.941406 82.695312 151.578125 83.058594 C 151.214844 83.421875 150.792969 83.703125 150.320312 83.898438 C 149.84375 84.09375 149.351562 84.195312 148.835938 84.195312 C 148.835938 83.679688 148.738281 83.1875 148.542969 82.710938 C 148.34375 82.238281 148.066406 81.820312 147.703125 81.457031 C 147.339844 81.09375 146.921875 80.8125 146.445312 80.617188 C 145.972656 80.421875 145.476562 80.324219 144.964844 80.324219 L 141.089844 80.324219 L 141.089844 80.207031 L 139.925781 80.246094 L 139.890625 80.246094 C 139.289062 80.179688 138.699219 80.070312 138.117188 79.914062 C 137.535156 79.757812 136.96875 79.558594 136.417969 79.316406 C 135.863281 79.070312 135.335938 78.785156 134.828125 78.460938 C 134.324219 78.132812 133.84375 77.769531 133.394531 77.371094 C 132.945312 76.96875 132.527344 76.535156 132.144531 76.070312 C 131.761719 75.605469 131.417969 75.113281 131.113281 74.59375 C 130.804688 74.074219 130.542969 73.535156 130.320312 72.976562 C 130.097656 72.414062 129.921875 71.839844 129.789062 71.253906 C 129.65625 70.667969 129.570312 70.070312 129.527344 69.472656 C 129.488281 68.871094 129.496094 68.269531 129.546875 67.667969 C 129.601562 67.070312 129.703125 66.476562 129.847656 65.894531 C 129.992188 65.308594 130.183594 64.738281 130.417969 64.183594 C 130.652344 63.628906 130.925781 63.09375 131.246094 62.582031 C 131.5625 62.070312 131.917969 61.585938 132.308594 61.128906 C 132.703125 60.671875 133.128906 60.25 133.585938 59.859375 C 134.046875 59.46875 134.53125 59.113281 135.046875 58.800781 C 134.511719 59.679688 134.097656 60.613281 133.8125 61.605469 C 133.523438 62.59375 133.371094 63.605469 133.351562 64.632812 C 133.335938 65.664062 133.453125 66.679688 133.703125 67.675781 C 133.957031 68.675781 134.335938 69.625 134.839844 70.523438 C 135.34375 71.421875 135.957031 72.238281 136.679688 72.972656 C 137.402344 73.710938 138.207031 74.335938 139.097656 74.859375 C 139.988281 75.378906 140.929688 75.773438 141.925781 76.042969 C 142.917969 76.316406 143.933594 76.449219 144.964844 76.453125 L 148.835938 76.453125 C 149.351562 76.453125 149.84375 76.550781 150.320312 76.746094 C 150.792969 76.941406 151.214844 77.222656 151.578125 77.585938 C 151.941406 77.949219 152.21875 78.367188 152.417969 78.839844 C 152.613281 79.316406 152.710938 79.808594 152.710938 80.324219 Z M 152.710938 80.324219 " fill-opacity="1" fill-rule="nonzero"/><path fill="#08449e" d="M 156.585938 68.710938 L 148.835938 68.710938 C 148.796875 68.167969 148.21875 64.839844 141.089844 64.839844 C 141.089844 64.324219 141.1875 63.832031 141.382812 63.355469 C 141.582031 62.882812 141.859375 62.464844 142.222656 62.101562 C 142.585938 61.738281 143.007812 61.457031 143.480469 61.261719 C 143.957031 61.066406 144.449219 60.96875 144.964844 60.96875 C 152.089844 60.96875 152.671875 64.296875 152.710938 64.839844 L 155.734375 64.839844 C 156.285156 66.070312 156.566406 67.359375 156.585938 68.710938 Z M 156.585938 68.710938 " fill-opacity="1" fill-rule="nonzero"/><path fill="#ffffff" d="M 183.703125 91.933594 C 171.445312 91.933594 168.207031 84.339844 168.207031 80.324219 L 172.078125 80.324219 L 175.953125 80.210938 C 176 80.875 176.574219 84.195312 183.703125 84.195312 C 184.214844 84.195312 184.710938 84.09375 185.183594 83.898438 C 185.660156 83.703125 186.078125 83.421875 186.441406 83.058594 C 186.804688 82.695312 187.082031 82.277344 187.28125 81.804688 C 187.476562 81.328125 187.574219 80.835938 187.574219 80.324219 C 187.574219 79.808594 187.476562 79.316406 187.28125 78.839844 C 187.082031 78.367188 186.804688 77.949219 186.441406 77.585938 C 186.078125 77.222656 185.660156 76.941406 185.183594 76.746094 C 184.710938 76.550781 184.214844 76.453125 183.703125 76.453125 L 179.828125 76.453125 C 179.0625 76.453125 178.308594 76.378906 177.558594 76.226562 C 176.8125 76.078125 176.085938 75.859375 175.378906 75.566406 C 174.675781 75.277344 174.003906 74.917969 173.371094 74.496094 C 172.738281 74.070312 172.148438 73.589844 171.609375 73.050781 C 171.070312 72.511719 170.589844 71.925781 170.164062 71.289062 C 169.742188 70.65625 169.382812 69.988281 169.089844 69.28125 C 168.796875 68.578125 168.578125 67.851562 168.429688 67.105469 C 168.28125 66.355469 168.207031 65.601562 168.207031 64.839844 C 168.207031 64.078125 168.28125 63.320312 168.429688 62.574219 C 168.578125 61.824219 168.796875 61.097656 169.089844 60.394531 C 169.382812 59.691406 169.742188 59.019531 170.164062 58.386719 C 170.589844 57.753906 171.070312 57.167969 171.609375 56.628906 C 172.148438 56.089844 172.738281 55.605469 173.371094 55.183594 C 174.003906 54.757812 174.675781 54.402344 175.378906 54.109375 C 176.085938 53.816406 176.8125 53.597656 177.558594 53.449219 C 178.308594 53.300781 179.0625 53.226562 179.828125 53.226562 C 192.085938 53.226562 195.324219 60.820312 195.324219 64.839844 L 187.574219 64.839844 C 187.53125 64.285156 186.960938 60.96875 179.828125 60.96875 C 179.3125 60.96875 178.820312 61.066406 178.34375 61.261719 C 177.871094 61.457031 177.453125 61.738281 177.089844 62.101562 C 176.726562 62.464844 176.445312 62.882812 176.25 63.355469 C 176.050781 63.832031 175.953125 64.324219 175.953125 64.839844 C 175.953125 65.351562 176.050781 65.847656 176.25 66.320312 C 176.445312 66.792969 176.726562 67.214844 177.089844 67.574219 C 177.453125 67.9375 177.871094 68.21875 178.34375 68.414062 C 178.820312 68.613281 179.3125 68.710938 179.828125 68.710938 L 183.703125 68.710938 C 184.464844 68.710938 185.21875 68.785156 185.96875 68.933594 C 186.71875 69.082031 187.445312 69.300781 188.148438 69.59375 C 188.851562 69.886719 189.523438 70.242188 190.15625 70.667969 C 190.792969 71.089844 191.378906 71.570312 191.917969 72.109375 C 192.457031 72.648438 192.941406 73.238281 193.363281 73.871094 C 193.789062 74.503906 194.144531 75.175781 194.4375 75.878906 C 194.730469 76.582031 194.949219 77.308594 195.097656 78.058594 C 195.25 78.804688 195.324219 79.558594 195.324219 80.324219 C 195.324219 81.085938 195.25 81.839844 195.097656 82.589844 C 194.949219 83.335938 194.730469 84.0625 194.4375 84.765625 C 194.144531 85.472656 193.789062 86.140625 193.363281 86.773438 C 192.941406 87.410156 192.457031 87.996094 191.917969 88.535156 C 191.378906 89.074219 190.792969 89.554688 190.15625 89.976562 C 189.523438 90.402344 188.851562 90.757812 188.148438 91.050781 C 187.445312 91.34375 186.71875 91.5625 185.96875 91.710938 C 185.21875 91.859375 184.464844 91.933594 183.703125 91.933594 Z M 183.703125 91.933594 " fill-opacity="1" fill-rule="nonzero"/><path fill="#08449e" d="M 189.746094 90.230469 C 189.222656 91.082031 188.605469 91.851562 187.890625 92.542969 C 187.171875 93.230469 186.378906 93.820312 185.511719 94.308594 C 184.644531 94.796875 183.730469 95.167969 182.765625 95.421875 C 181.800781 95.675781 180.824219 95.804688 179.828125 95.804688 C 167.585938 95.804688 164.332031 88.21875 164.332031 84.195312 L 169.058594 84.195312 C 170.648438 87.910156 174.792969 91.933594 183.703125 91.933594 C 185.875 91.9375 187.890625 91.367188 189.746094 90.230469 Z M 189.746094 90.230469 " fill-opacity="1" fill-rule="nonzero"/><path fill="#08449e" d="M 187.574219 80.324219 C 187.574219 80.835938 187.476562 81.328125 187.28125 81.804688 C 187.082031 82.277344 186.804688 82.695312 186.441406 83.058594 C 186.078125 83.421875 185.660156 83.703125 185.183594 83.898438 C 184.710938 84.09375 184.214844 84.195312 183.703125 84.195312 C 183.703125 83.679688 183.601562 83.1875 183.40625 82.710938 C 183.210938 82.238281 182.929688 81.820312 182.566406 81.457031 C 182.203125 81.09375 181.785156 80.8125 181.308594 80.617188 C 180.835938 80.421875 180.339844 80.324219 179.828125 80.324219 L 175.953125 80.324219 L 175.953125 80.207031 L 174.792969 80.246094 L 174.753906 80.246094 C 174.152344 80.179688 173.5625 80.070312 172.980469 79.914062 C 172.398438 79.757812 171.832031 79.558594 171.28125 79.316406 C 170.730469 79.070312 170.199219 78.785156 169.695312 78.460938 C 169.1875 78.132812 168.707031 77.769531 168.257812 77.371094 C 167.808594 76.96875 167.390625 76.535156 167.007812 76.070312 C 166.625 75.605469 166.28125 75.113281 165.976562 74.59375 C 165.671875 74.074219 165.40625 73.535156 165.183594 72.976562 C 164.960938 72.414062 164.785156 71.839844 164.652344 71.253906 C 164.519531 70.667969 164.433594 70.070312 164.394531 69.472656 C 164.351562 68.871094 164.359375 68.269531 164.414062 67.667969 C 164.464844 67.070312 164.566406 66.476562 164.710938 65.894531 C 164.855469 65.308594 165.046875 64.738281 165.28125 64.183594 C 165.515625 63.628906 165.792969 63.09375 166.109375 62.582031 C 166.425781 62.070312 166.78125 61.585938 167.175781 61.128906 C 167.566406 60.671875 167.992188 60.25 168.453125 59.859375 C 168.910156 59.46875 169.398438 59.113281 169.910156 58.800781 C 169.375 59.679688 168.960938 60.613281 168.675781 61.605469 C 168.386719 62.59375 168.234375 63.605469 168.21875 64.632812 C 168.199219 65.664062 168.316406 66.679688 168.566406 67.675781 C 168.820312 68.675781 169.199219 69.625 169.703125 70.523438 C 170.207031 71.421875 170.820312 72.238281 171.542969 72.972656 C 172.265625 73.710938 173.070312 74.335938 173.960938 74.859375 C 174.851562 75.378906 175.792969 75.773438 176.789062 76.042969 C 177.785156 76.316406 178.796875 76.449219 179.828125 76.453125 L 183.703125 76.453125 C 184.214844 76.453125 184.710938 76.550781 185.183594 76.746094 C 185.660156 76.941406 186.078125 77.222656 186.441406 77.585938 C 186.804688 77.949219 187.082031 78.367188 187.28125 78.839844 C 187.476562 79.316406 187.574219 79.808594 187.574219 80.324219 Z M 187.574219 80.324219 " fill-opacity="1" fill-rule="nonzero"/><path fill="#08449e" d="M 191.449219 68.710938 L 183.703125 68.710938 C 183.664062 68.167969 183.082031 64.839844 175.953125 64.839844 C 175.953125 64.324219 176.050781 63.832031 176.25 63.355469 C 176.445312 62.882812 176.726562 62.464844 177.089844 62.101562 C 177.453125 61.738281 177.871094 61.457031 178.34375 61.261719 C 178.820312 61.066406 179.3125 60.96875 179.828125 60.96875 C 186.957031 60.96875 187.535156 64.296875 187.574219 64.839844 L 190.597656 64.839844 C 191.148438 66.070312 191.433594 67.359375 191.449219 68.710938 Z M 191.449219 68.710938 " fill-opacity="1" fill-rule="nonzero"/><path fill="#f2f2f2" d="M 125.59375 91.933594 L 121.71875 91.933594 C 121.085938 91.933594 120.453125 91.90625 119.820312 91.84375 C 119.191406 91.78125 118.5625 91.6875 117.941406 91.5625 C 117.320312 91.441406 116.707031 91.285156 116.097656 91.101562 C 115.492188 90.917969 114.894531 90.703125 114.308594 90.460938 C 113.722656 90.21875 113.148438 89.949219 112.589844 89.648438 C 112.03125 89.351562 111.488281 89.027344 110.960938 88.671875 C 110.433594 88.320312 109.921875 87.945312 109.433594 87.542969 C 108.941406 87.140625 108.472656 86.714844 108.023438 86.265625 C 107.574219 85.816406 107.152344 85.347656 106.75 84.859375 C 106.347656 84.371094 105.96875 83.859375 105.617188 83.332031 C 105.261719 82.804688 104.9375 82.261719 104.640625 81.703125 C 104.339844 81.144531 104.070312 80.574219 103.824219 79.988281 C 103.582031 79.402344 103.371094 78.804688 103.1875 78.199219 C 103 77.59375 102.847656 76.976562 102.722656 76.355469 C 102.601562 75.734375 102.507812 75.109375 102.445312 74.476562 C 102.382812 73.847656 102.351562 73.214844 102.351562 72.582031 C 102.351562 71.945312 102.382812 71.3125 102.445312 70.683594 C 102.507812 70.050781 102.601562 69.425781 102.722656 68.804688 C 102.847656 68.183594 103 67.570312 103.1875 66.960938 C 103.371094 66.355469 103.582031 65.757812 103.824219 65.175781 C 104.070312 64.589844 104.339844 64.015625 104.640625 63.457031 C 104.9375 62.898438 105.261719 62.355469 105.617188 61.828125 C 105.96875 61.300781 106.347656 60.792969 106.75 60.300781 C 107.152344 59.8125 107.574219 59.34375 108.023438 58.894531 C 108.472656 58.445312 108.941406 58.019531 109.433594 57.621094 C 109.921875 57.21875 110.433594 56.839844 110.960938 56.488281 C 111.488281 56.136719 112.03125 55.808594 112.589844 55.511719 C 113.148438 55.210938 113.722656 54.941406 114.308594 54.699219 C 114.894531 54.457031 115.492188 54.242188 116.097656 54.058594 C 116.707031 53.875 117.320312 53.722656 117.941406 53.597656 C 118.5625 53.472656 119.191406 53.382812 119.820312 53.320312 C 120.453125 53.257812 121.085938 53.226562 121.71875 53.226562 L 125.59375 53.226562 L 125.59375 60.96875 L 121.71875 60.96875 C 120.957031 60.96875 120.203125 61.042969 119.453125 61.191406 C 118.703125 61.339844 117.976562 61.558594 117.273438 61.851562 C 116.566406 62.144531 115.898438 62.5 115.265625 62.925781 C 114.628906 63.347656 114.042969 63.828125 113.503906 64.367188 C 112.964844 64.910156 112.480469 65.496094 112.058594 66.128906 C 111.632812 66.761719 111.277344 67.433594 110.984375 68.136719 C 110.691406 68.839844 110.472656 69.566406 110.324219 70.316406 C 110.171875 71.0625 110.097656 71.816406 110.097656 72.582031 C 110.097656 73.34375 110.171875 74.097656 110.324219 74.847656 C 110.472656 75.59375 110.691406 76.320312 110.984375 77.023438 C 111.277344 77.730469 111.632812 78.398438 112.058594 79.03125 C 112.480469 79.667969 112.964844 80.253906 113.503906 80.792969 C 114.042969 81.332031 114.628906 81.8125 115.265625 82.238281 C 115.898438 82.660156 116.566406 83.019531 117.273438 83.308594 C 117.976562 83.601562 118.703125 83.820312 119.453125 83.96875 C 120.203125 84.121094 120.957031 84.195312 121.71875 84.195312 L 125.59375 84.195312 Z M 125.59375 91.933594 " fill-opacity="1" fill-rule="nonzero"/><path fill="#08449e" d="M 121.71875 91.933594 L 121.71875 95.804688 L 117.847656 95.804688 C 116.835938 95.804688 115.832031 95.726562 114.835938 95.570312 C 113.835938 95.414062 112.859375 95.179688 111.894531 94.871094 C 110.933594 94.558594 110.003906 94.175781 109.101562 93.722656 C 108.203125 93.265625 107.339844 92.742188 106.523438 92.152344 C 105.703125 91.5625 104.933594 90.914062 104.214844 90.203125 C 103.5 89.492188 102.839844 88.730469 102.242188 87.917969 C 101.644531 87.105469 101.113281 86.25 100.648438 85.351562 C 100.183594 84.457031 99.792969 83.53125 99.472656 82.570312 C 99.152344 81.613281 98.910156 80.636719 98.742188 79.640625 C 98.578125 78.648438 98.488281 77.644531 98.480469 76.636719 C 98.46875 75.625 98.539062 74.621094 98.6875 73.625 C 98.832031 72.625 99.058594 71.644531 99.359375 70.679688 C 99.660156 69.71875 100.035156 68.78125 100.480469 67.878906 C 100.929688 66.972656 101.445312 66.109375 102.027344 65.285156 C 102.609375 64.460938 103.253906 63.6875 103.957031 62.960938 C 104.660156 62.238281 105.417969 61.574219 106.226562 60.96875 C 104.960938 62.640625 103.996094 64.46875 103.332031 66.457031 C 102.671875 68.445312 102.34375 70.484375 102.351562 72.582031 C 102.351562 73.214844 102.382812 73.847656 102.445312 74.476562 C 102.507812 75.109375 102.601562 75.734375 102.722656 76.355469 C 102.847656 76.976562 103 77.59375 103.1875 78.199219 C 103.371094 78.804688 103.582031 79.402344 103.824219 79.988281 C 104.070312 80.574219 104.339844 81.144531 104.640625 81.703125 C 104.9375 82.261719 105.261719 82.804688 105.617188 83.332031 C 105.96875 83.859375 106.347656 84.371094 106.75 84.859375 C 107.152344 85.347656 107.574219 85.816406 108.023438 86.265625 C 108.472656 86.714844 108.941406 87.140625 109.433594 87.542969 C 109.921875 87.945312 110.433594 88.320312 110.960938 88.671875 C 111.488281 89.027344 112.03125 89.351562 112.589844 89.648438 C 113.148438 89.949219 113.722656 90.21875 114.308594 90.460938 C 114.894531 90.703125 115.492188 90.917969 116.097656 91.101562 C 116.707031 91.285156 117.320312 91.441406 117.941406 91.5625 C 118.5625 91.6875 119.191406 91.78125 119.820312 91.84375 C 120.453125 91.90625 121.085938 91.933594 121.71875 91.933594 Z M 121.71875 91.933594 " fill-opacity="1" fill-rule="nonzero"/><path fill="#08449e" d="M 121.71875 60.96875 L 121.71875 64.839844 L 117.847656 64.839844 C 115.671875 64.835938 113.65625 65.40625 111.804688 66.542969 C 112.324219 65.691406 112.941406 64.921875 113.660156 64.234375 C 114.375 63.542969 115.167969 62.953125 116.035156 62.464844 C 116.902344 61.976562 117.820312 61.605469 118.78125 61.351562 C 119.746094 61.097656 120.726562 60.972656 121.71875 60.96875 Z M 121.71875 60.96875 " fill-opacity="1" fill-rule="nonzero"/></svg>