<svg xmlns="http://www.w3.org/2000/svg" xmlns:xlink="http://www.w3.org/1999/xlink" width="500" zoomAndPan="magnify" viewBox="0 0 375 299.999988" height="400" preserveAspectRatio="xMidYMid meet" version="1.0"><defs><clipPath id="6d18fd93b4"><path d="M 37.5 0 L 337.5 0 L 337.5 300 L 37.5 300 Z M 37.5 0 " clip-rule="nonzero"/></clipPath><clipPath id="dd237d8e4f"><path d="M 43.902344 6.402344 L 331.152344 6.402344 L 331.152344 293.652344 L 43.902344 293.652344 Z M 43.902344 6.402344 " clip-rule="nonzero"/></clipPath><clipPath id="21181610f9"><path d="M 61.183594 36 L 313.933594 36 L 313.933594 264 L 61.183594 264 Z M 61.183594 36 " clip-rule="nonzero"/></clipPath></defs><g clip-path="url(#6d18fd93b4)"><path fill="#155ec4" d="M 337.5 254.386719 C 337.5 279.5625 317.089844 299.972656 291.914062 299.972656 L 83.097656 299.972656 C 57.917969 299.972656 37.511719 279.5625 37.511719 254.386719 L 37.511719 45.566406 C 37.511719 20.390625 57.917969 -0.0195312 83.097656 -0.0195312 L 291.914062 -0.0195312 C 317.089844 -0.0195312 337.5 20.390625 337.5 45.566406 Z M 337.5 254.386719 " fill-opacity="1" fill-rule="nonzero"/></g><path fill="#ffffff" d="M 156.132812 107.007812 C 156.132812 107.742188 156.097656 108.476562 156.023438 109.207031 C 155.953125 109.9375 155.847656 110.660156 155.703125 111.382812 C 155.558594 112.101562 155.382812 112.8125 155.167969 113.515625 C 154.957031 114.21875 154.707031 114.90625 154.425781 115.585938 C 154.148438 116.261719 153.832031 116.925781 153.488281 117.574219 C 153.140625 118.222656 152.765625 118.851562 152.355469 119.460938 C 151.949219 120.070312 151.511719 120.660156 151.046875 121.226562 C 150.582031 121.792969 150.089844 122.335938 149.570312 122.855469 C 149.050781 123.375 148.507812 123.867188 147.941406 124.332031 C 147.371094 124.796875 146.785156 125.234375 146.171875 125.644531 C 145.5625 126.050781 144.933594 126.425781 144.289062 126.773438 C 143.640625 127.121094 142.976562 127.433594 142.300781 127.714844 C 141.621094 127.996094 140.929688 128.242188 140.226562 128.453125 C 139.527344 128.667969 138.816406 128.847656 138.09375 128.988281 C 137.375 129.132812 136.648438 129.238281 135.917969 129.3125 C 135.1875 129.382812 134.457031 129.417969 133.722656 129.417969 C 132.988281 129.417969 132.257812 129.382812 131.527344 129.3125 C 130.796875 129.238281 130.070312 129.132812 129.351562 128.988281 C 128.632812 128.847656 127.921875 128.667969 127.21875 128.453125 C 126.515625 128.242188 125.824219 127.996094 125.148438 127.714844 C 124.46875 127.433594 123.804688 127.121094 123.160156 126.773438 C 122.511719 126.425781 121.882812 126.050781 121.273438 125.644531 C 120.664062 125.234375 120.074219 124.796875 119.507812 124.332031 C 118.9375 123.867188 118.394531 123.375 117.875 122.855469 C 117.359375 122.335938 116.867188 121.792969 116.398438 121.226562 C 115.933594 120.660156 115.496094 120.070312 115.089844 119.460938 C 114.683594 118.851562 114.304688 118.222656 113.960938 117.574219 C 113.613281 116.925781 113.300781 116.261719 113.019531 115.585938 C 112.738281 114.90625 112.492188 114.21875 112.277344 113.515625 C 112.066406 112.8125 111.886719 112.101562 111.742188 111.382812 C 111.601562 110.660156 111.492188 109.9375 111.421875 109.207031 C 111.347656 108.476562 111.3125 107.742188 111.3125 107.007812 C 111.3125 106.277344 111.347656 105.542969 111.421875 104.8125 C 111.492188 104.082031 111.601562 103.355469 111.742188 102.636719 C 111.886719 101.917969 112.066406 101.207031 112.277344 100.503906 C 112.492188 99.800781 112.738281 99.113281 113.019531 98.433594 C 113.300781 97.753906 113.613281 97.09375 113.960938 96.445312 C 114.304688 95.796875 114.683594 95.167969 115.089844 94.558594 C 115.496094 93.949219 115.933594 93.359375 116.398438 92.792969 C 116.867188 92.226562 117.359375 91.683594 117.875 91.164062 C 118.394531 90.644531 118.9375 90.152344 119.507812 89.6875 C 120.074219 89.21875 120.664062 88.785156 121.273438 88.375 C 121.882812 87.96875 122.511719 87.589844 123.160156 87.246094 C 123.804688 86.898438 124.46875 86.585938 125.148438 86.304688 C 125.824219 86.023438 126.515625 85.777344 127.21875 85.5625 C 127.921875 85.351562 128.632812 85.171875 129.351562 85.03125 C 130.070312 84.886719 130.796875 84.777344 131.527344 84.707031 C 132.257812 84.636719 132.988281 84.597656 133.722656 84.597656 C 134.457031 84.597656 135.1875 84.636719 135.917969 84.707031 C 136.648438 84.777344 137.375 84.886719 138.09375 85.03125 C 138.816406 85.171875 139.527344 85.351562 140.226562 85.5625 C 140.929688 85.777344 141.621094 86.023438 142.300781 86.304688 C 142.976562 86.585938 143.640625 86.898438 144.289062 87.246094 C 144.933594 87.589844 145.5625 87.96875 146.171875 88.375 C 146.785156 88.785156 147.371094 89.21875 147.941406 89.6875 C 148.507812 90.152344 149.050781 90.644531 149.570312 91.164062 C 150.089844 91.683594 150.582031 92.226562 151.046875 92.792969 C 151.511719 93.359375 151.949219 93.949219 152.355469 94.558594 C 152.765625 95.167969 153.140625 95.796875 153.488281 96.445312 C 153.832031 97.09375 154.148438 97.753906 154.425781 98.433594 C 154.707031 99.113281 154.957031 99.800781 155.167969 100.503906 C 155.382812 101.207031 155.558594 101.917969 155.703125 102.636719 C 155.847656 103.355469 155.953125 104.082031 156.023438 104.8125 C 156.097656 105.542969 156.132812 106.277344 156.132812 107.007812 Z M 156.132812 107.007812 " fill-opacity="1" fill-rule="nonzero"/><path fill="#ffffff" d="M 114.402344 145.941406 L 152.902344 145.941406 L 152.902344 269.792969 L 114.402344 269.792969 Z M 114.402344 145.941406 " fill-opacity="1" fill-rule="nonzero"/><path fill="#ffffff" d="M 177.117188 145.941406 L 213.761719 145.941406 L 213.761719 269.792969 L 177.117188 269.792969 Z M 177.117188 145.941406 " fill-opacity="1" fill-rule="nonzero"/><path fill="#ffffff" d="M 178.703125 211.882812 L 215.34375 211.882812 L 215.34375 269.792969 L 178.703125 269.792969 Z M 178.703125 211.882812 " fill-opacity="1" fill-rule="nonzero"/><path fill="#ffffff" d="M 215.34375 211.882812 C 215.34375 211.882812 214.773438 195.820312 219.007812 187.46875 C 219.007812 187.46875 223.246094 177.179688 236.5625 177.121094 C 236.5625 177.121094 252.179688 174.394531 256.660156 189.890625 C 256.660156 189.890625 258.355469 198.484375 258.355469 202.117188 C 258.355469 205.75 258.476562 269.796875 258.476562 269.796875 L 296.855469 269.796875 L 296.855469 198.851562 C 296.855469 198.851562 299.640625 158.773438 275.585938 147.796875 C 275.585938 147.796875 236.035156 130.042969 214.570312 162.648438 C 214.570312 162.648438 209.886719 165.875 209.242188 156.835938 C 208.59375 147.796875 203.109375 170.71875 202.945312 171.207031 C 202.785156 171.6875 209.242188 216.886719 209.242188 216.886719 Z M 215.34375 211.882812 " fill-opacity="1" fill-rule="nonzero"/><g clip-path="url(#dd237d8e4f)"><path fill="#ffffff" d="M 331.09375 249.925781 C 331.09375 274.027344 311.554688 293.566406 287.453125 293.566406 L 87.550781 293.566406 C 63.449219 293.566406 43.914062 274.027344 43.914062 249.925781 L 43.914062 50.023438 C 43.914062 25.921875 63.449219 6.382812 87.550781 6.382812 L 287.453125 6.382812 C 311.554688 6.382812 331.09375 25.921875 331.09375 50.023438 Z M 331.09375 249.925781 " fill-opacity="1" fill-rule="nonzero"/></g><path fill="#ffffff" d="M 157.46875 108.839844 C 157.46875 109.542969 157.433594 110.246094 157.367188 110.945312 C 157.296875 111.644531 157.195312 112.339844 157.058594 113.027344 C 156.917969 113.714844 156.75 114.398438 156.546875 115.070312 C 156.339844 115.742188 156.105469 116.402344 155.835938 117.050781 C 155.566406 117.699219 155.265625 118.335938 154.9375 118.953125 C 154.605469 119.574219 154.242188 120.175781 153.855469 120.761719 C 153.464844 121.34375 153.046875 121.910156 152.597656 122.453125 C 152.152344 122.996094 151.683594 123.515625 151.1875 124.011719 C 150.6875 124.507812 150.167969 124.980469 149.625 125.425781 C 149.082031 125.871094 148.519531 126.289062 147.933594 126.679688 C 147.351562 127.070312 146.75 127.429688 146.128906 127.761719 C 145.507812 128.09375 144.875 128.394531 144.226562 128.660156 C 143.578125 128.929688 142.914062 129.167969 142.242188 129.371094 C 141.570312 129.574219 140.890625 129.746094 140.199219 129.882812 C 139.511719 130.019531 138.816406 130.121094 138.117188 130.191406 C 137.417969 130.261719 136.71875 130.296875 136.015625 130.296875 C 135.3125 130.296875 134.613281 130.261719 133.914062 130.191406 C 133.214844 130.121094 132.519531 130.019531 131.832031 129.882812 C 131.140625 129.746094 130.460938 129.574219 129.789062 129.371094 C 129.117188 129.167969 128.457031 128.929688 127.804688 128.660156 C 127.15625 128.394531 126.523438 128.09375 125.902344 127.761719 C 125.28125 127.429688 124.679688 127.070312 124.097656 126.679688 C 123.511719 126.289062 122.949219 125.871094 122.40625 125.425781 C 121.863281 124.980469 121.34375 124.507812 120.847656 124.011719 C 120.347656 123.515625 119.878906 122.996094 119.433594 122.453125 C 118.988281 121.910156 118.570312 121.34375 118.179688 120.761719 C 117.789062 120.175781 117.425781 119.574219 117.09375 118.953125 C 116.765625 118.335938 116.464844 117.699219 116.195312 117.050781 C 115.925781 116.402344 115.691406 115.742188 115.484375 115.070312 C 115.28125 114.398438 115.113281 113.714844 114.976562 113.027344 C 114.835938 112.339844 114.734375 111.644531 114.664062 110.945312 C 114.597656 110.246094 114.5625 109.542969 114.5625 108.839844 C 114.5625 108.140625 114.597656 107.4375 114.664062 106.738281 C 114.734375 106.039062 114.835938 105.34375 114.976562 104.65625 C 115.113281 103.96875 115.28125 103.285156 115.484375 102.613281 C 115.691406 101.941406 115.925781 101.28125 116.195312 100.632812 C 116.464844 99.984375 116.765625 99.347656 117.09375 98.730469 C 117.425781 98.109375 117.789062 97.507812 118.179688 96.921875 C 118.570312 96.339844 118.988281 95.773438 119.433594 95.230469 C 119.878906 94.6875 120.347656 94.167969 120.847656 93.671875 C 121.34375 93.175781 121.863281 92.703125 122.40625 92.257812 C 122.949219 91.8125 123.511719 91.394531 124.097656 91.003906 C 124.679688 90.613281 125.28125 90.253906 125.902344 89.921875 C 126.523438 89.589844 127.15625 89.289062 127.804688 89.019531 C 128.457031 88.753906 129.117188 88.515625 129.789062 88.3125 C 130.460938 88.109375 131.140625 87.9375 131.832031 87.800781 C 132.519531 87.664062 133.214844 87.5625 133.914062 87.492188 C 134.613281 87.421875 135.3125 87.386719 136.015625 87.386719 C 136.71875 87.386719 137.417969 87.421875 138.117188 87.492188 C 138.816406 87.5625 139.511719 87.664062 140.199219 87.800781 C 140.890625 87.9375 141.570312 88.109375 142.242188 88.3125 C 142.914062 88.515625 143.578125 88.753906 144.226562 89.019531 C 144.875 89.289062 145.507812 89.589844 146.128906 89.921875 C 146.75 90.253906 147.351562 90.613281 147.933594 91.003906 C 148.519531 91.394531 149.082031 91.8125 149.625 92.257812 C 150.167969 92.703125 150.6875 93.175781 151.1875 93.671875 C 151.683594 94.167969 152.152344 94.6875 152.597656 95.230469 C 153.046875 95.773438 153.464844 96.339844 153.855469 96.921875 C 154.242188 97.507812 154.605469 98.109375 154.9375 98.730469 C 155.265625 99.347656 155.566406 99.984375 155.835938 100.632812 C 156.105469 101.28125 156.339844 101.941406 156.546875 102.613281 C 156.75 103.285156 156.917969 103.96875 157.058594 104.65625 C 157.195312 105.34375 157.296875 106.039062 157.367188 106.738281 C 157.433594 107.4375 157.46875 108.140625 157.46875 108.839844 Z M 157.46875 108.839844 " fill-opacity="1" fill-rule="nonzero"/><path fill="#ffffff" d="M 117.523438 146.109375 L 154.378906 146.109375 L 154.378906 264.675781 L 117.523438 264.675781 Z M 117.523438 146.109375 " fill-opacity="1" fill-rule="nonzero"/><path fill="#ffffff" d="M 177.558594 146.109375 L 212.636719 146.109375 L 212.636719 264.675781 L 177.558594 264.675781 Z M 177.558594 146.109375 " fill-opacity="1" fill-rule="nonzero"/><path fill="#ffffff" d="M 179.074219 209.238281 L 214.152344 209.238281 L 214.152344 264.675781 L 179.074219 264.675781 Z M 179.074219 209.238281 " fill-opacity="1" fill-rule="nonzero"/><path fill="#ffffff" d="M 214.152344 209.238281 C 214.152344 209.238281 213.605469 193.859375 217.660156 185.863281 C 217.660156 185.863281 221.714844 176.019531 234.464844 175.957031 C 234.464844 175.957031 249.417969 173.347656 253.703125 188.183594 C 253.703125 188.183594 255.328125 196.410156 255.328125 199.890625 C 255.328125 203.367188 255.441406 264.675781 255.441406 264.675781 L 292.183594 264.675781 L 292.183594 196.761719 C 292.183594 196.761719 294.847656 158.398438 271.824219 147.886719 C 271.824219 147.886719 233.960938 130.890625 213.410156 162.105469 C 213.410156 162.105469 208.929688 165.195312 208.308594 156.542969 C 207.691406 147.886719 202.4375 169.832031 202.285156 170.296875 C 202.128906 170.761719 208.308594 214.027344 208.308594 214.027344 Z M 214.152344 209.238281 " fill-opacity="1" fill-rule="nonzero"/><path fill="#98ccfd" d="M 209.675781 150 C 209.675781 162.21875 199.785156 172.105469 187.558594 172.105469 C 175.332031 172.105469 165.445312 162.21875 165.445312 150 C 165.445312 137.78125 175.332031 127.894531 187.558594 127.894531 C 199.785156 127.894531 209.675781 137.78125 209.675781 150 Z M 209.675781 150 " fill-opacity="1" fill-rule="nonzero"/><path fill="#4788c7" d="M 187.558594 175.261719 C 173.621094 175.261719 162.285156 163.933594 162.285156 150 C 162.285156 136.066406 173.621094 124.738281 187.558594 124.738281 C 201.5 124.738281 212.835938 136.066406 212.835938 150 C 212.835938 163.933594 201.5 175.261719 187.558594 175.261719 Z M 187.558594 131.054688 C 177.109375 131.054688 168.601562 139.554688 168.601562 150 C 168.601562 160.445312 177.109375 168.945312 187.558594 168.945312 C 198.011719 168.945312 206.515625 160.445312 206.515625 150 C 206.515625 139.554688 198.011719 131.054688 187.558594 131.054688 Z M 187.558594 131.054688 " fill-opacity="1" fill-rule="nonzero"/><path fill="#98ccfd" d="M 310.773438 150 C 310.773438 132.339844 292.375 116.957031 263.433594 107.136719 C 267.074219 90.269531 267.574219 75.210938 264.484375 63.679688 C 261.90625 54.066406 257.019531 47.152344 249.976562 43.136719 C 245.734375 40.722656 240.890625 39.492188 235.574219 39.492188 C 221.628906 39.492188 204.65625 48.339844 187.570312 63.433594 C 170.472656 48.332031 153.496094 39.476562 139.535156 39.476562 C 134.214844 39.476562 129.375 40.703125 125.136719 43.121094 C 118.089844 47.144531 113.199219 54.066406 110.628906 63.6875 C 107.539062 75.21875 108.039062 90.273438 111.671875 107.136719 C 82.742188 116.957031 64.34375 132.347656 64.34375 150 C 64.34375 167.652344 82.742188 183.042969 111.675781 192.855469 C 108.039062 209.71875 107.539062 224.777344 110.632812 236.308594 C 113.207031 245.933594 118.097656 252.847656 125.148438 256.878906 C 129.390625 259.289062 134.234375 260.523438 139.550781 260.523438 C 139.554688 260.523438 139.550781 260.523438 139.554688 260.523438 C 153.507812 260.523438 170.480469 251.671875 187.566406 236.566406 C 204.652344 251.65625 221.625 260.496094 235.570312 260.503906 C 235.574219 260.503906 235.574219 260.503906 235.574219 260.503906 C 240.894531 260.503906 245.734375 259.277344 249.980469 256.859375 C 257.019531 252.84375 261.90625 245.925781 264.476562 236.3125 C 267.566406 224.78125 267.066406 209.726562 263.433594 192.863281 C 292.367188 183.050781 310.773438 167.65625 310.773438 150 Z M 243.71875 54.113281 C 247.726562 56.398438 250.609375 60.71875 252.277344 66.949219 C 254.808594 76.398438 254.308594 89.113281 251.277344 103.519531 C 241.191406 100.882812 230.152344 98.882812 218.371094 97.59375 C 211.355469 88.109375 204.03125 79.5625 196.632812 72.074219 C 211.777344 58.890625 225.6875 52.128906 235.574219 52.128906 C 238.671875 52.128906 241.40625 52.796875 243.71875 54.113281 Z M 224.105469 170.757812 C 219.980469 177.8125 215.742188 184.351562 211.449219 190.457031 C 203.835938 191.121094 195.863281 191.480469 187.554688 191.480469 C 179.238281 191.480469 171.261719 191.113281 163.644531 190.457031 C 159.351562 184.351562 155.113281 177.8125 150.984375 170.757812 C 146.96875 163.875 143.328125 156.921875 140.046875 150 C 143.328125 143.085938 146.96875 136.125 150.992188 129.242188 C 155.117188 122.1875 159.363281 115.648438 163.65625 109.535156 C 171.269531 108.875 179.25 108.511719 187.558594 108.511719 C 195.867188 108.511719 203.84375 108.875 211.449219 109.535156 C 215.742188 115.648438 219.980469 122.179688 224.105469 129.234375 C 228.132812 136.117188 231.777344 143.078125 235.058594 149.992188 C 231.777344 156.921875 228.132812 163.875 224.105469 170.757812 Z M 241.636719 165.105469 C 244.226562 171.648438 246.410156 178.066406 248.214844 184.273438 C 241.957031 185.902344 235.214844 187.292969 228.03125 188.410156 C 230.414062 184.734375 232.757812 180.996094 235.019531 177.125 C 237.355469 173.132812 239.539062 169.125 241.636719 165.105469 Z M 187.558594 219.363281 C 182.953125 214.703125 178.289062 209.535156 173.625 203.765625 C 178.199219 203.980469 182.832031 204.113281 187.558594 204.113281 C 192.28125 204.113281 196.910156 203.980469 201.480469 203.765625 C 196.824219 209.535156 192.164062 214.707031 187.558594 219.363281 Z M 147.074219 188.410156 C 139.898438 187.292969 133.15625 185.902344 126.898438 184.273438 C 128.699219 178.066406 130.878906 171.65625 133.472656 165.113281 C 135.570312 169.125 137.75 173.140625 140.082031 177.132812 C 142.34375 180.996094 144.691406 184.734375 147.074219 188.410156 Z M 133.472656 134.886719 C 130.878906 128.34375 128.699219 121.933594 126.898438 115.726562 C 133.15625 114.097656 139.898438 112.707031 147.082031 111.589844 C 144.699219 115.265625 142.347656 119.003906 140.085938 122.867188 C 137.75 126.867188 135.570312 130.875 133.472656 134.886719 Z M 187.566406 80.644531 C 192.171875 85.296875 196.828125 90.464844 201.480469 96.234375 C 196.910156 96.019531 192.28125 95.886719 187.558594 95.886719 C 182.839844 95.886719 178.207031 96.019531 173.640625 96.234375 C 178.296875 90.464844 182.960938 85.296875 187.566406 80.644531 Z M 235.019531 122.867188 C 232.757812 118.996094 230.414062 115.257812 228.03125 111.582031 C 235.214844 112.699219 241.957031 114.089844 248.210938 115.71875 C 246.410156 121.933594 244.226562 128.34375 241.636719 134.894531 C 239.539062 130.882812 237.355469 126.867188 235.019531 122.867188 Z M 122.835938 66.957031 C 124.511719 60.710938 127.390625 56.386719 131.398438 54.09375 C 133.710938 52.777344 136.445312 52.109375 139.535156 52.109375 C 149.4375 52.109375 163.347656 58.878906 178.5 72.074219 C 171.09375 79.570312 163.761719 88.109375 156.742188 97.601562 C 144.957031 98.886719 133.917969 100.898438 123.835938 103.53125 C 120.800781 89.113281 120.300781 76.398438 122.835938 66.957031 Z M 76.980469 150 C 76.980469 139.082031 91.078125 127.480469 114.785156 119.324219 C 117.640625 129.210938 121.453125 139.527344 126.140625 150 C 121.453125 160.472656 117.640625 170.789062 114.785156 180.675781 C 91.078125 172.519531 76.980469 160.917969 76.980469 150 Z M 139.542969 247.890625 C 136.445312 247.890625 133.703125 247.222656 131.40625 245.914062 C 127.386719 243.621094 124.503906 239.296875 122.835938 233.050781 C 120.300781 223.601562 120.800781 210.886719 123.835938 196.480469 C 133.917969 199.117188 144.953125 201.117188 156.738281 202.40625 C 163.757812 211.898438 171.085938 220.445312 178.5 227.941406 C 163.347656 241.125 149.4375 247.890625 139.542969 247.890625 Z M 252.269531 233.050781 C 250.59375 239.28125 247.71875 243.601562 243.714844 245.886719 C 241.40625 247.203125 238.664062 247.871094 235.570312 247.871094 C 225.675781 247.871094 211.765625 241.109375 196.621094 227.933594 C 204.027344 220.4375 211.347656 211.890625 218.363281 202.40625 C 230.148438 201.117188 241.179688 199.109375 251.265625 196.480469 C 254.304688 210.886719 254.804688 223.601562 252.269531 233.050781 Z M 260.320312 180.679688 C 257.464844 170.796875 253.652344 160.476562 248.964844 150 C 253.652344 139.523438 257.464844 129.203125 260.320312 119.320312 C 284.035156 127.472656 298.136719 139.082031 298.136719 150 C 298.136719 160.917969 284.035156 172.527344 260.320312 180.679688 Z M 260.320312 180.679688 " fill-opacity="1" fill-rule="nonzero"/><g clip-path="url(#21181610f9)"><path fill="#4788c7" d="M 139.550781 263.679688 C 133.671875 263.679688 128.300781 262.316406 123.574219 259.625 C 115.757812 255.152344 110.375 247.585938 107.578125 237.121094 C 104.59375 225.996094 104.757812 211.457031 108.019531 194.921875 C 78.207031 184.230469 61.183594 167.949219 61.183594 150 C 61.183594 132.050781 78.207031 115.769531 108.019531 105.070312 C 104.753906 88.542969 104.59375 74 107.578125 62.871094 C 110.375 52.414062 115.757812 44.847656 123.570312 40.382812 C 139.492188 31.300781 162.605469 37.898438 187.566406 59.253906 C 212.519531 37.917969 235.613281 31.324219 251.542969 40.394531 C 259.347656 44.847656 264.730469 52.40625 267.535156 62.863281 C 270.519531 74 270.355469 88.542969 267.085938 105.070312 C 296.90625 115.761719 313.933594 132.050781 313.933594 150 C 313.933594 167.949219 296.90625 184.238281 267.085938 194.933594 C 270.359375 211.460938 270.511719 226 267.53125 237.136719 C 264.730469 247.59375 259.351562 255.152344 251.550781 259.605469 C 235.605469 268.6875 212.492188 262.074219 187.558594 240.753906 C 170.019531 255.765625 153.464844 263.679688 139.550781 263.679688 Z M 139.535156 42.636719 C 134.777344 42.636719 130.457031 43.722656 126.703125 45.863281 C 120.410156 49.464844 116.03125 55.734375 113.6875 64.5 C 110.792969 75.28125 111.171875 89.792969 114.765625 106.472656 L 115.359375 109.226562 L 112.695312 110.136719 C 83.96875 119.875 67.503906 134.40625 67.503906 150 C 67.503906 165.59375 83.96875 180.125 112.6875 189.871094 L 115.355469 190.78125 L 114.761719 193.53125 C 111.164062 210.210938 110.785156 224.726562 113.679688 235.507812 C 116.023438 244.277344 120.402344 250.550781 126.710938 254.148438 C 130.46875 256.277344 134.785156 257.363281 139.542969 257.363281 L 139.550781 257.363281 C 152.261719 257.363281 168.566406 249.140625 185.46875 234.203125 L 187.558594 232.355469 L 189.652344 234.203125 C 206.546875 249.121094 222.855469 257.34375 235.570312 257.34375 C 240.332031 257.34375 244.65625 256.257812 248.421875 254.117188 C 254.703125 250.53125 259.082031 244.265625 261.425781 235.5 C 264.320312 224.71875 263.941406 210.210938 260.34375 193.53125 L 259.75 190.78125 L 262.417969 189.871094 C 291.140625 180.132812 307.617188 165.59375 307.617188 150 C 307.617188 134.402344 291.140625 119.867188 262.417969 110.128906 L 259.75 109.21875 L 260.351562 106.46875 C 263.945312 89.789062 264.324219 75.273438 261.433594 64.492188 C 259.082031 55.722656 254.703125 49.464844 248.410156 45.875 C 244.648438 43.734375 240.332031 42.648438 235.574219 42.648438 C 222.867188 42.648438 206.566406 50.871094 189.65625 65.800781 L 187.566406 67.652344 L 185.472656 65.800781 C 168.566406 50.863281 152.257812 42.636719 139.535156 42.636719 Z M 139.542969 251.046875 C 135.898438 251.046875 132.628906 250.246094 129.84375 248.65625 C 125.066406 245.925781 121.679688 240.949219 119.777344 233.863281 C 117.199219 224.21875 117.535156 211.066406 120.738281 195.832031 L 121.421875 192.59375 L 124.625 193.425781 C 134.675781 196.046875 145.582031 198.015625 157.070312 199.265625 L 158.441406 199.417969 L 159.269531 200.523438 C 166.050781 209.6875 173.277344 218.164062 180.734375 225.71875 L 183.097656 228.109375 L 180.5625 230.320312 C 165.214844 243.683594 150.644531 251.046875 139.542969 251.046875 Z M 126.285156 200.355469 C 123.328125 213.238281 123.242188 224.207031 125.886719 232.226562 C 127.644531 237.539062 129.710938 241.308594 132.972656 243.167969 C 141.148438 247.832031 157.066406 241.667969 173.871094 227.71875 C 167.34375 220.898438 161.015625 213.402344 155.019531 205.386719 C 144.953125 204.238281 135.304688 202.546875 126.285156 200.355469 Z M 235.574219 251.03125 C 224.472656 251.03125 209.902344 243.671875 194.558594 230.316406 L 192.027344 228.109375 L 194.390625 225.71875 C 201.878906 218.125 209.09375 209.65625 215.835938 200.53125 L 216.65625 199.417969 L 218.035156 199.265625 C 229.527344 198.011719 240.453125 196.046875 250.492188 193.425781 L 253.703125 192.59375 L 254.378906 195.832031 C 257.582031 211.078125 257.917969 224.226562 255.335938 233.863281 C 253.433594 240.945312 250.050781 245.914062 245.292969 248.628906 C 242.488281 250.226562 239.222656 251.03125 235.574219 251.03125 Z M 201.246094 227.71875 C 218.054688 241.65625 233.917969 247.828125 242.160156 243.148438 C 245.402344 241.304688 247.460938 237.53125 249.21875 232.234375 C 251.882812 224.207031 251.777344 213.238281 248.824219 200.359375 C 239.808594 202.550781 230.160156 204.238281 220.082031 205.394531 C 214.125 213.375 207.796875 220.867188 201.246094 227.71875 Z M 187.558594 223.859375 L 185.316406 221.585938 C 180.433594 216.648438 175.671875 211.324219 171.175781 205.746094 L 166.75 200.273438 L 173.777344 200.605469 C 182.820312 201.035156 192.296875 201.035156 201.335938 200.605469 L 208.355469 200.273438 L 203.945312 205.742188 C 199.457031 211.292969 194.707031 216.621094 189.808594 221.574219 Z M 180.597656 207.179688 C 182.863281 209.8125 185.195312 212.371094 187.558594 214.835938 C 189.921875 212.359375 192.242188 209.808594 194.515625 207.179688 C 189.910156 207.300781 185.203125 207.300781 180.597656 207.179688 Z M 187.558594 194.636719 C 179.445312 194.636719 171.3125 194.289062 163.378906 193.601562 L 161.910156 193.476562 L 161.066406 192.269531 C 156.507812 185.785156 152.207031 179.078125 148.269531 172.351562 C 144.359375 165.648438 140.628906 158.589844 137.191406 151.351562 L 136.546875 150 L 137.191406 148.648438 C 140.628906 141.410156 144.359375 134.34375 148.269531 127.648438 C 152.25 120.839844 156.4375 114.328125 161.078125 107.722656 L 161.925781 106.523438 L 163.390625 106.398438 C 179.238281 105.019531 195.882812 105.019531 211.722656 106.398438 L 213.1875 106.523438 L 214.035156 107.730469 C 218.683594 114.363281 222.875 120.878906 226.832031 127.648438 C 230.78125 134.40625 234.507812 141.46875 237.90625 148.65625 L 238.546875 150 L 237.90625 151.351562 C 234.507812 158.53125 230.78125 165.597656 226.832031 172.355469 C 222.875 179.128906 218.683594 185.644531 214.035156 192.277344 L 213.1875 193.480469 L 211.722656 193.609375 C 203.796875 194.289062 195.671875 194.636719 187.558594 194.636719 Z M 165.386719 187.4375 C 179.976562 188.621094 195.148438 188.621094 209.710938 187.4375 C 213.925781 181.371094 217.75 175.375 221.382812 169.167969 C 224.992188 162.996094 228.410156 156.554688 231.558594 150 C 228.410156 143.445312 224.992188 137.003906 221.382812 130.832031 C 217.757812 124.625 213.925781 118.628906 209.710938 112.5625 C 195.140625 111.378906 179.945312 111.378906 165.398438 112.5625 C 161.199219 118.613281 157.367188 124.597656 153.714844 130.839844 C 150.144531 136.953125 146.722656 143.394531 143.542969 150 C 146.722656 156.601562 150.140625 163.042969 153.714844 169.167969 C 157.324219 175.324219 161.246094 181.464844 165.386719 187.4375 Z M 221.535156 192.625 L 225.371094 186.699219 C 227.726562 183.0625 230.046875 179.359375 232.289062 175.539062 C 234.601562 171.585938 236.757812 167.613281 238.828125 163.648438 L 242.027344 157.535156 L 244.566406 163.949219 C 247.125 170.410156 249.375 176.960938 251.246094 183.410156 L 252.148438 186.527344 L 249.007812 187.34375 C 242.582031 189.011719 235.695312 190.425781 228.515625 191.542969 Z M 241.136719 172.734375 C 240.035156 174.730469 238.90625 176.734375 237.742188 178.730469 C 236.679688 180.546875 235.59375 182.335938 234.5 184.105469 C 237.835938 183.472656 241.085938 182.785156 244.230469 182.027344 C 243.285156 178.929688 242.246094 175.832031 241.136719 172.734375 Z M 153.570312 192.625 L 146.589844 191.539062 C 139.410156 190.417969 132.515625 189.003906 126.109375 187.335938 L 122.96875 186.523438 L 123.871094 183.410156 C 125.730469 176.984375 127.972656 170.441406 130.546875 163.957031 L 133.085938 157.535156 L 136.28125 163.660156 C 138.347656 167.625 140.503906 171.59375 142.816406 175.546875 C 145.054688 179.367188 147.378906 183.066406 149.734375 186.707031 Z M 130.875 182.011719 C 134.007812 182.765625 137.253906 183.460938 140.585938 184.089844 C 139.492188 182.328125 138.410156 180.542969 137.351562 178.722656 C 136.179688 176.734375 135.0625 174.738281 133.964844 172.734375 C 132.851562 175.84375 131.820312 178.9375 130.875 182.011719 Z M 258.203125 184.746094 L 257.28125 181.558594 C 254.460938 171.78125 250.691406 161.601562 246.082031 151.292969 L 245.503906 150 L 246.082031 148.710938 C 250.691406 138.417969 254.460938 128.230469 257.285156 118.449219 L 258.210938 115.257812 L 261.355469 116.339844 C 286.367188 124.933594 301.296875 137.519531 301.296875 150 C 301.296875 162.484375 286.367188 175.066406 261.347656 183.667969 Z M 252.421875 150 C 256.402344 159.011719 259.746094 167.9375 262.398438 176.582031 C 282.296875 169.191406 294.976562 158.917969 294.976562 150 C 294.976562 141.082031 282.296875 130.808594 262.398438 123.417969 C 259.746094 132.078125 256.394531 140.992188 252.421875 150 Z M 116.898438 184.742188 L 113.757812 183.660156 C 88.753906 175.058594 73.820312 162.480469 73.820312 150 C 73.820312 137.519531 88.753906 124.941406 113.757812 116.339844 L 116.898438 115.257812 L 117.820312 118.449219 C 120.65625 128.261719 124.421875 138.449219 129.015625 148.710938 L 129.605469 150 L 129.023438 151.289062 C 124.421875 161.550781 120.664062 171.738281 117.824219 181.550781 Z M 112.714844 123.417969 C 92.816406 130.8125 80.140625 141.089844 80.140625 150 C 80.140625 158.910156 92.816406 169.1875 112.714844 176.582031 C 115.375 167.898438 118.714844 158.980469 122.683594 150 C 118.714844 141.019531 115.375 132.101562 112.714844 123.417969 Z M 133.078125 142.476562 L 130.539062 136.054688 C 127.972656 129.570312 125.722656 123.027344 123.867188 116.601562 L 122.960938 113.488281 L 126.101562 112.675781 C 132.523438 111.007812 139.410156 109.59375 146.589844 108.476562 L 153.578125 107.390625 L 149.722656 113.320312 C 147.367188 116.949219 145.046875 120.652344 142.804688 124.472656 C 140.492188 128.417969 138.335938 132.390625 136.269531 136.359375 Z M 130.875 117.988281 C 131.816406 121.0625 132.851562 124.164062 133.964844 127.265625 C 135.0625 125.269531 136.1875 123.273438 137.351562 121.277344 C 138.410156 119.464844 139.492188 117.675781 140.585938 115.910156 C 137.253906 116.535156 134.007812 117.234375 130.875 117.988281 Z M 242.027344 142.476562 L 238.828125 136.359375 C 236.757812 132.386719 234.601562 128.417969 232.289062 124.464844 C 230.054688 120.644531 227.726562 116.945312 225.371094 113.308594 L 221.535156 107.382812 L 228.511719 108.46875 C 235.695312 109.585938 242.59375 111 249.003906 112.675781 L 252.144531 113.488281 L 251.238281 116.609375 C 249.371094 123.050781 247.125 129.601562 244.5625 136.066406 Z M 234.507812 115.902344 C 235.601562 117.671875 236.6875 119.457031 237.75 121.277344 C 238.917969 123.273438 240.042969 125.269531 241.140625 127.269531 C 242.253906 124.167969 243.289062 121.070312 244.238281 117.988281 C 241.097656 117.230469 237.84375 116.535156 234.507812 115.902344 Z M 253.683594 107.414062 L 250.480469 106.582031 C 240.453125 103.960938 229.535156 101.996094 218.023438 100.738281 L 216.644531 100.585938 L 215.824219 99.476562 C 209.0625 90.324219 201.847656 81.847656 194.378906 74.296875 L 192.015625 71.902344 L 194.546875 69.691406 C 214.949219 51.9375 233.996094 44.941406 245.269531 51.371094 C 250.039062 54.09375 253.417969 59.0625 255.320312 66.136719 C 257.898438 75.78125 257.566406 88.933594 254.359375 104.175781 Z M 220.082031 94.605469 C 230.171875 95.761719 239.816406 97.453125 248.824219 99.644531 C 252.09375 87.601562 252.554688 76.941406 249.222656 67.765625 C 247.316406 62.523438 245.40625 58.703125 242.152344 56.847656 C 233.953125 52.171875 218.066406 58.335938 201.25 72.28125 C 207.777344 79.109375 214.105469 86.605469 220.082031 94.605469 Z M 121.425781 107.414062 L 120.746094 104.175781 C 117.535156 88.933594 117.199219 75.785156 119.785156 66.140625 C 121.6875 59.050781 125.066406 54.074219 129.835938 51.359375 C 141.140625 44.914062 160.171875 51.933594 180.578125 69.699219 L 183.117188 71.910156 L 180.746094 74.300781 C 173.265625 81.863281 166.050781 90.335938 159.289062 99.480469 L 158.46875 100.59375 L 157.089844 100.746094 C 145.601562 102.003906 134.675781 103.964844 124.628906 106.585938 Z M 139.535156 55.265625 C 137.003906 55.265625 134.792969 55.792969 132.957031 56.839844 C 129.710938 58.691406 128.066406 62.625 125.886719 67.773438 C 122.476562 75.824219 123.050781 86.789062 126.285156 99.644531 C 135.308594 97.453125 144.953125 95.761719 155.03125 94.605469 C 161.007812 86.605469 167.339844 79.113281 173.878906 72.289062 C 160.804688 61.4375 148.402344 55.265625 139.535156 55.265625 Z M 166.765625 99.722656 L 171.179688 94.253906 C 175.667969 88.695312 180.425781 83.371094 185.316406 78.417969 L 187.558594 76.144531 L 189.800781 78.417969 C 194.710938 83.390625 199.464844 88.714844 203.929688 94.246094 L 208.335938 99.714844 L 201.320312 99.386719 C 192.285156 98.964844 182.808594 98.964844 173.777344 99.386719 Z M 187.558594 92.730469 C 189.898438 92.730469 192.214844 92.761719 194.515625 92.820312 C 192.261719 90.199219 189.929688 87.648438 187.566406 85.171875 C 185.203125 87.640625 182.878906 90.191406 180.609375 92.820312 C 182.910156 92.761719 185.222656 92.730469 187.558594 92.730469 Z M 187.558594 92.730469 " fill-opacity="1" fill-rule="nonzero"/></g></svg>