<svg xmlns="http://www.w3.org/2000/svg" xmlns:xlink="http://www.w3.org/1999/xlink" width="500" zoomAndPan="magnify" viewBox="0 0 375 299.999988" height="400" preserveAspectRatio="xMidYMid meet" version="1.0"><defs><clipPath id="ddfebe2c36"><path d="M 37.5 0 L 337.5 0 L 337.5 300 L 37.5 300 Z M 37.5 0 " clip-rule="nonzero"/></clipPath><clipPath id="6b625955ad"><path d="M 43.902344 6.402344 L 331.152344 6.402344 L 331.152344 293.652344 L 43.902344 293.652344 Z M 43.902344 6.402344 " clip-rule="nonzero"/></clipPath><clipPath id="f95c46591e"><path d="M 82.800781 75 L 217 75 L 217 135 L 82.800781 135 Z M 82.800781 75 " clip-rule="nonzero"/></clipPath></defs><g clip-path="url(#ddfebe2c36)"><path fill="#155ec4" d="M 337.5 254.386719 C 337.5 279.5625 317.089844 299.972656 291.914062 299.972656 L 83.097656 299.972656 C 57.917969 299.972656 37.511719 279.5625 37.511719 254.386719 L 37.511719 45.566406 C 37.511719 20.390625 57.917969 -0.0195312 83.097656 -0.0195312 L 291.914062 -0.0195312 C 317.089844 -0.0195312 337.5 20.390625 337.5 45.566406 Z M 337.5 254.386719 " fill-opacity="1" fill-rule="nonzero"/></g><path fill="#ffffff" d="M 156.132812 107.007812 C 156.132812 107.742188 156.097656 108.476562 156.023438 109.207031 C 155.953125 109.9375 155.847656 110.660156 155.703125 111.382812 C 155.558594 112.101562 155.382812 112.8125 155.167969 113.515625 C 154.957031 114.21875 154.707031 114.90625 154.425781 115.585938 C 154.148438 116.261719 153.832031 116.925781 153.488281 117.574219 C 153.140625 118.222656 152.765625 118.851562 152.355469 119.460938 C 151.949219 120.070312 151.511719 120.660156 151.046875 121.226562 C 150.582031 121.792969 150.089844 122.335938 149.570312 122.855469 C 149.050781 123.375 148.507812 123.867188 147.941406 124.332031 C 147.371094 124.796875 146.785156 125.234375 146.171875 125.644531 C 145.5625 126.050781 144.933594 126.425781 144.289062 126.773438 C 143.640625 127.121094 142.976562 127.433594 142.300781 127.714844 C 141.621094 127.996094 140.929688 128.242188 140.226562 128.453125 C 139.527344 128.667969 138.816406 128.847656 138.09375 128.988281 C 137.375 129.132812 136.648438 129.238281 135.917969 129.3125 C 135.1875 129.382812 134.457031 129.417969 133.722656 129.417969 C 132.988281 129.417969 132.257812 129.382812 131.527344 129.3125 C 130.796875 129.238281 130.070312 129.132812 129.351562 128.988281 C 128.632812 128.847656 127.921875 128.667969 127.21875 128.453125 C 126.515625 128.242188 125.824219 127.996094 125.148438 127.714844 C 124.46875 127.433594 123.804688 127.121094 123.160156 126.773438 C 122.511719 126.425781 121.882812 126.050781 121.273438 125.644531 C 120.664062 125.234375 120.074219 124.796875 119.507812 124.332031 C 118.9375 123.867188 118.394531 123.375 117.875 122.855469 C 117.359375 122.335938 116.867188 121.792969 116.398438 121.226562 C 115.933594 120.660156 115.496094 120.070312 115.089844 119.460938 C 114.683594 118.851562 114.304688 118.222656 113.960938 117.574219 C 113.613281 116.925781 113.300781 116.261719 113.019531 115.585938 C 112.738281 114.90625 112.492188 114.21875 112.277344 113.515625 C 112.066406 112.8125 111.886719 112.101562 111.742188 111.382812 C 111.601562 110.660156 111.492188 109.9375 111.421875 109.207031 C 111.347656 108.476562 111.3125 107.742188 111.3125 107.007812 C 111.3125 106.277344 111.347656 105.542969 111.421875 104.8125 C 111.492188 104.082031 111.601562 103.355469 111.742188 102.636719 C 111.886719 101.917969 112.066406 101.207031 112.277344 100.503906 C 112.492188 99.800781 112.738281 99.113281 113.019531 98.433594 C 113.300781 97.753906 113.613281 97.09375 113.960938 96.445312 C 114.304688 95.796875 114.683594 95.167969 115.089844 94.558594 C 115.496094 93.949219 115.933594 93.359375 116.398438 92.792969 C 116.867188 92.226562 117.359375 91.683594 117.875 91.164062 C 118.394531 90.644531 118.9375 90.152344 119.507812 89.6875 C 120.074219 89.21875 120.664062 88.785156 121.273438 88.375 C 121.882812 87.96875 122.511719 87.589844 123.160156 87.246094 C 123.804688 86.898438 124.46875 86.585938 125.148438 86.304688 C 125.824219 86.023438 126.515625 85.777344 127.21875 85.5625 C 127.921875 85.351562 128.632812 85.171875 129.351562 85.03125 C 130.070312 84.886719 130.796875 84.777344 131.527344 84.707031 C 132.257812 84.636719 132.988281 84.597656 133.722656 84.597656 C 134.457031 84.597656 135.1875 84.636719 135.917969 84.707031 C 136.648438 84.777344 137.375 84.886719 138.09375 85.03125 C 138.816406 85.171875 139.527344 85.351562 140.226562 85.5625 C 140.929688 85.777344 141.621094 86.023438 142.300781 86.304688 C 142.976562 86.585938 143.640625 86.898438 144.289062 87.246094 C 144.933594 87.589844 145.5625 87.96875 146.171875 88.375 C 146.785156 88.785156 147.371094 89.21875 147.941406 89.6875 C 148.507812 90.152344 149.050781 90.644531 149.570312 91.164062 C 150.089844 91.683594 150.582031 92.226562 151.046875 92.792969 C 151.511719 93.359375 151.949219 93.949219 152.355469 94.558594 C 152.765625 95.167969 153.140625 95.796875 153.488281 96.445312 C 153.832031 97.09375 154.148438 97.753906 154.425781 98.433594 C 154.707031 99.113281 154.957031 99.800781 155.167969 100.503906 C 155.382812 101.207031 155.558594 101.917969 155.703125 102.636719 C 155.847656 103.355469 155.953125 104.082031 156.023438 104.8125 C 156.097656 105.542969 156.132812 106.277344 156.132812 107.007812 Z M 156.132812 107.007812 " fill-opacity="1" fill-rule="nonzero"/><path fill="#ffffff" d="M 114.402344 145.941406 L 152.902344 145.941406 L 152.902344 269.792969 L 114.402344 269.792969 Z M 114.402344 145.941406 " fill-opacity="1" fill-rule="nonzero"/><path fill="#ffffff" d="M 177.117188 145.941406 L 213.761719 145.941406 L 213.761719 269.792969 L 177.117188 269.792969 Z M 177.117188 145.941406 " fill-opacity="1" fill-rule="nonzero"/><path fill="#ffffff" d="M 178.703125 211.882812 L 215.34375 211.882812 L 215.34375 269.792969 L 178.703125 269.792969 Z M 178.703125 211.882812 " fill-opacity="1" fill-rule="nonzero"/><path fill="#ffffff" d="M 215.34375 211.882812 C 215.34375 211.882812 214.773438 195.820312 219.007812 187.46875 C 219.007812 187.46875 223.246094 177.179688 236.5625 177.121094 C 236.5625 177.121094 252.179688 174.394531 256.660156 189.890625 C 256.660156 189.890625 258.355469 198.484375 258.355469 202.117188 C 258.355469 205.75 258.476562 269.796875 258.476562 269.796875 L 296.855469 269.796875 L 296.855469 198.851562 C 296.855469 198.851562 299.640625 158.773438 275.585938 147.796875 C 275.585938 147.796875 236.035156 130.042969 214.570312 162.648438 C 214.570312 162.648438 209.886719 165.875 209.242188 156.835938 C 208.59375 147.796875 203.109375 170.71875 202.945312 171.207031 C 202.785156 171.6875 209.242188 216.886719 209.242188 216.886719 Z M 215.34375 211.882812 " fill-opacity="1" fill-rule="nonzero"/><g clip-path="url(#6b625955ad)"><path fill="#ffffff" d="M 331.09375 249.925781 C 331.09375 274.027344 311.554688 293.566406 287.453125 293.566406 L 87.550781 293.566406 C 63.449219 293.566406 43.914062 274.027344 43.914062 249.925781 L 43.914062 50.023438 C 43.914062 25.921875 63.449219 6.382812 87.550781 6.382812 L 287.453125 6.382812 C 311.554688 6.382812 331.09375 25.921875 331.09375 50.023438 Z M 331.09375 249.925781 " fill-opacity="1" fill-rule="nonzero"/></g><path fill="#ffffff" d="M 157.46875 108.839844 C 157.46875 109.542969 157.433594 110.246094 157.367188 110.945312 C 157.296875 111.644531 157.195312 112.339844 157.058594 113.027344 C 156.917969 113.714844 156.75 114.398438 156.546875 115.070312 C 156.339844 115.742188 156.105469 116.402344 155.835938 117.050781 C 155.566406 117.699219 155.265625 118.335938 154.9375 118.953125 C 154.605469 119.574219 154.242188 120.175781 153.855469 120.761719 C 153.464844 121.34375 153.046875 121.910156 152.597656 122.453125 C 152.152344 122.996094 151.683594 123.515625 151.1875 124.011719 C 150.6875 124.507812 150.167969 124.980469 149.625 125.425781 C 149.082031 125.871094 148.519531 126.289062 147.933594 126.679688 C 147.351562 127.070312 146.75 127.429688 146.128906 127.761719 C 145.507812 128.09375 144.875 128.394531 144.226562 128.660156 C 143.578125 128.929688 142.914062 129.167969 142.242188 129.371094 C 141.570312 129.574219 140.890625 129.746094 140.199219 129.882812 C 139.511719 130.019531 138.816406 130.121094 138.117188 130.191406 C 137.417969 130.261719 136.71875 130.296875 136.015625 130.296875 C 135.3125 130.296875 134.613281 130.261719 133.914062 130.191406 C 133.214844 130.121094 132.519531 130.019531 131.832031 129.882812 C 131.140625 129.746094 130.460938 129.574219 129.789062 129.371094 C 129.117188 129.167969 128.457031 128.929688 127.804688 128.660156 C 127.15625 128.394531 126.523438 128.09375 125.902344 127.761719 C 125.28125 127.429688 124.679688 127.070312 124.097656 126.679688 C 123.511719 126.289062 122.949219 125.871094 122.40625 125.425781 C 121.863281 124.980469 121.34375 124.507812 120.847656 124.011719 C 120.347656 123.515625 119.878906 122.996094 119.433594 122.453125 C 118.988281 121.910156 118.570312 121.34375 118.179688 120.761719 C 117.789062 120.175781 117.425781 119.574219 117.09375 118.953125 C 116.765625 118.335938 116.464844 117.699219 116.195312 117.050781 C 115.925781 116.402344 115.691406 115.742188 115.484375 115.070312 C 115.28125 114.398438 115.113281 113.714844 114.976562 113.027344 C 114.835938 112.339844 114.734375 111.644531 114.664062 110.945312 C 114.597656 110.246094 114.5625 109.542969 114.5625 108.839844 C 114.5625 108.140625 114.597656 107.4375 114.664062 106.738281 C 114.734375 106.039062 114.835938 105.34375 114.976562 104.65625 C 115.113281 103.96875 115.28125 103.285156 115.484375 102.613281 C 115.691406 101.941406 115.925781 101.28125 116.195312 100.632812 C 116.464844 99.984375 116.765625 99.347656 117.09375 98.730469 C 117.425781 98.109375 117.789062 97.507812 118.179688 96.921875 C 118.570312 96.339844 118.988281 95.773438 119.433594 95.230469 C 119.878906 94.6875 120.347656 94.167969 120.847656 93.671875 C 121.34375 93.175781 121.863281 92.703125 122.40625 92.257812 C 122.949219 91.8125 123.511719 91.394531 124.097656 91.003906 C 124.679688 90.613281 125.28125 90.253906 125.902344 89.921875 C 126.523438 89.589844 127.15625 89.289062 127.804688 89.019531 C 128.457031 88.753906 129.117188 88.515625 129.789062 88.3125 C 130.460938 88.109375 131.140625 87.9375 131.832031 87.800781 C 132.519531 87.664062 133.214844 87.5625 133.914062 87.492188 C 134.613281 87.421875 135.3125 87.386719 136.015625 87.386719 C 136.71875 87.386719 137.417969 87.421875 138.117188 87.492188 C 138.816406 87.5625 139.511719 87.664062 140.199219 87.800781 C 140.890625 87.9375 141.570312 88.109375 142.242188 88.3125 C 142.914062 88.515625 143.578125 88.753906 144.226562 89.019531 C 144.875 89.289062 145.507812 89.589844 146.128906 89.921875 C 146.75 90.253906 147.351562 90.613281 147.933594 91.003906 C 148.519531 91.394531 149.082031 91.8125 149.625 92.257812 C 150.167969 92.703125 150.6875 93.175781 151.1875 93.671875 C 151.683594 94.167969 152.152344 94.6875 152.597656 95.230469 C 153.046875 95.773438 153.464844 96.339844 153.855469 96.921875 C 154.242188 97.507812 154.605469 98.109375 154.9375 98.730469 C 155.265625 99.347656 155.566406 99.984375 155.835938 100.632812 C 156.105469 101.28125 156.339844 101.941406 156.546875 102.613281 C 156.75 103.285156 156.917969 103.96875 157.058594 104.65625 C 157.195312 105.34375 157.296875 106.039062 157.367188 106.738281 C 157.433594 107.4375 157.46875 108.140625 157.46875 108.839844 Z M 157.46875 108.839844 " fill-opacity="1" fill-rule="nonzero"/><path fill="#ffffff" d="M 117.523438 146.109375 L 154.378906 146.109375 L 154.378906 264.675781 L 117.523438 264.675781 Z M 117.523438 146.109375 " fill-opacity="1" fill-rule="nonzero"/><path fill="#ffffff" d="M 177.558594 146.109375 L 212.636719 146.109375 L 212.636719 264.675781 L 177.558594 264.675781 Z M 177.558594 146.109375 " fill-opacity="1" fill-rule="nonzero"/><path fill="#ffffff" d="M 179.074219 209.238281 L 214.152344 209.238281 L 214.152344 264.675781 L 179.074219 264.675781 Z M 179.074219 209.238281 " fill-opacity="1" fill-rule="nonzero"/><path fill="#ffffff" d="M 214.152344 209.238281 C 214.152344 209.238281 213.605469 193.859375 217.660156 185.863281 C 217.660156 185.863281 221.714844 176.019531 234.464844 175.957031 C 234.464844 175.957031 249.417969 173.347656 253.703125 188.183594 C 253.703125 188.183594 255.328125 196.410156 255.328125 199.890625 C 255.328125 203.367188 255.441406 264.675781 255.441406 264.675781 L 292.183594 264.675781 L 292.183594 196.761719 C 292.183594 196.761719 294.847656 158.398438 271.824219 147.886719 C 271.824219 147.886719 233.960938 130.890625 213.410156 162.105469 C 213.410156 162.105469 208.929688 165.195312 208.308594 156.542969 C 207.691406 147.886719 202.4375 169.832031 202.285156 170.296875 C 202.128906 170.761719 208.308594 214.027344 208.308594 214.027344 Z M 214.152344 209.238281 " fill-opacity="1" fill-rule="nonzero"/><path fill="#5373fc" d="M 256.839844 33.054688 L 256.839844 64.644531 L 288.410156 64.644531 Z M 256.839844 33.054688 " fill-opacity="1" fill-rule="nonzero"/><g clip-path="url(#f95c46591e)"><path fill="#5373fc" d="M 216.023438 75.859375 L 82.660156 75.859375 L 82.660156 134.722656 L 216.023438 134.722656 Z M 149.328125 91.273438 L 138.9375 91.136719 L 139.691406 127.574219 C 139.691406 127.933594 139.660156 128.289062 139.59375 128.640625 C 139.523438 128.988281 139.425781 129.332031 139.292969 129.664062 C 139.160156 129.996094 138.996094 130.3125 138.800781 130.613281 C 138.609375 130.914062 138.386719 131.195312 138.140625 131.453125 C 137.894531 131.710938 137.625 131.945312 137.335938 132.152344 C 137.042969 132.359375 136.734375 132.535156 136.410156 132.683594 C 136.082031 132.832031 135.746094 132.949219 135.398438 133.03125 C 135.050781 133.117188 134.699219 133.164062 134.34375 133.179688 L 134.203125 133.179688 C 133.835938 133.179688 133.46875 133.144531 133.109375 133.074219 C 132.75 133 132.398438 132.894531 132.058594 132.753906 C 131.71875 132.613281 131.394531 132.441406 131.089844 132.238281 C 130.785156 132.03125 130.5 131.800781 130.242188 131.539062 C 129.980469 131.277344 129.75 130.996094 129.542969 130.691406 C 129.339844 130.382812 129.167969 130.0625 129.027344 129.71875 C 128.886719 129.378906 128.777344 129.03125 128.707031 128.667969 C 128.636719 128.308594 128.601562 127.945312 128.601562 127.574219 L 127.816406 90.769531 L 117.171875 90.574219 C 116.804688 90.574219 116.4375 90.539062 116.078125 90.46875 C 115.71875 90.394531 115.367188 90.289062 115.027344 90.148438 C 114.6875 90.007812 114.363281 89.835938 114.058594 89.628906 C 113.753906 89.425781 113.46875 89.191406 113.210938 88.933594 C 112.949219 88.671875 112.71875 88.390625 112.511719 88.082031 C 112.308594 87.777344 112.136719 87.453125 111.996094 87.113281 C 111.855469 86.773438 111.746094 86.421875 111.675781 86.0625 C 111.605469 85.699219 111.570312 85.335938 111.570312 84.96875 C 111.570312 84.601562 111.605469 84.234375 111.675781 83.875 C 111.746094 83.511719 111.855469 83.164062 111.996094 82.824219 C 112.136719 82.484375 112.308594 82.160156 112.511719 81.855469 C 112.71875 81.546875 112.949219 81.265625 113.210938 81.003906 C 113.46875 80.742188 113.753906 80.511719 114.058594 80.308594 C 114.363281 80.101562 114.6875 79.929688 115.027344 79.789062 C 115.367188 79.648438 115.71875 79.542969 116.078125 79.46875 C 116.4375 79.398438 116.804688 79.363281 117.171875 79.363281 L 149.300781 80.007812 C 149.667969 80.007812 150.03125 80.042969 150.394531 80.113281 C 150.753906 80.1875 151.105469 80.292969 151.445312 80.433594 C 151.785156 80.574219 152.105469 80.746094 152.414062 80.953125 C 152.71875 81.15625 153.003906 81.386719 153.261719 81.648438 C 153.523438 81.910156 153.753906 82.191406 153.957031 82.5 C 154.164062 82.804688 154.335938 83.128906 154.476562 83.46875 C 154.617188 83.808594 154.722656 84.160156 154.796875 84.519531 C 154.867188 84.878906 154.902344 85.246094 154.902344 85.613281 C 154.902344 85.980469 154.867188 86.347656 154.796875 86.707031 C 154.722656 87.066406 154.617188 87.417969 154.476562 87.757812 C 154.335938 88.097656 154.164062 88.421875 153.957031 88.726562 C 153.753906 89.035156 153.523438 89.316406 153.261719 89.578125 C 153.003906 89.835938 152.71875 90.070312 152.414062 90.273438 C 152.105469 90.480469 151.785156 90.652344 151.445312 90.792969 C 151.105469 90.933594 150.753906 91.039062 150.394531 91.113281 C 150.03125 91.183594 149.667969 91.21875 149.300781 91.21875 Z M 171.457031 99.683594 C 171.996094 99.683594 172.53125 99.710938 173.0625 99.761719 C 173.597656 99.816406 174.128906 99.894531 174.65625 100 C 175.179688 100.105469 175.703125 100.234375 176.214844 100.390625 C 176.730469 100.546875 177.234375 100.726562 177.730469 100.933594 C 178.226562 101.136719 178.710938 101.367188 179.183594 101.621094 C 179.65625 101.875 180.117188 102.148438 180.5625 102.449219 C 181.007812 102.746094 181.4375 103.066406 181.855469 103.40625 C 182.269531 103.746094 182.667969 104.109375 183.046875 104.488281 C 183.425781 104.867188 183.785156 105.265625 184.125 105.679688 C 184.464844 106.09375 184.785156 106.527344 185.082031 106.972656 C 185.382812 107.417969 185.65625 107.878906 185.910156 108.351562 C 186.164062 108.828125 186.390625 109.3125 186.597656 109.808594 C 186.804688 110.304688 186.984375 110.808594 187.140625 111.324219 C 187.296875 111.835938 187.425781 112.355469 187.53125 112.882812 C 187.636719 113.410156 187.714844 113.941406 187.765625 114.476562 C 187.820312 115.011719 187.84375 115.546875 187.84375 116.082031 C 187.84375 116.621094 187.820312 117.15625 187.765625 117.691406 C 187.714844 118.222656 187.636719 118.753906 187.53125 119.28125 C 187.425781 119.808594 187.296875 120.328125 187.140625 120.84375 C 186.984375 121.355469 186.804688 121.863281 186.597656 122.359375 C 186.390625 122.855469 186.164062 123.339844 185.910156 123.8125 C 185.65625 124.285156 185.382812 124.746094 185.082031 125.191406 C 184.785156 125.640625 184.464844 126.070312 184.125 126.484375 C 183.785156 126.902344 183.425781 127.296875 183.046875 127.679688 C 182.667969 128.058594 182.269531 128.417969 181.855469 128.757812 C 181.4375 129.097656 181.007812 129.417969 180.5625 129.71875 C 180.117188 130.015625 179.65625 130.292969 179.183594 130.542969 C 178.710938 130.796875 178.226562 131.027344 177.730469 131.234375 C 177.234375 131.4375 176.730469 131.617188 176.214844 131.773438 C 175.703125 131.929688 175.179688 132.0625 174.65625 132.164062 C 174.128906 132.269531 173.597656 132.347656 173.0625 132.402344 C 172.53125 132.453125 171.996094 132.480469 171.457031 132.480469 C 170.921875 132.480469 170.386719 132.453125 169.851562 132.402344 C 169.316406 132.347656 168.789062 132.269531 168.261719 132.164062 C 167.734375 132.0625 167.214844 131.929688 166.703125 131.773438 C 166.1875 131.617188 165.683594 131.4375 165.1875 131.234375 C 164.691406 131.027344 164.207031 130.796875 163.734375 130.542969 C 163.261719 130.292969 162.800781 130.015625 162.355469 129.71875 C 161.90625 129.417969 161.476562 129.097656 161.0625 128.757812 C 160.648438 128.417969 160.25 128.058594 159.871094 127.679688 C 159.492188 127.296875 159.132812 126.902344 158.789062 126.484375 C 158.449219 126.070312 158.132812 125.640625 157.832031 125.191406 C 157.535156 124.746094 157.257812 124.285156 157.007812 123.8125 C 156.753906 123.339844 156.523438 122.855469 156.320312 122.359375 C 156.113281 121.863281 155.933594 121.355469 155.777344 120.84375 C 155.621094 120.328125 155.492188 119.808594 155.386719 119.28125 C 155.28125 118.753906 155.203125 118.222656 155.148438 117.691406 C 155.097656 117.15625 155.070312 116.621094 155.070312 116.082031 C 155.070312 115.714844 155.105469 115.351562 155.179688 114.988281 C 155.25 114.628906 155.355469 114.277344 155.496094 113.9375 C 155.636719 113.597656 155.8125 113.273438 156.015625 112.96875 C 156.21875 112.660156 156.453125 112.378906 156.710938 112.117188 C 156.972656 111.859375 157.253906 111.625 157.5625 111.421875 C 157.867188 111.214844 158.191406 111.042969 158.53125 110.902344 C 158.871094 110.761719 159.21875 110.65625 159.582031 110.585938 C 159.941406 110.511719 160.304688 110.476562 160.671875 110.476562 C 161.042969 110.476562 161.40625 110.511719 161.765625 110.585938 C 162.128906 110.65625 162.476562 110.761719 162.816406 110.902344 C 163.15625 111.042969 163.480469 111.214844 163.785156 111.421875 C 164.09375 111.625 164.375 111.859375 164.636719 112.117188 C 164.894531 112.378906 165.128906 112.660156 165.332031 112.96875 C 165.535156 113.273438 165.707031 113.597656 165.847656 113.9375 C 165.988281 114.277344 166.097656 114.628906 166.167969 114.988281 C 166.238281 115.351562 166.277344 115.714844 166.277344 116.082031 C 166.285156 116.421875 166.328125 116.753906 166.402344 117.085938 C 166.476562 117.414062 166.582031 117.734375 166.71875 118.042969 C 166.855469 118.355469 167.023438 118.648438 167.214844 118.925781 C 167.410156 119.203125 167.628906 119.457031 167.875 119.691406 C 168.121094 119.925781 168.382812 120.132812 168.667969 120.316406 C 168.953125 120.496094 169.253906 120.648438 169.570312 120.773438 C 169.886719 120.894531 170.210938 120.988281 170.542969 121.046875 C 170.875 121.105469 171.210938 121.132812 171.550781 121.128906 C 171.886719 121.121094 172.222656 121.082031 172.550781 121.011719 C 172.882812 120.9375 173.203125 120.835938 173.515625 120.703125 C 173.824219 120.566406 174.117188 120.402344 174.398438 120.210938 C 174.675781 120.019531 174.933594 119.800781 175.167969 119.558594 C 175.40625 119.316406 175.617188 119.054688 175.800781 118.769531 C 175.984375 118.488281 176.140625 118.1875 176.265625 117.875 C 176.390625 117.558594 176.484375 117.238281 176.546875 116.902344 C 176.613281 116.570312 176.640625 116.234375 176.636719 115.898438 C 176.636719 115.558594 176.597656 115.222656 176.53125 114.890625 C 176.460938 114.5625 176.363281 114.238281 176.230469 113.925781 C 176.097656 113.613281 175.9375 113.320312 175.75 113.039062 C 175.558594 112.757812 175.34375 112.5 175.105469 112.261719 C 174.863281 112.023438 174.605469 111.808594 174.320312 111.621094 C 174.039062 111.433594 173.742188 111.277344 173.429688 111.148438 C 173.117188 111.019531 172.796875 110.921875 172.464844 110.855469 C 172.132812 110.789062 171.796875 110.757812 171.457031 110.757812 C 170.921875 110.757812 170.382812 110.730469 169.847656 110.679688 C 169.3125 110.628906 168.78125 110.550781 168.253906 110.445312 C 167.726562 110.34375 167.207031 110.210938 166.691406 110.058594 C 166.175781 109.902344 165.667969 109.722656 165.171875 109.515625 C 164.675781 109.3125 164.1875 109.082031 163.714844 108.828125 C 163.238281 108.574219 162.777344 108.300781 162.332031 108.003906 C 161.882812 107.703125 161.453125 107.382812 161.035156 107.042969 C 160.617188 106.703125 160.21875 106.34375 159.839844 105.960938 C 159.457031 105.582031 159.097656 105.183594 158.753906 104.769531 C 158.414062 104.351562 158.09375 103.921875 157.792969 103.476562 C 157.496094 103.027344 157.21875 102.566406 156.964844 102.09375 C 156.710938 101.617188 156.480469 101.132812 156.273438 100.636719 C 156.066406 100.140625 155.882812 99.632812 155.726562 99.117188 C 155.570312 98.605469 155.441406 98.082031 155.335938 97.554688 C 155.230469 97.027344 155.148438 96.496094 155.097656 95.960938 C 155.042969 95.425781 155.015625 94.886719 155.015625 94.347656 C 155.015625 93.8125 155.039062 93.273438 155.09375 92.738281 C 155.144531 92.203125 155.222656 91.671875 155.328125 91.144531 C 155.429688 90.617188 155.5625 90.09375 155.71875 89.578125 C 155.871094 89.0625 156.054688 88.558594 156.257812 88.058594 C 156.464844 87.5625 156.691406 87.078125 156.945312 86.601562 C 157.199219 86.125 157.476562 85.664062 157.773438 85.21875 C 158.070312 84.769531 158.390625 84.335938 158.730469 83.921875 C 159.074219 83.503906 159.433594 83.105469 159.8125 82.726562 C 160.191406 82.34375 160.589844 81.984375 161.007812 81.640625 C 161.421875 81.300781 161.851562 80.980469 162.300781 80.679688 C 162.746094 80.378906 163.207031 80.105469 163.679688 79.851562 C 164.15625 79.597656 164.640625 79.367188 165.136719 79.160156 C 165.632812 78.953125 166.140625 78.773438 166.65625 78.613281 C 167.167969 78.457031 167.691406 78.328125 168.21875 78.222656 C 168.746094 78.117188 169.277344 78.039062 169.8125 77.984375 C 170.347656 77.929688 170.882812 77.90625 171.421875 77.90625 C 171.957031 77.90625 172.496094 77.929688 173.03125 77.984375 C 173.566406 78.035156 174.097656 78.113281 174.625 78.21875 C 175.152344 78.324219 175.671875 78.453125 176.1875 78.609375 C 176.703125 78.765625 177.207031 78.945312 177.707031 79.152344 C 178.203125 79.359375 178.6875 79.585938 179.164062 79.839844 C 179.636719 80.09375 180.097656 80.371094 180.546875 80.667969 C 180.992188 80.96875 181.421875 81.289062 181.839844 81.628906 C 182.253906 81.972656 182.652344 82.332031 183.035156 82.710938 C 183.414062 83.09375 183.773438 83.492188 184.117188 83.90625 C 184.457031 84.324219 184.777344 84.753906 185.078125 85.203125 C 185.375 85.648438 185.652344 86.109375 185.90625 86.585938 C 186.160156 87.058594 186.390625 87.546875 186.59375 88.042969 C 186.800781 88.539062 186.980469 89.046875 187.136719 89.5625 C 187.292969 90.074219 187.425781 90.597656 187.53125 91.125 C 187.632812 91.652344 187.714844 92.183594 187.765625 92.71875 C 187.820312 93.253906 187.84375 93.792969 187.84375 94.332031 C 187.84375 94.699219 187.808594 95.0625 187.738281 95.425781 C 187.664062 95.785156 187.558594 96.136719 187.417969 96.476562 C 187.277344 96.816406 187.105469 97.140625 186.902344 97.445312 C 186.695312 97.75 186.464844 98.035156 186.203125 98.292969 C 185.945312 98.554688 185.660156 98.789062 185.355469 98.992188 C 185.050781 99.195312 184.726562 99.371094 184.386719 99.511719 C 184.046875 99.652344 183.695312 99.757812 183.335938 99.828125 C 182.976562 99.902344 182.609375 99.9375 182.242188 99.9375 C 181.875 99.9375 181.511719 99.902344 181.148438 99.828125 C 180.789062 99.757812 180.4375 99.652344 180.097656 99.511719 C 179.757812 99.371094 179.4375 99.195312 179.128906 98.992188 C 178.824219 98.789062 178.542969 98.554688 178.28125 98.292969 C 178.019531 98.035156 177.789062 97.75 177.585938 97.445312 C 177.378906 97.140625 177.207031 96.816406 177.066406 96.476562 C 176.925781 96.136719 176.820312 95.785156 176.746094 95.425781 C 176.675781 95.0625 176.640625 94.699219 176.640625 94.332031 C 176.636719 93.992188 176.605469 93.652344 176.535156 93.320312 C 176.46875 92.988281 176.367188 92.664062 176.234375 92.351562 C 176.105469 92.035156 175.945312 91.738281 175.753906 91.457031 C 175.5625 91.175781 175.347656 90.914062 175.105469 90.675781 C 174.863281 90.4375 174.601562 90.222656 174.320312 90.035156 C 174.035156 89.847656 173.738281 89.6875 173.421875 89.558594 C 173.105469 89.429688 172.785156 89.332031 172.449219 89.269531 C 172.117188 89.203125 171.78125 89.171875 171.441406 89.171875 C 171.101562 89.175781 170.761719 89.207031 170.429688 89.277344 C 170.097656 89.34375 169.773438 89.441406 169.460938 89.574219 C 169.144531 89.707031 168.847656 89.867188 168.566406 90.054688 C 168.285156 90.246094 168.023438 90.460938 167.785156 90.703125 C 167.542969 90.941406 167.332031 91.207031 167.140625 91.488281 C 166.953125 91.773438 166.796875 92.070312 166.667969 92.386719 C 166.535156 92.699219 166.4375 93.023438 166.375 93.355469 C 166.308594 93.691406 166.273438 94.027344 166.277344 94.367188 C 166.277344 94.707031 166.308594 95.042969 166.378906 95.378906 C 166.445312 95.710938 166.542969 96.035156 166.671875 96.351562 C 166.804688 96.664062 166.964844 96.960938 167.152344 97.246094 C 167.339844 97.527344 167.554688 97.789062 167.796875 98.027344 C 168.039062 98.269531 168.300781 98.484375 168.582031 98.671875 C 168.863281 98.859375 169.164062 99.019531 169.476562 99.152344 C 169.792969 99.28125 170.113281 99.378906 170.449219 99.445312 C 170.78125 99.511719 171.117188 99.542969 171.457031 99.542969 Z M 171.457031 99.683594 " fill-opacity="1" fill-rule="nonzero"/></g><path fill="#5373fc" d="M 245.632812 70.253906 L 245.632812 30.140625 L 116.777344 30.140625 L 116.777344 64.644531 L 221.628906 64.644531 C 221.996094 64.644531 222.359375 64.683594 222.71875 64.753906 C 223.082031 64.824219 223.433594 64.933594 223.773438 65.074219 C 224.113281 65.214844 224.433594 65.386719 224.738281 65.589844 C 225.046875 65.796875 225.328125 66.027344 225.589844 66.289062 C 225.847656 66.546875 226.082031 66.832031 226.285156 67.136719 C 226.492188 67.445312 226.664062 67.765625 226.804688 68.105469 C 226.945312 68.445312 227.050781 68.796875 227.121094 69.160156 C 227.195312 69.519531 227.230469 69.882812 227.230469 70.253906 L 227.230469 140.328125 C 227.230469 140.699219 227.195312 141.0625 227.121094 141.421875 C 227.050781 141.785156 226.945312 142.132812 226.804688 142.476562 C 226.664062 142.816406 226.492188 143.136719 226.285156 143.445312 C 226.082031 143.75 225.847656 144.03125 225.589844 144.292969 C 225.328125 144.554688 225.046875 144.785156 224.738281 144.992188 C 224.433594 145.195312 224.113281 145.367188 223.773438 145.507812 C 223.433594 145.648438 223.082031 145.757812 222.71875 145.828125 C 222.359375 145.898438 221.996094 145.933594 221.628906 145.933594 L 116.609375 145.933594 C 116.625 146.074219 116.625 146.214844 116.609375 146.355469 L 116.609375 269.972656 L 291.9375 269.972656 L 291.9375 75.859375 L 251.238281 75.859375 C 250.867188 75.859375 250.503906 75.824219 250.144531 75.75 C 249.78125 75.679688 249.433594 75.574219 249.09375 75.429688 C 248.753906 75.289062 248.429688 75.117188 248.125 74.914062 C 247.816406 74.710938 247.535156 74.476562 247.273438 74.214844 C 247.015625 73.957031 246.78125 73.671875 246.578125 73.367188 C 246.375 73.0625 246.203125 72.738281 246.058594 72.398438 C 245.917969 72.058594 245.8125 71.707031 245.742188 71.347656 C 245.667969 70.984375 245.632812 70.621094 245.632812 70.253906 Z M 245.632812 70.253906 " fill-opacity="1" fill-rule="nonzero"/></svg>